<svg width="79" height="79" viewBox="0 0 79 79" fill="none" xmlns="http://www.w3.org/2000/svg">
<path d="M12.193 58.3299C12.193 58.3299 12.0212 58.1548 12.193 58.3299C12.0212 58.1548 11.8495 57.9796 11.8495 57.8044C11.6778 57.4541 11.506 57.279 11.506 57.279C11.506 56.7535 11.6777 56.228 11.6777 55.7025C12.193 55.7025 13.0517 55.5273 13.3951 54.4763C13.5669 53.9508 13.5669 53.2501 13.5669 52.5495C13.5669 52.1992 13.5669 51.8488 13.3951 51.6737C13.3951 51.3233 13.3951 51.1482 13.3951 50.973C12.8799 51.3233 10.9908 52.7246 10.6473 53.6005C10.4756 54.126 10.4756 54.4763 10.6473 54.8266C10.819 55.177 11.1625 55.3521 11.3343 55.5273C11.1625 55.7025 11.1625 56.0528 10.9908 56.4031C10.9908 56.4031 10.819 56.228 10.6473 55.8776C10.4756 55.5273 10.3039 55.177 10.1321 54.8266C9.96037 54.4763 9.78863 54.126 9.61689 53.7756C9.61689 53.6005 9.44514 53.4253 9.44514 53.4253V53.2501L8.92992 52.024C8.92992 51.6737 9.2734 50.973 9.44514 50.4475C9.96036 50.4475 10.8191 50.4475 11.3343 49.5717C11.506 49.2213 11.6777 48.5207 11.6777 47.82C11.6777 47.4697 11.6777 47.1194 11.6777 46.769C11.6777 46.4187 11.6777 46.2435 11.6777 46.0684C11.1625 46.2435 9.10166 47.2945 8.58645 48.1703C8.41471 48.3455 8.41472 48.5207 8.41472 48.6959C8.24299 49.3965 8.75818 49.922 8.92992 50.0972C8.75818 50.2723 8.58646 50.6227 8.41472 50.7978C8.41472 50.7978 8.41471 50.6227 8.24298 50.4475C8.24298 50.2723 8.07123 50.0972 8.07123 49.7468C7.89949 49.2213 7.72775 48.6959 7.72775 48.6959C7.72775 48.6959 7.72777 48.5207 7.55603 48.3455C7.55603 48.1703 7.38428 47.9952 7.38428 47.9952L7.04081 46.769C7.21255 46.4187 7.55602 45.718 7.72775 45.3677C8.07123 45.5429 9.10166 45.5429 9.78861 44.667C10.1321 44.3167 10.3038 43.616 10.4756 42.9154C10.6473 42.2147 10.8191 41.6892 10.8191 41.3389C10.3038 41.5141 8.07124 42.2147 7.38428 42.9154C6.69733 43.7912 7.21254 44.667 7.38428 45.0174C7.21254 45.1925 7.0408 45.3677 6.86906 45.718C6.86906 45.718 6.86908 45.5429 6.69734 45.1925C6.69734 44.8422 6.52559 44.4919 6.52559 43.9664C6.52559 43.616 6.35384 43.0906 6.35384 42.7402C6.35384 42.3899 6.35384 42.2147 6.35384 42.2147C6.35384 42.2147 6.35384 41.8644 6.35384 41.5141C6.35384 41.3389 6.35384 41.1637 6.35384 41.1637C6.35384 40.9886 6.35384 40.9886 6.35384 40.9886C6.52558 40.6382 7.04079 40.1128 7.21253 39.7624C7.55601 39.9376 8.58646 40.1127 9.27342 39.4121C9.6169 39.0617 9.96037 38.5363 10.1321 37.8356C10.4756 37.1349 10.6473 36.6094 10.6473 36.2591C9.96035 36.2591 7.72776 36.6094 7.04081 37.3101C6.86907 37.4853 6.69734 37.6604 6.69734 37.8356C6.35386 38.5363 6.69732 39.0617 6.86906 39.4121C6.69732 39.5872 6.52559 39.7624 6.18212 39.9376C6.18212 39.9376 6.18212 39.7624 6.18212 39.5872C6.18212 39.4121 6.18212 39.0618 6.18212 38.8866C6.18212 38.3611 6.18212 37.8356 6.18212 37.8356V36.9598C6.18212 36.9598 6.18212 36.6094 6.18212 36.2591C6.18212 35.9088 6.18212 35.5584 6.18212 35.5584C6.35385 35.2081 6.86906 34.6826 7.21253 34.5075C7.55601 34.6826 8.41472 35.2081 9.27342 34.5075C9.6169 34.1571 10.1321 33.6316 10.4756 33.1061C10.8191 32.5806 11.1625 32.0551 11.1625 31.7048C10.4756 31.7048 8.24298 31.7048 7.38428 32.2303C6.86907 32.5806 6.69734 32.931 6.69734 33.2813C6.69734 33.6316 6.69732 33.982 6.86906 34.1571C6.69732 34.3323 6.35385 34.5075 6.18212 34.6826C6.18212 34.6826 6.18212 34.5075 6.18212 34.1571C6.18212 33.8068 6.35384 33.4565 6.35384 32.931C6.35384 32.4055 6.52559 32.0551 6.52559 31.7048C6.52559 31.3545 6.69734 31.1793 6.69734 31.1793C6.69734 31.1793 6.69734 31.1793 6.69734 31.0042C6.69734 30.829 6.69734 30.6538 6.69734 30.6538C6.69734 30.3035 6.86906 29.9531 6.86906 29.9531C7.21254 29.6028 7.72775 29.2525 8.07123 29.0773C8.4147 29.4277 9.10168 29.9532 10.1321 29.4277C10.3039 29.2525 10.6473 29.0773 10.8191 28.9022C10.9908 28.727 11.3343 28.3767 11.506 28.2015C12.0212 27.676 12.3647 27.1505 12.5364 26.9753C12.193 26.9753 11.506 26.8002 10.8191 26.625C10.1321 26.625 9.27341 26.625 8.7582 26.8002C8.58646 26.9753 8.41471 26.9753 8.24298 27.1505C8.07124 27.3257 7.8995 27.676 7.8995 28.0263C7.8995 28.3767 7.8995 28.5518 7.8995 28.727C7.72776 28.9022 7.38429 28.9022 7.04081 29.0773C7.04081 29.0773 7.21254 28.5518 7.38428 28.0263C7.38428 27.8512 7.55603 27.5008 7.55603 27.3257C7.55603 27.1505 7.72775 26.9753 7.72775 26.9753L8.07123 26.0995C8.07123 26.0995 8.07123 26.0995 8.07123 25.9244C8.07123 25.9244 8.07123 25.9244 8.07123 25.7492C8.07123 25.7492 8.07124 25.574 8.24298 25.3989C8.41471 25.0485 8.41472 24.8734 8.41472 24.8734C8.7582 24.523 9.44514 24.3479 9.78861 24.1727C10.1321 24.523 10.8191 25.2237 11.8495 24.8734C12.7082 24.523 14.0821 23.1217 14.5973 22.7714C14.0821 22.5962 11.8495 21.7204 10.8191 22.0707C10.3038 22.2459 9.96035 22.5962 9.78861 22.9465C9.61687 23.2969 9.61689 23.6472 9.61689 23.8224C9.44515 23.8224 9.10167 23.9975 8.7582 23.9975C8.7582 23.9975 8.92992 23.8224 8.92992 23.472C9.10166 23.1217 9.2734 22.7714 9.44514 22.421C9.61688 22.0707 9.78862 21.7204 9.96036 21.3701C10.1321 21.0197 10.1321 20.8446 10.1321 20.8446L10.8191 19.7936C11.1625 19.6184 11.8495 19.4432 12.3647 19.2681C12.5364 19.6184 13.2234 20.3191 14.2538 20.3191C14.769 20.3191 15.2843 19.9687 15.7995 19.6184C16.1429 19.4432 16.3147 19.2681 16.6582 19.0929C16.8299 18.9177 17.1734 18.7426 17.1734 18.7426C16.6582 18.3922 14.5973 17.3412 13.5669 17.3412C13.3951 17.3412 13.2234 17.3412 13.0517 17.5164C12.3647 17.8667 12.193 18.5674 12.193 18.7426C12.0212 18.7426 11.6778 18.7426 11.3343 18.7426C11.3343 18.7426 11.3343 18.5674 11.506 18.3922C11.6777 18.2171 11.6778 18.0419 11.8495 17.8668C12.193 17.5164 12.3647 16.9909 12.3647 16.9909C12.3647 16.9909 12.5364 16.8158 12.5364 16.6406C12.7082 16.4654 12.7082 16.2903 12.7082 16.2903L13.0517 15.7648L13.5669 15.2393C13.9104 15.0641 14.5973 15.0641 15.1125 15.0641C15.2843 15.4144 15.7995 16.2903 16.8299 16.2903C17.3451 16.2903 18.0321 16.1151 18.5473 15.7648C19.2343 15.5896 19.7495 15.2393 19.9212 15.0641C19.406 14.7138 17.6886 13.3124 16.6582 13.3124C16.1429 13.3124 15.7995 13.4876 15.456 13.8379C15.2843 14.1883 15.1125 14.3634 15.1125 14.7138C14.9408 14.7138 14.5973 14.7138 14.2538 14.7138C14.2538 14.7138 14.4256 14.5386 14.5973 14.3634C14.769 14.1883 15.1125 13.8379 15.456 13.4876C15.6277 13.3125 15.7995 13.1373 15.9712 12.9621C16.143 12.787 16.3147 12.6118 16.3147 12.6118C16.4864 12.4366 16.6582 12.2615 16.6582 12.2615C16.6582 12.2615 16.8299 12.0863 17.1734 11.736C17.3451 11.5608 17.6886 11.3856 17.6886 11.3856C18.2038 11.3856 18.719 11.3856 19.2342 11.3856C19.2342 11.9111 19.5777 12.787 20.6082 12.9621C20.7799 12.9621 21.1234 12.9621 21.4669 12.9621C21.8103 12.9621 22.1538 12.787 22.3255 12.787C22.669 12.787 23.0125 12.6118 23.356 12.6118C23.6995 12.6118 23.8712 12.4366 24.0429 12.4366C23.6995 11.9111 21.9821 10.3346 21.1234 10.1595C20.9516 10.1595 20.7799 10.1595 20.4364 10.1595C20.2647 10.1595 20.093 10.1595 19.9212 10.3346C19.7495 10.3346 19.7495 10.5098 19.5777 10.685C19.406 10.8601 19.2342 11.0353 19.2342 11.2105C19.0625 11.2105 18.719 11.0353 18.3755 11.0353C18.3755 11.0353 18.719 10.685 19.2342 10.3346C19.5777 9.98431 20.0929 9.63397 20.0929 9.63397L20.7799 9.10848C20.7799 9.10848 20.7799 9.10847 20.9516 8.93331C20.9516 8.93331 21.1234 8.93331 21.1234 8.75815C21.4669 8.58298 21.6386 8.40782 21.6386 8.40782C21.9821 8.40782 22.669 8.58298 23.1842 8.58298C23.1842 9.10848 23.356 9.98431 24.3864 10.3346C24.9016 10.5098 25.5886 10.5098 26.2755 10.5098C26.619 10.5098 26.9625 10.5098 27.1342 10.3346C27.4777 10.3346 27.6494 10.3346 27.8212 10.3346C27.4777 9.80914 26.1038 7.88232 25.2451 7.53199C24.7299 7.35683 24.3864 7.35683 24.0429 7.53199C23.6995 7.70716 23.5277 8.05749 23.356 8.23266C23.1842 8.05749 22.8408 8.05748 22.4973 7.88232C22.4973 7.88232 22.669 7.70716 23.0125 7.53199C23.356 7.35683 23.6995 7.18166 24.0429 7.00649C24.2147 6.83133 26.1038 5.9555 27.4777 5.07968C27.8212 5.43001 28.5082 5.95551 29.3668 5.60518C30.2255 5.25485 31.5994 3.32802 31.9429 2.80252C31.4277 2.62736 29.0234 2.27703 28.1647 2.62736C26.9625 3.15285 27.1342 4.20384 27.1342 4.55417C26.4473 4.9045 25.7603 5.07967 25.4168 5.25484C25.0734 5.43 23.356 5.9555 23.356 5.9555C23.356 5.60517 23.5277 5.25484 23.5277 5.07968C23.6994 5.07968 24.0429 5.07968 24.3864 4.90451C24.7299 4.72935 25.0734 4.37902 25.2451 3.85352C25.4168 3.32803 25.4168 2.45219 25.4168 1.75153C25.4168 1.05087 25.2451 0.175043 25.2451 -0.00012207C25.0734 0.175043 24.9016 0.350214 24.5582 0.525379C24.2147 0.700545 24.0429 1.05088 23.6995 1.22604C23.0125 1.75154 22.4973 2.4522 22.3255 2.9777C21.9821 4.02869 22.669 4.72935 23.0125 4.90451C23.0125 5.07968 22.8408 5.43001 22.669 5.60518C22.4973 5.95551 22.4973 6.13066 22.3255 6.30583C22.3255 6.30583 22.1538 6.30584 21.9821 6.481C21.8103 6.65617 21.4669 6.83133 21.2951 7.00649C20.7799 7.35682 20.2647 7.70716 20.2647 7.70716C20.2647 7.70716 20.2647 7.70715 20.0929 7.88232C19.9212 7.88232 19.9212 8.05749 19.7495 8.23266C19.406 8.40782 19.2342 8.58298 19.2342 8.58298L18.8908 8.75815C18.8908 8.58298 18.8908 8.40782 18.8908 8.23266C18.8908 8.05749 18.8908 8.05748 18.8908 7.88232C19.0625 7.88232 19.406 7.70716 19.7495 7.53199C20.0929 7.35683 20.4364 7.0065 20.4364 6.481C20.6082 5.43001 19.9212 3.15285 19.7495 2.62736C19.5777 2.80252 19.406 2.97769 19.2342 3.15286C19.0625 3.50319 18.719 3.67836 18.3755 4.02869C17.8603 4.72935 17.3451 5.43001 17.3451 5.9555V6.13066C17.3451 7.18166 18.0321 7.53199 18.3755 7.70716C18.2038 8.23265 18.2038 8.93332 18.0321 9.28365C18.0321 9.28365 17.8603 9.45881 17.6886 9.63397C17.5169 9.80914 17.1734 10.1595 16.8299 10.3346C16.4864 10.5098 16.3147 10.8601 15.9712 11.0353C15.7995 11.2105 15.6277 11.3856 15.6277 11.3856C15.6277 11.3856 15.2843 11.736 14.9408 11.9111C14.769 12.0863 14.5973 12.2615 14.5973 12.2615C14.4256 12.4366 14.4256 12.4366 14.4256 12.4366C14.4256 12.0863 14.2538 11.736 14.2538 11.5608C14.4256 11.5608 14.769 11.3856 15.1125 11.0353C15.456 10.8601 15.6277 10.3346 15.6277 9.80913C15.6277 8.75814 14.5973 6.65616 14.4256 6.13066C14.2538 6.481 13.7386 7.00649 13.3951 7.88232C13.0517 8.58298 12.7082 9.45881 12.7082 9.98431C12.7082 11.2105 13.5669 11.5608 14.0821 11.5608C14.0821 12.0863 14.0821 12.7869 13.9104 13.1373C13.9104 13.1373 13.7386 13.3125 13.5669 13.4876C13.3951 13.6628 13.2234 13.8379 13.0517 14.1883C12.8799 14.3634 12.7082 14.7138 12.5364 14.8889C12.3647 15.0641 12.3647 15.2393 12.3647 15.2393C12.3647 15.2393 12.193 15.5896 11.8495 15.7648C11.6778 15.9399 11.6777 16.1151 11.506 16.1151C11.506 16.2903 11.3343 16.2903 11.3343 16.2903L11.1625 16.6406C11.1625 16.4654 10.9908 16.2903 10.9908 16.1151C10.9908 15.9399 10.9908 15.9399 10.8191 15.7648C10.9908 15.5896 11.3343 15.4144 11.506 15.2393C11.6777 14.8889 11.8495 14.5386 11.8495 14.0131C11.6778 12.9621 10.4756 11.0353 10.1321 10.5098C9.96037 10.8601 9.6169 11.5608 9.27342 12.2615C8.92994 13.1373 8.75818 13.8379 8.92992 14.5386V14.7138C9.10166 15.7648 9.96037 15.9399 10.4756 15.9399C10.4756 16.4654 10.6473 17.1661 10.6473 17.5164C10.6473 17.5164 10.3038 18.2171 9.78861 18.9177C9.44514 19.6184 8.92992 20.3191 8.92992 20.3191C8.92992 20.3191 8.92994 20.4942 8.7582 20.4942C8.7582 20.6694 8.58646 20.8446 8.41472 21.0197C8.24299 21.3701 8.07123 21.7204 8.07123 21.7204C7.89949 21.3701 7.72775 21.1949 7.72775 20.8446C7.89949 20.6694 8.24299 20.4942 8.41472 20.1439C8.58646 19.7936 8.75819 19.4432 8.58645 18.7426C8.24297 17.6916 6.69733 16.1151 6.18212 15.5896C6.18212 15.7648 6.01038 16.1151 5.83864 16.2903C5.66691 16.6406 5.66688 16.9909 5.49515 17.5164C5.32341 18.3922 5.32341 19.2681 5.49515 19.7936C5.83862 20.8446 6.86906 21.0197 7.21253 21.0197C7.38427 21.5452 7.55603 22.2459 7.55603 22.5962C7.55603 22.5962 7.55602 22.7714 7.38428 22.9465C7.21254 23.1217 7.21255 23.472 7.04081 23.8224C6.86907 24.3479 6.52559 25.0485 6.52559 25.0485C6.52559 25.0485 6.52559 25.0485 6.52559 25.2237C6.52559 25.3989 6.35384 25.574 6.35384 25.7492C6.1821 26.0995 6.18212 26.4498 6.18212 26.4498L6.01037 26.8002C5.83863 26.625 5.83863 26.4498 5.66689 26.4498C5.66689 26.2747 5.49515 26.2747 5.49515 26.0995C5.66688 25.9244 5.83863 25.7492 6.01037 25.2237C6.18211 24.8734 6.18211 24.3479 6.01037 23.8224C5.49515 22.9465 3.77778 21.3701 3.26256 21.0197C3.09082 21.7204 2.74735 24.3479 3.26256 25.2237C3.26256 25.2237 3.26255 25.3989 3.43429 25.3989C3.9495 26.2747 4.80821 26.2747 5.32342 26.0995C5.49516 26.4498 5.83864 27.1505 5.83864 27.676C5.83864 27.676 5.83863 27.8512 5.66689 28.2015C5.66689 28.5518 5.49515 28.9022 5.49515 29.2525C5.32341 29.6028 5.32342 29.9532 5.32342 30.3035C5.32342 30.6538 5.15167 30.829 5.15167 30.829C5.15167 30.829 5.15169 31.1793 4.97995 31.7048C4.80821 32.0551 4.8082 32.5806 4.8082 32.5806C4.63646 32.4055 4.293 32.0551 4.12126 31.88C4.293 31.7048 4.46473 31.3545 4.46473 31.0042C4.46473 30.6538 4.46473 30.1283 4.12126 29.6028C3.60604 28.727 1.54517 27.676 1.02995 27.3257C1.02995 27.676 1.02995 28.5518 1.02995 29.4277C1.20169 30.3035 1.37342 31.1793 1.7169 31.5296C2.40385 32.4055 3.26254 32.2303 3.77776 32.0551C4.12124 32.4055 4.46471 33.1061 4.63645 33.4565C4.63645 33.4565 4.63645 33.6316 4.63645 33.8068C4.63645 33.982 4.63645 34.3323 4.63645 34.6826C4.63645 35.033 4.63645 35.3833 4.63645 35.5584C4.63645 35.7336 4.63645 35.9088 4.63645 35.9088V37.3101V37.6604C4.46471 37.4853 4.29298 37.4853 4.29298 37.3101C4.12124 37.3101 4.12125 37.1349 3.94951 37.1349C4.12125 36.9598 4.12126 36.6094 4.12126 36.2591C4.12126 35.9088 3.94951 35.3833 3.60604 35.0329C2.91908 34.3323 0.686477 33.4565 0.171261 33.2813C0.171261 33.6316 0.342994 34.5074 0.514733 35.2081C0.686472 36.0839 1.02995 36.7846 1.37343 37.3101C1.37343 37.3101 1.37344 37.3101 1.54518 37.4853C2.40387 38.1859 3.09081 37.8356 3.43429 37.6604C3.77776 38.0108 4.29299 38.5363 4.46473 38.8866C4.46473 38.8866 4.46473 39.0617 4.46473 39.4121C4.46473 39.7624 4.46473 40.1127 4.46473 40.4631C4.46473 40.8134 4.46471 41.1637 4.63645 41.5141C4.63645 41.8644 4.63645 42.0396 4.63645 42.0396C4.63645 42.0396 4.63646 42.5651 4.8082 42.9154C4.8082 43.2657 4.97995 43.7912 4.97995 43.7912C4.63647 43.616 4.46473 43.4409 4.12126 43.4409C4.293 43.0906 4.46473 42.0396 3.60604 41.3389C2.74734 40.6382 0.514728 40.2879 -0.000488281 40.2879C0.17125 40.6382 0.343005 41.3389 0.686482 42.2147C1.02996 42.9154 1.54517 43.7912 1.88865 44.1416C2.74734 44.8422 3.60603 44.3167 3.94951 43.9664C4.29298 44.3167 4.8082 44.667 5.15167 45.0174C5.15167 45.0174 5.32341 45.718 5.49515 46.2435C5.49515 46.5939 5.66689 46.9442 5.66689 47.1194C5.66689 47.2945 5.83864 47.4697 5.83864 47.4697C5.83864 47.4697 6.01037 47.82 6.01037 48.1703C6.01037 48.3455 6.18212 48.5207 6.18212 48.6959C6.18212 48.871 6.18212 48.871 6.18212 48.871L6.35384 49.2213C6.1821 49.2213 6.01038 49.0462 5.83864 49.0462C5.66691 49.0462 5.66688 48.871 5.49515 48.871C5.49515 48.6958 5.49515 48.3455 5.49515 47.9952C5.32341 47.6449 5.15167 47.2945 4.63645 46.9442C3.77776 46.4187 1.37342 46.4187 0.858205 46.4187C1.02994 46.769 1.37343 47.4697 1.88865 48.1703C2.40386 48.871 2.91907 49.5717 3.43429 49.7468H3.60604C4.46473 50.0972 5.15167 49.5717 5.49515 49.2213C5.83862 49.3965 6.52558 49.7468 6.86906 50.0972C6.86906 50.0972 7.21254 50.7978 7.38428 51.4985C7.55602 51.8488 7.72776 52.1992 7.8995 52.5495C8.07124 52.8998 8.07123 53.075 8.07123 53.075C8.07123 53.075 8.07124 53.2501 8.24298 53.2501C8.24298 53.4253 8.41471 53.6005 8.58645 53.7756C8.75819 54.126 8.92992 54.6515 8.92992 54.6515C8.58644 54.6515 8.24296 54.4763 8.07123 54.4763C8.07123 54.3011 8.07124 53.9508 7.8995 53.6005C7.72776 53.2501 7.38428 52.8998 6.86906 52.7246C6.35384 52.5495 5.49516 52.5495 4.8082 52.5495C4.12125 52.5495 3.26255 52.7246 3.09081 52.7246C3.26255 52.8998 3.26256 53.075 3.60604 53.4253C3.77777 53.7756 4.12124 53.9508 4.29298 54.3011C4.8082 55.0018 5.49515 55.5273 6.01037 55.7025C7.0408 56.0528 7.72776 55.3521 7.8995 55.0018C8.07124 55.0018 8.41471 55.177 8.58645 55.3521C8.92992 55.5273 9.10168 55.5273 9.27342 55.7025C9.27342 55.7025 9.2734 55.8776 9.44514 56.0528C9.61688 56.228 9.78862 56.5783 9.96036 56.7535C10.3038 57.2789 10.6473 57.8044 10.6473 57.8044C10.6473 57.8044 10.6473 57.8044 10.8191 57.9796C10.8191 58.1548 10.9908 58.1548 11.1625 58.3299C11.3343 58.6803 11.506 58.8554 11.506 58.8554L12.193 58.3299Z" fill="#F5EFDB"/>
<path d="M66.291 59.9072C65.9476 60.2575 65.6041 60.783 65.6041 60.783C65.6041 60.4327 65.4324 60.0824 65.4324 59.9072C65.6041 59.9072 65.7758 59.732 65.9476 59.5569C66.1193 59.3817 66.1193 59.3817 66.291 59.2065C66.291 59.0314 66.4628 58.8562 66.4628 58.681C66.4628 58.5059 66.4628 58.3307 66.4628 57.9804C66.291 56.9294 64.5737 55.3529 64.2302 55.0026C64.2302 55.1777 64.0584 55.3529 64.0584 55.7032C64.0584 56.0536 63.8867 56.4039 63.8867 56.7542C63.8867 57.1045 63.715 57.4549 63.715 57.63C63.715 57.9804 63.715 58.1555 63.715 58.5059C63.8867 59.5569 64.7454 59.9072 65.2606 59.9072C65.2606 60.4327 65.2606 61.1333 65.2606 61.4837C65.2606 61.4837 65.0889 61.6588 64.9171 62.0092C64.7454 62.1843 64.4019 62.5347 64.4019 62.5347C64.4019 62.5347 64.2302 62.7098 64.0584 62.885C63.8867 63.0602 63.8867 63.0602 63.715 63.2353C63.5432 63.4105 63.3715 63.5857 63.1997 63.7608C62.8563 64.1112 62.5128 64.4615 62.341 64.6367C62.1693 64.8118 61.9976 64.987 61.9976 64.987C61.9976 64.6366 61.9976 64.2863 61.9976 64.1111C62.1693 64.1111 62.5128 63.936 62.8563 63.7608C63.1997 63.5857 63.3715 63.0602 63.3715 62.5347C63.3715 61.4837 61.9976 59.5569 61.6541 59.2065C61.4824 59.3817 61.3106 60.0823 60.9671 60.6078C60.6236 61.3085 60.4519 62.0092 60.4519 62.3595C60.4519 63.4105 61.3106 63.936 61.6541 64.1111C61.6541 64.6366 61.4823 65.3373 61.4823 65.6876L60.4519 66.5635C60.4519 66.5635 60.2802 66.7386 60.1084 66.7386C59.9367 66.9138 59.765 66.9138 59.765 66.9138C59.765 66.9138 59.4215 67.2641 58.9063 67.4393C58.7345 67.6145 58.391 67.7896 58.391 67.7896C58.2193 67.9648 58.0476 67.9648 58.0476 67.9648C58.0476 67.6145 58.0476 67.2641 58.0476 67.089C58.391 67.089 59.078 66.9138 59.2497 66.2131C59.2497 66.038 59.4215 65.8628 59.4215 65.6876C59.5932 64.6366 58.3911 62.5347 58.2193 62.0092C58.2193 62.1843 58.0476 62.3595 57.8758 62.5347C57.7041 62.7098 57.5324 63.0602 57.3606 63.4105C57.0171 63.936 56.6737 64.6366 56.6737 64.987C56.5019 66.038 57.1889 66.5635 57.7041 66.9138C57.5324 67.2641 57.3606 67.9648 57.1889 68.4903L56.1584 69.1909C56.1584 69.1909 55.9867 69.3661 55.6432 69.3661C55.2998 69.5413 54.9563 69.7164 54.6128 69.8916C54.2693 70.0668 53.7541 70.2419 53.5823 70.4171C53.2389 70.5923 53.0672 70.5923 53.0672 70.5923C53.0672 70.2419 53.2389 69.8916 53.2389 69.7164C53.4106 69.7164 53.7541 69.7165 54.0976 69.5413C54.441 69.3661 54.7845 69.0158 54.9563 68.4903C55.2997 67.4393 54.4411 65.3373 54.2693 64.6367C54.0976 64.8118 54.0976 64.987 53.9258 65.1622C53.7541 65.3373 53.5824 65.5125 53.2389 65.8628C52.8954 66.3883 52.3802 66.9138 52.2085 67.4393C51.865 68.4903 52.5519 69.191 52.8954 69.5413C52.7237 69.8916 52.3802 70.5923 52.2085 70.9426C52.2085 70.9426 51.865 71.1178 51.6932 71.1178C51.5215 71.1178 51.3498 71.2929 51.3498 71.2929C51.178 71.2929 51.178 71.2929 51.178 71.2929L50.3193 71.6433C50.3193 71.6433 50.1476 71.6433 49.9758 71.8184C49.8041 71.8184 49.4606 71.9936 49.2889 71.9936C48.7737 72.1688 48.2585 72.3439 48.2585 72.3439C48.4302 71.9936 48.4302 71.8184 48.6019 71.4681C48.7737 71.4681 48.9454 71.4681 49.2889 71.4681C49.6324 71.4681 49.8041 71.2929 50.1476 71.1178C50.3193 70.9426 50.3193 70.7674 50.4911 70.5923C50.6628 70.0668 50.6628 69.3661 50.6628 68.4903C50.6628 67.7896 50.4911 66.9138 50.3193 66.7386C50.1476 66.9138 49.6324 67.2641 49.1171 67.7896C48.9454 67.9648 48.6019 68.3151 48.4302 68.4903C48.2584 68.6654 48.0867 69.0158 47.915 69.1909C47.3998 70.2419 47.915 70.9426 48.2585 71.2929C48.0867 71.6433 47.5715 72.1688 47.3998 72.5191C47.3998 72.5191 47.0563 72.5191 46.7128 72.6943H46.5411C44.3085 72.8694 40.7019 73.2197 40.7019 73.2197C40.7019 73.2197 36.5802 73.0446 34.5193 72.8694C34.5193 72.8694 34.5193 72.8694 34.3476 72.8694C34.1758 72.8694 34.0041 72.8694 34.0041 72.8694C33.6606 72.8694 33.3172 72.6943 33.3172 72.6943C32.9737 72.3439 32.6302 71.8184 32.4585 71.4681C32.802 71.1178 33.3172 70.4171 32.8019 69.3661C32.6302 69.1909 32.6302 68.8406 32.2867 68.6655C32.115 68.4903 31.7715 68.14 31.5998 67.9648C31.0846 67.4393 30.5693 67.089 30.3976 66.9138C30.3976 67.2641 30.2259 67.9648 30.0541 68.6655C30.0541 69.3661 30.0541 70.2419 30.2259 70.7674C30.3976 70.9426 30.3976 71.1178 30.5693 71.2929C30.7411 71.4681 31.0846 71.6433 31.428 71.6433C31.7715 71.6433 31.9432 71.6433 32.115 71.6433C32.2867 71.8184 32.2867 72.1688 32.4585 72.5191C32.4585 72.5191 31.9432 72.3439 31.428 72.1688C31.2563 72.1688 30.9128 71.9936 30.7411 71.9936C30.5693 71.9936 30.3976 71.8184 30.3976 71.8184L29.5389 71.4681C29.5389 71.4681 29.5389 71.4681 29.3672 71.4681C29.3672 71.4681 29.3672 71.4681 29.1954 71.4681C29.0237 71.4681 29.0237 71.2929 28.8519 71.2929C28.5085 71.1178 28.3367 71.1178 28.3367 71.1178C28.165 70.7674 27.8215 70.0668 27.6498 69.7164C27.9933 69.3661 28.6802 68.6654 28.3367 67.6145C28.165 67.089 27.8215 66.5635 27.3063 66.038C27.1346 65.8628 26.9628 65.5125 26.6193 65.3373C26.4476 65.1621 26.2759 64.987 26.2759 64.8118C26.1041 65.3373 25.2454 67.6145 25.5889 68.6655C25.7607 69.191 26.1041 69.5413 26.4476 69.7164C26.7911 69.8916 27.1346 69.8916 27.3063 69.8916C27.3063 70.0668 27.478 70.4171 27.478 70.7674C27.478 70.7674 27.3063 70.5923 26.9628 70.5923C26.6193 70.4171 26.2759 70.2419 25.9324 70.0668C25.5889 69.8916 25.2454 69.7165 24.9019 69.5413C24.5585 69.3661 24.3867 69.3661 24.3867 69.3661L23.3563 68.6655C23.1846 68.3151 23.0128 67.6145 22.8411 67.089C23.1846 66.9138 23.8715 66.2131 23.8715 65.1622C23.8715 64.6367 23.528 64.1112 23.1846 63.5857C23.0128 63.2353 22.8411 63.0602 22.6693 62.7098C22.4976 62.5347 22.3259 62.1843 22.3259 62.1843C21.9824 62.7098 20.9519 64.8118 20.9519 65.8628C20.9519 66.038 20.952 66.2131 21.1237 66.3883C21.4672 67.089 21.9824 67.2641 22.3259 67.2641C22.3259 67.4393 22.3259 67.7896 22.3259 68.14C22.3259 68.14 22.1541 68.14 21.9824 67.9648C21.8106 67.7896 21.6389 67.7896 21.4672 67.6145C21.1237 67.2641 20.6085 66.9138 20.6085 66.9138C20.6085 66.9138 20.4367 66.7386 20.265 66.7386C20.0933 66.5635 19.9215 66.5635 19.9215 66.5635L18.5476 65.5125C18.3759 65.1621 18.3759 64.4615 18.3759 63.936C18.7193 63.7608 19.5781 63.2353 19.5781 62.1843C19.5781 61.6588 19.4063 60.9582 19.0628 60.4327C18.8911 59.732 18.5476 59.2065 18.3759 59.0314C18.0324 59.5569 16.6585 61.3085 16.6585 62.3595C16.6585 62.885 16.8302 63.2353 17.1737 63.5857C17.5172 63.7608 17.6889 63.936 18.0324 63.936C18.0324 64.1112 18.0324 64.4615 18.0324 64.8118C18.0324 64.8118 17.8607 64.6367 17.6889 64.4615C17.5172 64.2863 17.1737 63.936 16.8302 63.5857C16.6585 63.4105 16.4867 63.2353 16.315 63.0602C16.1433 62.885 15.9715 62.7098 15.9715 62.7098C15.7998 62.5347 15.628 62.3595 15.628 62.3595C15.628 62.3595 15.4563 62.1843 15.1128 61.834C14.9411 61.6588 14.7694 61.3085 14.7694 61.3085C14.7694 60.783 14.7694 60.2575 14.7694 59.732C15.2846 59.732 16.1433 59.3817 16.315 58.3307C16.315 58.1555 16.315 57.8052 16.315 57.4549C16.315 57.1045 16.1433 56.7542 16.1433 56.579C16.1433 56.2287 15.9715 55.8784 15.9715 55.5281C15.9715 55.1777 15.7998 55.0026 15.7998 54.8274C15.2846 55.1777 13.7389 56.9294 13.5672 57.8052C13.5672 57.9804 13.5672 58.1555 13.5672 58.5059C13.5672 58.681 13.5672 58.8562 13.7389 59.0314C13.7389 59.2065 13.9106 59.2065 14.0824 59.3817C14.2541 59.5569 14.4259 59.732 14.5976 59.732C14.5976 59.9072 14.4259 60.2575 14.4259 60.6078C14.4259 60.6078 14.0824 60.2575 13.7389 59.732C13.3954 59.3817 13.052 58.8562 13.052 58.8562L12.365 59.3817L12.5367 59.732C12.365 59.732 12.1933 59.732 12.0215 59.732C11.8498 59.732 11.8498 59.732 11.678 59.732C11.678 59.5568 11.5063 59.2065 11.3346 58.8562C11.1628 58.5059 10.8193 58.1555 10.3041 58.1555C9.2737 57.9804 7.0411 58.681 6.52588 58.8562C6.69762 59.0314 6.86936 59.2065 7.0411 59.3817C7.21284 59.5569 7.55632 59.9072 7.8998 60.2575C8.58675 60.783 9.27369 61.3085 9.78891 61.3085H9.96066C10.9911 61.3085 11.3346 60.6078 11.5063 60.2575C12.0215 60.4327 12.7085 60.4327 13.052 60.6078C13.052 60.6078 13.2237 60.783 13.3954 60.9582C13.5672 61.1333 13.7389 61.4837 14.0824 61.834C14.2541 62.1843 14.5976 62.3595 14.7694 62.7098C14.9411 62.885 15.1128 63.0602 15.1128 63.0602C15.1128 63.0602 15.4563 63.4105 15.628 63.7608C15.7998 63.936 15.9715 64.1111 15.9715 64.1111C16.1433 64.2863 16.1433 64.2863 16.1433 64.2863C15.7998 64.2863 15.4563 64.4615 15.2846 64.4615C15.2846 64.2863 15.1128 63.936 14.7694 63.5857C14.5976 63.2353 14.0824 63.0602 13.5672 63.0602C12.5368 63.0602 10.4759 64.1112 9.96066 64.2863C10.3041 64.4615 10.8194 64.987 11.678 65.3373C12.365 65.6876 13.2237 66.038 13.7389 66.038C14.9411 66.038 15.2846 65.1621 15.2846 64.6367C15.7998 64.6367 16.4867 64.6366 16.8302 64.8118C16.8302 64.8118 17.002 64.987 17.1737 65.1622C17.3454 65.3373 17.5172 65.5125 17.8607 65.6876C18.0324 65.8628 18.3759 66.038 18.5476 66.2131C18.7193 66.3883 18.8911 66.3883 18.8911 66.3883C18.8911 66.3883 19.2346 66.5635 19.4063 66.9138C19.578 67.089 19.7498 67.089 19.7498 67.2641C19.9215 67.2641 19.9215 67.4393 19.9215 67.4393L20.0932 67.6145C19.9215 67.6145 19.7498 67.7896 19.5781 67.7896C19.4063 67.7896 19.4063 67.7896 19.2346 67.9648C19.0628 67.7896 18.8911 67.4393 18.7194 67.2641C18.3759 67.089 18.0324 66.9138 17.5172 66.9138C16.4867 67.089 14.5976 68.3151 14.0824 68.6655C14.4259 68.8406 15.1128 69.191 15.7998 69.5413C16.6585 69.8916 17.3454 70.0668 18.0324 70.0668H18.2041C19.2346 69.8916 19.4063 69.0158 19.4063 68.4903C19.9215 68.4903 20.6085 68.3151 20.9519 68.3151C20.9519 68.3151 21.6389 68.6655 22.3259 69.1909C23.0128 69.5413 23.6998 70.0668 23.6998 70.0668C23.6998 70.0668 23.8715 70.0668 23.8715 70.2419C24.0433 70.2419 24.215 70.4171 24.3867 70.5923C24.7302 70.7674 25.2454 70.9426 25.2454 70.9426C24.9019 71.1178 24.7302 71.2929 24.3867 71.2929C24.215 71.1178 24.0433 70.7674 23.6998 70.5923C23.3563 70.4171 23.0128 70.2419 22.3259 70.4171C21.2954 70.7674 19.7498 72.3439 19.2346 72.8694C19.4063 72.8694 19.7498 73.0446 19.9215 73.2197C20.265 73.3949 20.6085 73.3949 21.1237 73.5701C21.9824 73.7453 22.8411 73.7453 23.3563 73.5701C24.3867 73.2198 24.5585 72.1688 24.5585 71.8184C25.0737 71.6433 25.7606 71.4681 26.1041 71.4681C26.1041 71.4681 26.2759 71.4681 26.4476 71.6433C26.6193 71.8184 26.9628 71.8184 27.3063 71.9936C27.8215 72.1688 28.5085 72.5191 28.5085 72.5191C28.5085 72.5191 28.5085 72.5191 28.6802 72.5191C28.8519 72.5191 29.0237 72.6943 29.1954 72.6943C29.5389 72.8694 29.8824 72.8694 29.8824 72.8694L30.2259 73.0446C30.0541 73.2198 29.8824 73.2198 29.8824 73.3949C29.7106 73.3949 29.7106 73.5701 29.5389 73.5701C29.3672 73.3949 29.1954 73.2198 28.6802 73.0446C28.3367 72.8694 27.8215 72.8694 27.3063 73.0446C26.4476 73.5701 24.9019 75.3217 24.5585 75.8472C25.2454 76.0224 27.8215 76.3727 28.6802 75.8472C28.6802 75.8472 28.8519 75.8472 28.8519 75.6721C29.7106 75.1466 29.5389 74.2707 29.5389 73.7452C29.8824 73.5701 30.5693 73.2197 31.0846 73.2197C31.0846 73.2197 31.2563 73.2198 31.5998 73.3949C31.9433 73.5701 32.2867 73.5701 32.6302 73.7452C32.9737 73.9204 33.3172 73.9204 33.6606 73.9204C34.0041 73.9204 34.1759 73.9204 34.1759 73.9204C35.2063 74.0956 36.7519 74.2708 38.1258 74.4459C38.1258 74.4459 38.2976 74.4459 38.4693 74.4459C33.8324 76.0224 32.6302 79.0002 32.6302 79.0002H34.6911C35.2063 77.2486 38.1258 75.8472 40.3585 75.1466C42.4193 76.0224 45.3389 77.4237 46.0258 79.0002H48.0867C48.0867 79.0002 46.8845 76.0224 42.2476 74.4459C42.2476 74.4459 42.2476 74.4459 42.4193 74.4459C43.7932 74.2708 46.1976 74.0956 47.7432 73.7452C47.915 73.7452 48.0867 73.7453 48.2585 73.5701C48.6019 73.3949 48.9454 73.3949 49.2889 73.2197C49.6324 73.2197 49.8041 73.0446 49.8041 73.0446C50.1476 73.2198 50.8345 73.3949 51.3498 73.7452C51.3498 74.0956 51.178 75.1466 52.0367 75.6721H52.2085C53.2389 76.1976 55.6432 75.8472 56.3302 75.6721C55.9867 75.1466 54.6128 73.2197 53.5823 72.8694C53.0671 72.6943 52.5519 72.6943 52.2085 72.8694C51.865 73.0446 51.5215 73.2198 51.3498 73.3949C51.178 73.3949 51.178 73.2197 51.0063 73.2197C50.8345 73.0446 50.6628 73.0446 50.6628 72.8694L51.0063 72.6943C51.0063 72.6943 51.3498 72.5191 51.6932 72.5191C51.865 72.5191 52.0367 72.3439 52.2085 72.3439C52.3802 72.3439 52.3802 72.3439 52.3802 72.3439C52.3802 72.3439 52.8954 72.1688 53.5823 71.8184C53.9258 71.6433 54.0976 71.6433 54.441 71.4681C54.6128 71.2929 54.7845 71.2929 54.7845 71.2929C55.2998 71.2929 55.9867 71.6433 56.3302 71.6433C56.3302 72.1688 56.3302 73.0446 57.5323 73.3949C58.0476 73.5701 58.9063 73.5701 59.765 73.3949C60.1084 73.3949 60.6236 73.2198 60.9671 73.0446C61.3106 72.8694 61.6541 72.8694 61.6541 72.6943C61.1389 72.1688 59.5932 70.5923 58.5628 70.2419C58.0476 70.0668 57.5324 70.2419 57.1889 70.4171C56.8454 70.5923 56.6737 70.9426 56.5019 71.1178C56.3302 70.9426 55.9867 70.9426 55.6432 70.7674C55.6432 70.7674 55.9867 70.5923 56.3302 70.4171C56.5019 70.2419 56.6737 70.2419 56.8454 70.0668C57.0171 70.0668 57.0171 69.8916 57.0171 69.8916C57.0171 69.8916 57.7041 69.5413 58.391 69.0158C59.078 68.6655 59.765 68.14 59.765 68.14C60.2802 68.14 60.9671 68.14 61.3106 68.3151C61.3106 68.6655 61.4824 69.5413 62.5128 69.8916H62.6845C63.1997 70.0668 64.0584 69.7165 64.9171 69.5413C65.7758 69.191 66.4628 68.8406 66.6345 68.6655C66.1193 68.3151 64.2302 66.9138 63.1997 66.9138C62.6845 66.9138 62.1693 67.089 61.9976 67.2641C61.6541 67.4393 61.4823 67.7896 61.4823 67.9648C61.3106 67.9648 61.3106 67.9648 61.1389 67.7896C60.9671 67.7896 60.7954 67.6145 60.6237 67.6145L60.9671 67.4393C60.9671 67.4393 60.9671 67.4393 61.1389 67.2641C61.3106 67.2641 61.3106 67.089 61.4823 66.9138C61.8258 66.7386 61.9976 66.3883 61.9976 66.3883C61.9976 66.3883 62.1693 66.2131 62.341 66.2131C62.5128 66.038 62.8563 65.8628 63.028 65.6876C63.1997 65.5125 63.5432 65.3373 63.715 65.1622C63.8867 64.987 64.0584 64.8118 64.0584 64.8118C64.4019 64.6366 65.2606 64.6367 65.6041 64.6367C65.7758 64.987 66.1193 66.038 67.1497 66.038C67.665 66.038 68.5236 65.6876 69.2106 65.3373C69.8976 64.987 70.5845 64.4615 70.928 64.2863C70.4128 63.936 68.3519 62.885 67.3215 63.0602C66.8062 63.0602 66.291 63.2353 66.1193 63.5857C65.7758 63.936 65.7758 64.2863 65.6041 64.4615C65.4323 64.4615 65.0889 64.4615 64.7454 64.2863C64.7454 64.2863 64.7454 64.2863 64.9171 64.1111C65.0889 63.936 65.2606 63.7608 65.2606 63.7608C65.6041 63.4105 65.9476 63.0602 65.9476 63.0602C65.9476 63.0602 66.1193 62.885 66.291 62.7098C66.4628 62.5347 66.8063 62.1843 66.978 61.834C67.1497 61.4837 67.4932 61.3085 67.665 60.9582C67.8367 60.783 68.0084 60.6078 68.0084 60.6078C68.3519 60.4327 69.0389 60.2575 69.5541 60.2575C69.7258 60.6078 70.241 61.4837 71.0997 61.3085H71.2715C71.7867 61.1333 72.4736 60.783 73.1606 60.2575C73.5041 59.9072 73.8476 59.732 74.0193 59.5569C74.191 59.3817 74.5345 59.0314 74.5345 59.0314C74.0193 58.8562 71.7867 58.1555 70.7562 58.3307C70.241 58.5059 69.8976 58.681 69.7258 59.0314C69.5541 59.3817 69.3824 59.732 69.3824 59.9072C69.2106 59.9072 69.2106 59.9072 69.0389 59.9072C68.8671 59.9072 68.6954 59.9072 68.5237 59.9072L68.6954 59.5569L68.0084 59.0314C66.978 59.0314 66.6345 59.5569 66.291 59.9072Z" fill="#F5EFDB"/>
<path d="M73.5039 46.9442C73.6756 46.2436 73.8473 45.7181 73.8473 45.7181C74.1908 45.3677 74.706 45.0174 75.0495 44.6671C75.393 45.0174 76.2517 45.5429 77.1104 44.8422C77.6256 44.4919 77.9691 43.7912 78.3125 42.9154C78.656 42.2148 78.8277 41.3389 78.9995 40.9886C78.3125 41.1638 76.0799 41.5141 75.393 42.0396C74.5343 42.7403 74.706 43.7913 74.8778 44.1416C74.706 44.3167 74.3626 44.4919 74.0191 44.4919C74.0191 44.4919 74.0191 44.1416 74.1908 43.6161C74.1908 43.0906 74.3625 42.7403 74.3625 42.7403C74.3625 42.7403 74.3625 42.5651 74.3625 42.2148C74.3625 41.8644 74.3626 41.5141 74.5343 41.1638C74.5343 40.8134 74.5343 40.4631 74.5343 40.1128C74.5343 39.7624 74.5343 39.5873 74.5343 39.5873C74.706 39.2369 75.2212 38.7115 75.5647 38.3611C75.9082 38.5363 76.7669 38.8866 77.4538 38.186C77.4538 38.186 77.6256 38.186 77.6256 38.0108C77.9691 37.6605 78.3125 36.7846 78.4843 35.9088C78.656 35.033 78.8278 34.3323 78.8278 33.982C78.3125 34.1572 76.0799 34.8578 75.393 35.7336C75.0495 36.084 74.8778 36.6095 74.8778 36.9598C74.8778 37.3101 75.0495 37.6605 75.0495 37.8356C75.0495 37.8356 74.8778 38.0108 74.706 38.0108C74.5343 38.186 74.3625 38.186 74.3625 38.3611V38.0108V36.6095C74.3625 36.6095 74.3625 36.4343 74.3625 36.2591C74.3625 36.084 74.3625 35.7336 74.3625 35.3833C74.3625 35.033 74.3625 34.6827 74.3625 34.5075C74.3625 34.3323 74.3625 34.1571 74.3625 34.1571C74.5343 33.8068 74.8778 33.1062 75.2212 32.7558C75.5647 32.931 76.5951 33.1062 77.2821 32.2303C77.6256 31.88 77.7973 31.0042 77.9691 30.1284C78.1408 29.2525 78.1408 28.3767 77.9691 28.0264C77.4539 28.3767 75.393 29.4277 74.706 30.3035C74.3625 30.829 74.3625 31.1793 74.3625 31.7048C74.3625 32.0552 74.5343 32.4055 74.706 32.5807C74.5343 32.7558 74.3626 32.931 74.0191 33.2813C74.0191 33.2813 74.0191 32.7558 73.8473 32.4055C73.8473 32.0552 73.6756 31.5297 73.6756 31.5297C73.6756 31.5297 73.6756 31.3545 73.6756 31.0042C73.6756 30.6538 73.5039 30.3035 73.5039 29.9532C73.5039 29.6028 73.3321 29.2525 73.3321 28.9022C73.3321 28.5519 73.1604 28.3767 73.1604 28.3767C73.3321 28.0264 73.5038 27.3257 73.8473 26.8002C74.1908 26.8002 75.2212 26.9754 75.7365 26.0995V25.9244C76.2517 25.0485 75.9082 22.4211 75.7365 21.7204C75.2212 22.0707 73.3321 23.4721 72.9886 24.523C72.8169 25.0485 72.8169 25.574 72.9886 25.9244C73.1604 26.2747 73.3321 26.625 73.5039 26.8002C73.5039 26.9754 73.3321 26.9754 73.3321 27.1505C73.1604 27.3257 73.1604 27.5009 72.9886 27.5009L72.8169 27.1505C72.8169 27.1505 72.6452 26.8002 72.6452 26.4499C72.6452 26.2747 72.4734 26.0995 72.4734 25.9244C72.4734 25.7492 72.4734 25.7492 72.4734 25.7492C72.4734 25.7492 72.3017 25.2237 71.9582 24.523C71.7865 24.1727 71.7865 23.9976 71.6147 23.6472C71.443 23.4721 71.443 23.2969 71.443 23.2969C71.443 22.7714 71.7865 22.2459 71.7865 21.7204C72.3017 21.7204 73.1604 21.7204 73.5039 20.4943C73.6756 19.9688 73.6756 19.0929 73.5039 18.2171C73.5039 17.8668 73.3321 17.3413 73.1604 16.9909C72.9886 16.6406 72.9886 16.2903 72.8169 16.2903C72.3017 16.8158 70.756 18.3923 70.4125 19.4432C70.2408 19.9687 70.4126 20.4942 70.5843 20.8446C70.756 21.1949 71.0995 21.3701 71.2712 21.5452C71.0995 21.7204 71.0995 22.0707 70.9278 22.4211C70.9278 22.4211 70.756 22.0707 70.5843 21.5452C70.4126 21.3701 70.4126 21.1949 70.2408 21.0197C70.2408 20.8446 70.0691 20.8446 70.0691 20.8446C70.0691 20.8446 69.7256 20.1439 69.3821 19.4432C69.0387 18.7426 68.5234 18.0419 68.5234 18.0419C68.5234 17.5164 68.5234 16.8158 68.6952 16.4654C69.0386 16.4654 69.8974 16.2903 70.2408 15.2393V15.0641C70.4126 14.5386 70.0691 13.6628 69.8973 12.787C69.5539 11.9111 69.2104 11.2105 69.0386 11.0353C68.6952 11.5608 67.3213 13.4876 67.1495 14.5386C67.1495 15.0641 67.3213 15.5896 67.493 15.7648C67.6647 16.1151 68.0082 16.2903 68.1799 16.2903C68.1799 16.4654 68.18 16.4654 68.0082 16.6406C68.0082 16.8158 67.8365 16.9909 67.8365 17.1661L67.6647 16.8158C67.6647 16.8158 67.6647 16.8158 67.493 16.6406C67.493 16.4654 67.3213 16.4654 67.1495 16.2903C66.9778 15.9399 66.6343 15.7648 66.6343 15.7648C66.6343 15.7648 66.4626 15.5896 66.4626 15.4145C66.2908 15.2393 66.1191 14.889 65.9474 14.7138C65.7756 14.5386 65.6039 14.1883 65.4321 14.0131C65.2604 13.838 65.2604 13.6628 65.2604 13.6628C65.0886 13.3125 65.0887 12.4366 65.0887 12.0863C65.4321 11.9111 66.4626 11.5608 66.4626 10.5098C66.4626 9.98432 66.1191 9.1085 65.7756 8.40784C65.4321 7.70717 64.9169 7.00651 64.7452 6.65618C64.4017 7.18168 63.3713 9.28366 63.543 10.3347C63.543 10.8601 63.7147 11.3856 64.0582 11.5608C64.4017 11.9111 64.7452 11.9111 64.9169 12.0863C64.9169 12.2615 64.9169 12.6118 64.7452 12.9621C64.7452 12.9621 64.7452 12.9621 64.5734 12.787C64.4017 12.6118 64.4017 12.4366 64.23 12.4366C63.8865 12.0863 63.543 11.9111 63.543 11.9111C63.543 11.9111 63.3713 11.736 63.1995 11.5608C63.0278 11.3856 62.6843 11.0353 62.3408 10.8602C61.9974 10.685 61.8256 10.3347 61.4821 10.1595C61.3104 9.98432 61.1387 9.80915 61.1387 9.80915C60.9669 9.45882 60.7952 8.75817 60.7952 8.23267C61.1387 8.05751 61.9974 7.53201 61.8256 6.65618V6.48102C61.6539 5.95552 61.3104 5.25485 60.7952 4.55419C60.4517 4.20386 60.28 3.85353 59.9365 3.67836C59.7648 3.50319 59.4213 3.15287 59.4213 3.15287C59.2495 3.67837 58.5626 5.95551 58.7343 7.00651C58.906 7.532 59.0778 7.88233 59.4213 8.0575C59.7648 8.23266 60.1082 8.40784 60.28 8.40784C60.28 8.583 60.28 8.58299 60.28 8.75816C60.28 8.93333 60.28 9.1085 60.28 9.28366L60.1082 9.1085C60.1082 9.1085 59.7647 8.93333 59.593 8.75816C59.4213 8.58299 59.2495 8.583 59.2495 8.40784C59.0778 8.40784 59.0778 8.23267 59.0778 8.23267C59.0778 8.23267 58.5626 7.88234 58.0474 7.53201C57.7039 7.35684 57.5322 7.18167 57.3604 7.00651C57.1887 6.83134 57.0169 6.83134 57.0169 6.83134C56.8452 6.65618 56.8452 6.30584 56.6734 6.13068C56.5017 5.78035 56.5017 5.60518 56.33 5.43001C56.6735 5.25485 57.5321 4.55419 57.1887 3.5032C57.0169 2.9777 56.5017 2.27704 55.8148 1.75154C55.4713 1.40121 55.1278 1.22604 54.9561 1.05088C54.6126 0.875713 54.4409 0.700556 54.2691 0.525391C54.2691 0.875721 54.0974 1.57638 54.0974 2.27704C54.0974 2.97771 54.0974 3.85353 54.2691 4.37902C54.4409 4.90452 54.7843 5.25485 55.1278 5.43001C55.4713 5.60518 55.8148 5.60519 55.9865 5.60519C55.9865 5.78036 56.1582 6.13069 56.1582 6.48102C56.1582 6.48102 54.6126 5.95552 54.0974 5.78035C53.9256 5.60519 53.2387 5.43002 52.38 5.07969C52.38 4.72936 52.5517 3.67837 51.3496 3.15287C50.4909 2.80254 48.0865 3.15287 47.5713 3.15287C47.9148 3.67837 49.2887 5.60519 50.1474 5.95552C51.1778 6.30585 51.8648 5.78035 52.0365 5.43001C53.5822 6.30584 55.2995 7.18168 55.4713 7.35684C55.8148 7.53201 56.1582 7.70717 56.5017 7.88233C56.8452 8.0575 57.0169 8.23267 57.0169 8.23267C56.6734 8.40784 56.5017 8.40783 56.1582 8.583C55.9865 8.40783 55.8148 8.0575 55.4713 7.88233C55.1278 7.70717 54.7843 7.70717 54.2691 7.88233C53.4104 8.23266 52.0365 10.1595 51.693 10.685C51.8648 10.685 52.0365 10.685 52.38 10.685C52.7235 10.685 52.8952 10.685 53.2387 10.8602C53.9256 10.8602 54.6126 10.8601 55.1278 10.685C56.1582 10.3346 56.33 9.45882 56.33 8.93332C56.8452 8.75816 57.3604 8.75816 57.8756 8.75816C57.8756 8.75816 58.2191 8.93333 58.3908 9.1085C58.5626 9.1085 58.5626 9.28366 58.7343 9.28366C58.906 9.28366 58.9061 9.45883 58.9061 9.45883L59.593 9.98433C59.593 9.98433 59.9365 10.3346 60.4517 10.685C60.7952 11.0353 61.3104 11.3856 61.3104 11.3856C60.9669 11.3856 60.6234 11.5608 60.4517 11.5608C60.4517 11.3856 60.28 11.2105 60.1082 11.0353C59.9365 10.8602 59.9365 10.8601 59.7648 10.685C59.593 10.685 59.4213 10.5098 59.2495 10.5098C59.0778 10.5098 58.9061 10.5098 58.5626 10.5098C57.5322 10.685 55.9865 12.4366 55.643 12.787C55.8148 12.787 55.9865 12.9621 56.33 12.9621C56.6735 12.9621 57.0169 13.1373 57.3604 13.1373C57.7039 13.1373 58.0474 13.3125 58.2191 13.3125C58.5626 13.3125 58.7343 13.3125 59.0778 13.3125C60.1082 13.1373 60.4517 12.2615 60.4517 11.736C60.9669 11.736 61.6539 11.736 61.9974 11.736C61.9974 11.736 62.1691 11.9111 62.5126 12.0863C62.6843 12.2615 63.0278 12.6118 63.0278 12.6118C63.0278 12.6118 63.1995 12.787 63.3713 12.9621C63.543 13.1373 63.543 13.1373 63.7147 13.3125C63.8865 13.4876 64.0582 13.6628 64.23 13.838C64.5734 14.1883 64.7452 14.5386 65.0887 14.7138C65.2604 14.889 65.4321 15.0641 65.4321 15.0641C65.0887 15.0641 64.7452 15.0641 64.5734 15.0641C64.5734 14.8889 64.4017 14.5386 64.23 14.1883C64.0582 13.838 63.543 13.6628 63.0278 13.6628C61.9973 13.6628 60.1082 15.0641 59.7648 15.4145C59.9365 15.5896 60.6235 15.7648 61.1387 16.1151C61.8256 16.4654 62.5126 16.6406 62.8561 16.6406C63.8865 16.6406 64.4017 15.7648 64.5734 15.4145C65.0887 15.4145 65.7756 15.5896 66.1191 15.5896L66.9778 16.6406C66.9778 16.6406 67.1495 16.8158 67.1495 16.9909C67.3213 17.1661 67.3212 17.3413 67.3212 17.3413C67.3212 17.3413 67.6647 17.6916 67.8365 18.2171C68.0082 18.3923 68.1799 18.7426 68.1799 18.7426C68.3517 18.9178 68.3517 19.0929 68.3517 19.0929C68.0082 19.0929 67.6647 19.0929 67.493 19.0929C67.493 18.7426 67.3213 18.0419 66.6343 17.8668C66.4626 17.8668 66.2908 17.6916 66.1191 17.6916C65.0886 17.5164 63.0278 18.7426 62.5126 18.9178C62.6843 18.9178 62.856 19.0929 63.0278 19.2681C63.1995 19.4433 63.543 19.6184 63.8865 19.7936C64.4017 20.1439 65.0887 20.4943 65.4321 20.4943C66.4626 20.6694 66.9778 19.9687 67.3212 19.4432C67.6647 19.6184 68.3517 19.7936 68.8669 19.9688L69.5539 21.0197C69.5539 21.0197 69.7256 21.1949 69.7256 21.5452C69.8973 21.8956 70.0691 22.2459 70.2408 22.5962C70.4126 22.9466 70.5843 23.4721 70.756 23.6472C70.9278 23.9976 70.9278 24.1727 70.9278 24.1727C70.5843 24.1727 70.2408 23.9976 70.0691 23.9976C70.0691 23.8224 70.0691 23.4721 69.8973 23.1217C69.7256 22.7714 69.3821 22.4211 68.8669 22.2459C67.8365 21.8956 65.7756 22.7714 65.0887 22.9466C65.4321 23.2969 66.806 24.6982 67.8365 25.0485C68.8669 25.3989 69.5539 24.6982 69.8973 24.3479C70.2408 24.5231 70.9278 24.8734 71.2712 25.0485C71.2712 25.0485 71.443 25.3989 71.443 25.574C71.443 25.7492 71.6147 25.9244 71.6147 25.9244C71.6147 26.0995 71.6147 26.0995 71.6147 26.0995L71.9582 26.9754C71.9582 26.9754 71.9582 27.1505 72.1299 27.3257C72.1299 27.5009 72.3017 27.8512 72.3017 28.0264C72.4734 28.5519 72.6452 29.0773 72.6452 29.0773C72.3017 28.9022 72.1299 28.9022 71.7865 28.727C71.7865 28.5519 71.7865 28.3767 71.7865 28.0264C71.7865 27.676 71.6147 27.5009 71.443 27.1505C71.2713 26.9754 71.0995 26.9754 70.9278 26.8002C70.4126 26.625 69.7256 26.625 68.8669 26.625C68.18 26.625 67.3213 26.8002 67.1495 26.9754C67.3213 27.1505 67.6647 27.676 68.1799 28.2015C68.3517 28.3767 68.6952 28.727 68.8669 28.9022C69.0387 29.0774 69.3821 29.2525 69.5539 29.4277C70.5843 29.9532 71.2712 29.4277 71.6147 29.0773C71.9582 29.2525 72.4734 29.778 72.8169 29.9532C72.8169 29.9532 72.8169 30.3035 72.9886 30.6538C72.9886 30.829 72.9886 31.0042 72.9886 31.0042C72.9886 31.1793 72.9886 31.1793 72.9886 31.1793C72.9886 31.1793 72.9886 31.3545 73.1604 31.7048C73.1604 32.0552 73.3321 32.4055 73.3321 32.931C73.3321 33.4565 73.5039 33.8068 73.5039 34.1571C73.5039 34.5075 73.5039 34.6826 73.5039 34.6826C73.1604 34.5075 72.9886 34.3323 72.8169 34.1571C72.8169 33.982 72.9886 33.6317 72.9886 33.2813C72.9886 32.931 72.8169 32.5807 72.3017 32.2303C71.443 31.7048 69.2104 31.7048 68.5234 31.7048C68.6952 31.88 68.8669 32.5807 69.2104 33.1062C69.5539 33.6317 69.8973 34.3323 70.4125 34.5075C71.2712 35.033 72.1299 34.6827 72.4734 34.5075C72.8169 34.8578 73.3321 35.2081 73.5039 35.5585C73.5039 35.5585 73.5039 35.9088 73.5039 36.2591C73.5039 36.6095 73.5039 36.9598 73.5039 36.9598V37.8356C73.5039 37.8356 73.5039 38.3611 73.5039 38.8866C73.5039 39.0618 73.5039 39.4121 73.5039 39.5873C73.5039 39.7624 73.5039 39.9376 73.5039 39.9376C73.3321 39.7624 72.9886 39.5873 72.8169 39.4121C72.9886 39.0618 73.1604 38.5363 72.9886 37.8356C72.8169 37.6605 72.8169 37.4853 72.6452 37.3101C71.9582 36.6095 69.5539 36.2591 69.0386 36.2591C69.0386 36.6095 69.3821 37.135 69.5539 37.8356C69.7256 38.3611 70.0691 39.0618 70.4125 39.4121C71.0995 40.1128 72.1299 39.9376 72.4734 39.7624C72.8169 40.1128 73.1604 40.6383 73.3321 40.9886C73.3321 40.9886 73.3321 40.9886 73.3321 41.1638C73.3321 41.3389 73.3321 41.5141 73.3321 41.6893C73.3321 42.0396 73.3321 42.3899 73.3321 42.3899C73.3321 42.3899 73.3321 42.5651 73.3321 42.9154C73.3321 43.2658 73.1604 43.6161 73.1604 44.1416C73.1604 44.4919 72.9886 45.0174 72.9886 45.3677C72.9886 45.7181 72.8169 45.8932 72.8169 45.8932C72.6452 45.7181 72.4734 45.3677 72.3017 45.1926C72.6452 44.8422 72.9886 43.9664 72.3017 43.0906C71.6147 42.2148 69.5539 41.5141 68.8669 41.5141C68.8669 41.6893 69.0386 42.3899 69.2104 43.0906C69.3821 43.7912 69.5539 44.4919 69.8973 44.8422C70.5843 45.7181 71.443 45.5429 71.9582 45.5429C72.13 45.8932 72.4734 46.5939 72.6452 46.9442L72.3017 48.1704C72.3017 48.1704 72.3017 48.3456 72.1299 48.5207C72.1299 48.6959 71.9582 48.871 71.9582 48.871C71.9582 48.871 71.7865 49.3965 71.6147 49.922C71.6147 50.0972 71.443 50.4475 71.443 50.6227C71.443 50.7979 71.2712 50.973 71.2712 50.973C71.0995 50.7979 70.9278 50.4475 70.756 50.2724C71.0995 50.0972 71.443 49.5717 71.2712 48.871C71.2712 48.6959 71.0995 48.5207 71.0995 48.3455C70.5843 47.4697 68.5234 46.4187 68.0082 46.2436C68.0082 46.4187 68.0082 46.5939 68.0082 46.9442C68.0082 47.2946 68.0082 47.6449 68.0082 47.9952C68.0082 48.6959 68.18 49.3965 68.3517 49.7469C68.8669 50.6227 69.7256 50.7979 70.2408 50.6227C70.4126 50.973 70.756 51.6737 70.756 52.1992L70.2408 53.4253C70.2408 53.4253 70.2408 53.4253 70.2408 53.6005C70.2408 53.6005 70.0691 53.7757 70.0691 53.9508C69.8973 54.3012 69.7256 54.6515 69.5539 55.0018C69.3821 55.3522 69.2104 55.7025 69.0386 56.0528C68.8669 56.4032 68.6952 56.5783 68.6952 56.5783C68.5234 56.228 68.5234 56.0528 68.3517 55.7025C68.5234 55.5273 68.8669 55.3522 69.0386 55.0018C69.2104 54.6515 69.2104 54.3012 69.0386 53.7757C68.6952 52.8999 66.806 51.4985 66.2908 51.1482C66.2908 51.3234 66.2908 51.4985 66.2908 51.8489C66.2908 52.1992 66.2908 52.3743 66.1191 52.7247C66.1191 53.4253 66.1191 54.126 66.2908 54.6515C66.6343 55.7025 67.493 55.8777 68.0082 55.8777C68.18 56.4032 68.1799 56.9287 68.1799 57.4542C68.1799 57.4542 68.0082 57.8045 67.8365 57.9796C67.6647 58.1548 67.6647 58.33 67.6647 58.33C67.6647 58.5051 67.493 58.5051 67.493 58.5051L66.9778 59.2058L67.6647 59.7313C67.6647 59.7313 67.8365 59.381 68.0082 59.2058C68.18 59.0306 68.18 58.8555 68.3517 58.8555C68.3517 58.6803 68.5234 58.6803 68.5234 58.6803C68.5234 58.6803 68.8669 58.1548 69.2104 57.6293C69.3821 57.279 69.5539 57.1038 69.7256 56.9287C69.8973 56.7535 69.8973 56.5783 69.8973 56.5783C70.0691 56.4032 70.4126 56.4032 70.5843 56.228C70.9278 56.0528 71.0995 56.0528 71.2712 55.8777C71.443 56.228 72.1299 57.1038 73.1604 56.5783C73.6756 56.4032 74.3626 55.8777 74.8778 55.177C75.2212 54.8267 75.393 54.4763 75.5647 54.3012C75.7365 53.9508 75.9082 53.7757 76.0799 53.6005C75.7365 53.6005 75.0495 53.4253 74.3625 53.4253C73.6756 53.4253 72.8169 53.4253 72.3017 53.6005C71.7865 53.7757 71.443 54.126 71.2712 54.4763C71.0995 54.8267 71.0995 55.177 71.0995 55.3522C70.9278 55.3522 70.5843 55.5273 70.2408 55.5273C70.2408 55.5273 70.4126 55.177 70.5843 54.8267C70.756 54.6515 70.756 54.4763 70.9278 54.3012C70.9278 54.126 71.0995 54.126 71.0995 54.126C71.0995 54.126 71.0995 53.9508 71.2712 53.6005C71.443 53.2502 71.6147 52.8998 71.7865 52.5495C72.1299 51.8489 72.3017 51.1482 72.3017 51.1482C72.6452 50.7979 73.1604 50.4475 73.6756 50.2724C74.0191 50.6227 74.5343 51.1482 75.5647 50.7979H75.7365C76.2517 50.6227 76.7669 49.922 77.2821 49.2214C77.7973 48.5207 78.1408 47.82 78.3125 47.4697C77.6256 47.4697 75.393 47.4697 74.5343 47.9952C74.0191 48.3456 73.8473 48.6959 73.6756 49.0462C73.5039 49.3965 73.6756 49.7469 73.6756 49.922C73.5039 49.922 73.5038 50.0972 73.3321 50.0972C73.1604 50.0972 72.9886 50.2724 72.8169 50.2724L72.9886 49.922C72.9886 49.922 72.9886 49.922 72.9886 49.7469C72.9886 49.5717 73.1604 49.3965 73.1604 49.2214C73.3321 48.871 73.3321 48.5207 73.3321 48.5207C73.3321 48.5207 73.3321 48.3455 73.5039 48.1704C73.3321 47.4697 73.3321 47.2946 73.5039 46.9442Z" fill="#F5EFDB"/>
<path d="M33.3957 52.9999C33.337 52.9999 33.3077 52.9084 33.3077 52.7254C33.3077 52.5425 33.337 52.451 33.3957 52.451C34.6871 52.451 35.6557 52.3747 36.3014 52.2223C36.9765 52.0393 37.4607 51.7344 37.7542 51.3074C38.0477 50.85 38.1945 50.1792 38.1945 49.2948V32.2791C38.1945 30.2055 37.7249 29.1686 36.7857 29.1686C36.0813 29.1686 34.9513 29.748 33.3957 30.9068L33.3077 30.9526C33.1903 30.9526 33.1022 30.8916 33.0435 30.7696C32.9848 30.6171 32.9848 30.5104 33.0435 30.4494L41.5404 24.0914C41.6578 24.0304 41.7605 23.9999 41.8486 23.9999C41.9073 23.9999 41.966 24.0304 42.0247 24.0914C42.0834 24.1523 42.1127 24.2133 42.1127 24.2743V49.2948C42.1127 50.2097 42.2448 50.8805 42.5089 51.3074C42.7731 51.7344 43.228 52.0393 43.8737 52.2223C44.5488 52.3747 45.5467 52.451 46.8674 52.451C46.9555 52.451 46.9995 52.5425 46.9995 52.7254C46.9995 52.9084 46.9555 52.9999 46.8674 52.9999C45.6934 52.9999 44.7689 52.9846 44.0939 52.9541L40.1316 52.9084L36.3014 52.9541C35.597 52.9846 34.6284 52.9999 33.3957 52.9999Z" fill="#AAAAAA"/>
</svg>
