<svg width="79" height="69" viewBox="0 0 79 69" fill="none" xmlns="http://www.w3.org/2000/svg">
<path d="M20.6548 63.2496C21.2578 62.4931 20.9563 62.493 21.8609 61.4338C21.8609 61.4338 21.8609 61.4338 21.7101 61.4338H21.5594C21.4086 61.5852 21.2578 61.7365 21.1071 62.0391C20.9563 62.1904 20.6548 62.3417 20.3533 62.3417C20.2025 62.3417 19.901 62.3417 19.7502 62.1904C19.4487 62.0391 19.2979 62.0391 18.9964 61.8878L18.0918 63.2496C18.8456 63.5523 20.0517 64.1575 20.6548 63.2496Z" fill="#F5EFDB"/>
<path d="M22.0118 60.2233C21.861 60.5259 21.861 60.6772 21.861 60.8285C21.861 60.8285 21.861 60.8285 22.0118 60.8285H22.1625C22.3133 59.7693 22.6148 59.7693 22.7656 59.0127C23.0671 57.9535 22.1625 57.4996 21.7102 57.0457L20.8057 58.4075C21.1072 58.5588 21.258 58.7101 21.4087 58.8614C21.5595 59.0128 21.7102 59.1641 21.861 59.3154C22.0118 59.7693 22.0118 60.0719 22.0118 60.2233Z" fill="#F5EFDB"/>
<path d="M23.8204 64.1576C23.0666 63.855 22.3128 64.1576 21.7097 64.6115C21.1067 65.2168 20.8051 65.9734 20.9559 67.0326C20.9559 67.0326 21.1067 66.73 21.4082 66.276C21.7097 65.9734 22.0112 65.5194 22.6143 65.5194C23.5189 65.5194 25.328 66.4273 25.9311 65.2168C26.3834 64.4602 26.0819 64.3089 26.8357 63.2497L26.5342 63.0984C26.3834 63.2497 26.2326 63.401 26.0819 63.7036C25.9311 64.0063 25.7803 64.0063 25.328 64.1576C24.8758 64.4602 24.4235 64.3089 23.8204 64.1576Z" fill="#F5EFDB"/>
<path d="M27.1375 60.9797C27.1375 60.3745 26.8359 59.9206 26.3836 59.6179C26.2329 59.4666 25.9313 59.3153 25.7806 59.164C25.6298 59.0126 25.3283 58.8613 25.3283 58.71C25.0268 58.4074 25.0268 57.9534 25.1775 57.4995C25.3283 57.0455 25.4791 56.7429 25.4791 56.7429C24.7252 57.3482 24.4237 58.1048 24.2729 58.8614C24.2729 59.6179 24.5745 60.3745 25.1775 60.5258C25.7806 60.6771 26.0821 60.9798 26.3836 61.1311C26.6852 61.4337 26.6852 61.585 26.6852 61.8876C26.6852 62.1903 26.6852 62.3416 26.6852 62.4929L26.9867 62.6442C26.8359 61.7363 26.9867 61.7363 27.1375 60.9797Z" fill="#F5EFDB"/>
<path d="M29.0974 65.6712C28.6451 65.5199 28.3436 65.6712 27.8913 65.8225C27.5898 65.9738 27.2882 66.2764 26.9867 66.579C26.5344 67.1843 26.3837 68.0922 26.6852 69.0001C26.6852 69.0001 26.6852 68.6975 26.9867 68.2435C27.1375 67.7896 27.439 67.4869 28.0421 67.3356C28.3436 67.3356 28.4944 67.3356 28.7959 67.3356C29.0974 67.3356 29.3989 67.3356 29.7005 67.3356C30.3035 67.3356 30.9066 67.1843 31.0573 66.4278C31.3589 65.5199 31.0573 65.5198 31.5096 64.3093H31.2081C31.2081 64.4606 31.0573 64.612 30.9066 65.0659C30.9066 65.3685 30.6051 65.5199 30.3035 65.6712C30.1528 65.6712 29.7005 65.6712 29.0974 65.6712Z" fill="#F5EFDB"/>
<path d="M31.8114 61.8886C31.8114 61.2834 31.3591 60.9807 30.9068 60.6781C30.6053 60.5267 30.4545 60.5268 30.153 60.3755C29.8515 60.2241 29.7007 60.2241 29.5499 60.0728C29.2484 59.7702 29.2484 59.3162 29.2484 58.8623C29.2484 58.4083 29.3992 58.1057 29.3992 58.1057C28.7961 58.8623 28.4946 59.7702 28.6454 60.5267C28.6454 60.8294 28.7961 61.2833 28.9469 61.586C29.0976 61.8886 29.3992 62.0399 29.8515 62.1912C30.4545 62.3425 30.756 62.4939 31.0576 62.6452C31.3591 62.7965 31.5099 63.0991 31.5099 63.2505C31.5099 63.5531 31.5099 63.7044 31.5099 63.8557C31.5099 63.8557 31.5099 63.8557 31.6606 63.8557H31.8114C31.6606 62.7965 31.8114 62.6452 31.8114 61.8886Z" fill="#F5EFDB"/>
<path d="M5.72897 47.5122C6.63355 47.3609 6.48279 47.0582 7.6889 46.9069L7.53813 46.6043C7.38737 46.6043 7.08584 46.6043 6.78432 46.7556C6.48279 46.7556 6.33202 46.7556 6.0305 46.453C5.72897 46.1504 5.57821 45.6964 5.27668 45.0912L3.76904 45.6964C3.91981 46.1504 4.22133 46.6043 4.52286 46.9069C4.82439 47.3609 5.27668 47.5122 5.72897 47.5122Z" fill="#F5EFDB"/>
<path d="M8.59388 45.9992C8.29236 46.1505 8.14159 46.3018 8.14159 46.3018L8.29236 46.6045C9.19694 45.8479 9.34771 46.1505 9.95076 45.5453C10.4031 45.2426 10.5538 44.94 10.5538 44.4861C10.5538 44.0321 10.4031 43.7295 10.4031 43.2755L8.89541 43.8808C9.04618 44.486 9.19694 44.7887 9.19694 45.2426C8.89541 45.5453 8.89541 45.8479 8.59388 45.9992Z" fill="#F5EFDB"/>
<path d="M7.53815 50.0851C7.08586 49.3285 6.33204 49.0259 5.57822 49.0259C4.8244 49.0259 3.91982 49.4798 3.46753 50.3877C3.46753 50.3877 3.76906 50.2364 4.22135 50.0851C4.67364 49.9338 5.12593 49.9338 5.57822 50.2364C5.72898 50.3877 5.87975 50.539 6.18128 50.8417C6.33204 51.1443 6.4828 51.2956 6.78433 51.5982C7.23662 52.0522 7.68891 52.3548 8.29197 52.2035C9.04578 51.9009 9.04578 51.5983 10.2519 51.2956L10.1011 50.993C9.95036 50.993 9.64884 51.1443 9.34731 51.2956C9.04578 51.4469 8.89502 51.2956 8.59349 51.1443C8.29196 51.1443 7.83967 50.6903 7.53815 50.0851Z" fill="#F5EFDB"/>
<path d="M12.2121 49.7831C12.6644 49.3291 12.6644 48.8752 12.5136 48.2699C12.3629 47.9673 12.3629 47.816 12.2121 47.5134C12.0613 47.2107 12.0613 47.0594 12.0613 46.9081C12.0613 46.4541 12.3629 46.1515 12.8152 45.8489C13.1167 45.5462 13.569 45.3949 13.569 45.3949C12.6644 45.3949 11.7598 45.6975 11.3075 46.3028C10.7045 46.9081 10.5537 47.5134 10.8552 48.2699C11.1568 48.7239 11.3075 49.1778 11.3075 49.4804C11.3075 49.7831 11.3075 50.0857 11.006 50.237C10.8552 50.3883 10.7045 50.5396 10.5537 50.6909L10.7045 50.9936C11.4583 50.237 11.6091 50.3884 12.2121 49.7831Z" fill="#F5EFDB"/>
<path d="M10.704 54.624C10.101 54.0187 9.34716 53.7161 8.59334 54.0188C8.14105 54.1701 7.83953 54.3214 7.538 54.624C7.23647 54.9266 6.93494 55.2293 6.78418 55.8346C6.78418 55.8346 7.08571 55.5319 7.538 55.3806C7.99029 55.2293 8.44258 55.078 8.89487 55.3806C9.34716 55.6832 9.79945 56.1372 10.2517 56.5911C10.704 57.0451 11.3071 57.1964 11.9101 56.8938C12.664 56.4398 12.5132 56.2885 13.5685 55.6832L13.4178 55.5319C13.267 55.5319 13.1163 55.6832 12.8147 55.9858C12.2117 55.8345 11.4579 55.6832 10.704 54.624Z" fill="#F5EFDB"/>
<path d="M15.0761 53.5659C15.5284 52.9606 15.3777 52.5067 15.0761 52.0528C14.9254 51.5988 14.4731 51.1448 14.4731 50.8422C14.4731 50.3883 14.6238 49.9343 14.9254 49.6317C15.2269 49.3291 15.5284 49.1777 15.5284 49.1777C15.0761 49.329 14.6238 49.4804 14.3223 49.6317C14.0208 49.783 13.7193 50.0857 13.4177 50.3883C13.267 50.6909 13.1162 50.9935 13.1162 51.4475C13.1162 51.7501 13.1162 52.204 13.4177 52.3554C13.7193 52.8093 14.0208 53.2633 14.0208 53.5659C14.1716 53.8685 14.0208 54.1712 13.87 54.3225C13.7193 54.4738 13.5685 54.7764 13.5685 54.7764L13.7193 54.9277C14.4731 54.0198 14.6238 54.1712 15.0761 53.5659Z" fill="#F5EFDB"/>
<path d="M14.4733 58.5579C14.1718 58.2553 13.8703 58.104 13.418 58.104C13.1164 58.104 12.6641 58.104 12.3626 58.2553C11.6088 58.5579 11.0057 59.3145 10.855 60.2224C10.855 60.2224 11.1565 59.9197 11.458 59.7684C11.7596 59.4658 12.3626 59.3145 12.8149 59.4658C12.9657 59.4658 13.2672 59.6171 13.5687 59.9197C13.8703 60.071 14.1718 60.2224 14.3225 60.3737C14.6241 60.525 14.9256 60.6763 15.2271 60.6763C15.5287 60.6763 15.8302 60.6763 15.9809 60.3737C16.584 59.7684 16.4332 59.6171 17.4886 58.8606L17.1871 58.7092C17.0363 58.8606 16.8855 59.0118 16.584 59.1632C16.2825 59.4658 15.5287 59.4658 14.4733 58.5579Z" fill="#F5EFDB"/>
<path d="M18.6951 56.7431C18.8459 56.4405 18.8459 56.1378 18.8459 55.9865C18.8459 55.6839 18.6951 55.5326 18.5444 55.3813C18.3936 55.23 18.2428 54.9273 18.0921 54.776C17.9413 54.6247 17.7905 54.4734 17.7905 54.1708C17.6398 53.7168 17.7905 53.2629 18.0921 52.9602C18.3936 52.6576 18.5444 52.355 18.5444 52.355C17.6398 52.6576 17.0367 53.2629 16.7352 54.0195C16.5844 54.3221 16.4337 54.776 16.5844 55.0787C16.5844 55.3813 16.7352 55.6839 17.0367 55.9865C17.9413 56.7431 18.0921 57.3484 17.9413 57.8023C17.7905 58.105 17.7905 58.2563 17.6398 58.4076L17.9413 58.5589C18.0921 57.3484 18.2428 57.4997 18.6951 56.7431Z" fill="#F5EFDB"/>
<path d="M15.679 64.1573C15.679 64.1573 15.8298 63.8547 16.1313 63.552C16.4328 63.2494 16.8851 62.9468 17.3374 63.0981C17.4882 63.0981 17.7897 63.2494 18.0912 63.2494L18.9958 61.8876C18.6943 61.7363 18.242 61.585 17.9405 61.585C17.6389 61.585 17.1867 61.7363 16.8851 61.8876C16.1313 62.3416 15.5283 63.0981 15.679 64.1573Z" fill="#F5EFDB"/>
<path d="M21.711 54.7759C20.9567 55.2298 20.3533 55.9864 20.2025 56.743C20.0516 57.0456 20.0516 57.4996 20.2025 57.8022C20.3533 58.1048 20.5042 58.4075 20.8059 58.5588L21.711 57.1969C21.5601 57.0456 21.4093 56.8943 21.2584 56.743C21.1076 56.4403 21.2584 55.8351 21.4093 55.5325C21.5601 55.0785 21.711 54.7759 21.711 54.7759Z" fill="#F5EFDB"/>
<path d="M17.4884 58.2567C17.4884 58.2567 17.4884 58.2568 17.3376 58.1055C17.1869 58.1055 17.0361 57.9541 16.8853 57.8028C16.5838 57.5002 16.1315 57.1975 15.6792 56.7436C15.5285 56.5923 15.2269 56.2897 15.0762 56.1383C14.9254 55.987 14.6239 55.6844 14.4731 55.5331C14.3224 55.3818 14.1716 55.2305 14.0208 55.0792C13.8701 54.9279 13.8701 54.9278 13.8701 54.9278L13.7193 54.7765C13.7193 54.7765 13.5685 54.6252 13.267 54.1713C12.9655 53.8686 12.5132 53.4147 12.2117 52.9607C12.0609 52.6581 11.9101 52.5068 11.6086 52.2042C11.4579 52.0528 11.4579 52.0529 11.3071 51.9016C11.3071 51.7502 11.1563 51.7502 11.1563 51.5989C10.8548 51.2963 10.704 50.9937 10.704 50.9937L10.5533 50.691C10.5533 50.691 10.4025 50.3884 10.101 50.0858C9.95022 49.9344 9.79945 49.6318 9.64869 49.4805C9.49793 49.1779 9.34716 49.0266 9.1964 48.7239C9.1964 48.5726 9.04564 48.4213 9.04564 48.27C9.04564 48.1187 8.89487 47.9674 8.89487 47.816C8.74411 47.5134 8.59334 47.3621 8.59334 47.0595C8.44258 46.9081 8.44258 46.7569 8.44258 46.6055C8.44258 46.4542 8.29182 46.4542 8.29182 46.4542L8.14105 46.1516C8.14105 46.1516 8.14105 46.0003 7.99029 45.849C7.83952 45.6976 7.83953 45.395 7.68876 45.2437C7.538 44.9411 7.538 44.7897 7.38723 44.6384C7.38723 44.4871 7.23647 44.3358 7.23647 44.3358L6.78418 44.4871C6.78418 44.4871 6.78418 44.6384 6.93494 44.7897C6.93494 44.9411 7.08571 45.2437 7.23647 45.5463C7.38723 45.8489 7.38723 46.0003 7.538 46.1516C7.68876 46.3029 7.68876 46.4542 7.68876 46.4542L7.83952 46.7569C7.83952 46.7569 7.83952 46.7568 7.99029 46.9081C7.99029 47.0595 8.14105 47.2108 8.29182 47.3621C8.44258 47.5134 8.44258 47.8161 8.59334 48.1187C8.59334 48.27 8.74411 48.4213 8.74411 48.5726C8.74411 48.7239 8.89487 48.8753 8.89487 49.0266C9.04563 49.3292 9.1964 49.6318 9.34716 49.7832C9.49793 50.0858 9.64869 50.2371 9.79945 50.3884C9.95022 50.5397 9.95022 50.691 10.101 50.8423C10.101 50.9936 10.2517 50.9937 10.2517 50.9937L10.4025 51.2963C10.4025 51.2963 10.5533 51.5989 10.8548 51.9016C11.0056 52.0529 11.1563 52.3555 11.3071 52.5068C11.4579 52.8094 11.6086 52.9607 11.9101 53.2634C12.3624 53.7173 12.664 54.1713 12.9655 54.6252C13.267 54.9278 13.4178 55.2305 13.4178 55.2305L13.5685 55.3818C13.5685 55.3818 13.5685 55.3818 13.7193 55.5331C13.8701 55.6844 14.0208 55.8357 14.1716 55.987C14.3224 56.1383 14.4731 56.2897 14.7747 56.5923C14.9254 56.7436 15.2269 57.0463 15.3777 57.1976C15.83 57.6515 16.2823 57.9541 16.7346 58.2567C16.8854 58.4081 17.0361 58.5594 17.1869 58.5594C17.3376 58.7107 17.3376 58.7107 17.3376 58.7107L17.6392 58.862C17.6392 58.862 17.7899 59.0133 17.9407 59.1646C18.0915 59.316 18.393 59.4673 18.6945 59.7699C19.2976 60.2238 19.9006 60.5265 19.9006 60.5265L20.2022 60.0725C20.2022 60.0725 19.5991 59.7699 18.996 59.316C18.6945 59.1647 18.393 59.0133 18.2422 58.7107C18.0915 58.5594 17.9407 58.4081 17.9407 58.4081L17.4884 58.2567Z" fill="#F5EFDB"/>
<path d="M4.37215 25.7237C5.12597 26.1777 5.27673 25.875 6.33208 26.6316L6.48284 26.329C6.33208 26.1777 6.18132 26.0263 5.87979 25.875C5.72903 25.7237 5.57826 25.5724 5.4275 25.1184C5.4275 24.8158 5.4275 24.2105 5.72903 23.6053L4.22139 23C4.07063 23.454 3.91986 23.9079 3.91986 24.5132C3.7691 24.9671 3.91986 25.4211 4.37215 25.7237Z" fill="#F5EFDB"/>
<path d="M7.538 26.4806C7.23647 26.4806 7.08571 26.4806 6.93494 26.4806L6.78418 26.7832C7.83952 26.7832 7.83952 27.0858 8.74411 27.0858C9.1964 27.0858 9.64869 26.9345 9.79945 26.6319C10.101 26.3292 10.2517 26.0266 10.4025 25.5727L8.89487 24.9674C8.74411 25.5727 8.44258 25.8753 8.29182 26.178C8.14105 26.3293 7.83952 26.4806 7.538 26.4806Z" fill="#F5EFDB"/>
<path d="M4.07095 28.9018C4.22171 28.4479 4.07095 28.1453 3.92019 27.6913C3.76943 27.3887 3.4679 27.0861 3.16637 26.7834C2.56332 26.3295 1.65873 26.1782 0.75415 26.4808C0.75415 26.4808 1.05568 26.4808 1.50797 26.7834C1.96026 26.9348 2.26179 27.2374 2.41255 27.8426C2.41255 28.1453 2.41255 28.2966 2.41255 28.5992C2.41255 28.9018 2.41255 29.2045 2.41255 29.5071C2.41255 30.1124 2.56331 30.7176 3.31713 30.8689C4.22171 31.1716 4.22172 30.8689 5.42783 31.3229V31.0202C5.27706 31.0202 5.1263 30.8689 4.67401 30.7176C4.37248 30.7176 4.22171 30.415 4.22171 30.1124C4.07095 30.1124 3.92019 29.5071 4.07095 28.9018Z" fill="#F5EFDB"/>
<path d="M7.83932 31.6254C8.44238 31.6254 8.7439 31.1714 9.04543 30.7175C9.1962 30.4149 9.19619 30.2635 9.34696 29.9609C9.49772 29.6583 9.49772 29.5069 9.64849 29.3556C9.95001 29.053 10.4023 29.053 10.8546 29.053C11.3069 29.053 11.6084 29.2043 11.6084 29.2043C10.8546 28.5991 10.1008 28.2964 9.1962 28.4477C8.7439 28.4477 8.44238 28.5991 8.14085 28.7504C7.83932 28.9017 7.68856 29.2043 7.5378 29.6583C7.38703 30.2635 7.23627 30.5662 7.0855 30.8688C6.93474 31.1714 6.63321 31.3227 6.48245 31.3227C6.18092 31.3227 6.03016 31.3227 5.87939 31.3227C5.87939 31.3227 5.87939 31.3228 5.87939 31.4741V31.6254C6.93474 31.4741 6.93474 31.7767 7.83932 31.6254Z" fill="#F5EFDB"/>
<path d="M3.61833 34.349C3.61833 33.5924 3.16604 32.8359 2.41222 32.5332C1.6584 32.2306 0.753818 32.0793 0 32.6845C0 32.6845 0.301527 32.6845 0.753818 32.8359C1.20611 32.9872 1.6584 33.1385 1.80916 33.7438C1.95993 33.8951 1.95993 34.1977 1.95993 34.5003C1.95993 34.8029 2.11069 35.1056 2.11069 35.4082C2.26145 36.0134 2.56298 36.6187 3.16604 36.6187C4.07062 36.77 4.07062 36.4674 5.27673 36.77V36.4674C5.12596 36.4674 4.82444 36.3161 4.52291 36.3161C4.22138 36.3161 4.07062 36.1648 3.91986 35.7108C3.61833 35.5595 3.61833 35.1056 3.61833 34.349Z" fill="#F5EFDB"/>
<path d="M7.68882 36.4667C8.29187 36.3154 8.5934 35.8614 8.74416 35.4075C8.74416 35.1048 8.89493 34.9535 8.89493 34.6509C8.89493 34.3483 9.04569 34.197 9.04569 34.0456C9.19646 33.743 9.79951 33.5917 10.101 33.4404C10.5533 33.4404 10.8549 33.4404 10.8549 33.4404C10.101 32.9864 9.19646 32.8351 8.44264 32.9864C7.68882 33.1377 7.23653 33.743 7.08576 34.4996C7.08576 35.1049 6.935 35.5588 6.78424 35.8614C6.63347 36.1641 6.48271 36.3154 6.18118 36.4667C5.87965 36.4667 5.72889 36.618 5.57812 36.618V36.9206C6.78423 36.3154 6.935 36.618 7.68882 36.4667Z" fill="#F5EFDB"/>
<path d="M3.91997 39.7953C3.91997 39.3414 3.61844 39.0387 3.46768 38.7361C3.16615 38.4334 2.86462 38.2821 2.5631 38.1308C1.80928 37.9795 0.904697 37.9795 0.150879 38.7361C0.150879 38.7361 0.452406 38.7361 0.904697 38.7361C1.35699 38.7361 1.80928 38.8874 2.11081 39.3414C2.41233 39.7953 2.41233 40.4005 2.71386 41.0058C3.01539 41.6111 3.31692 42.065 3.91997 42.065C4.82455 42.065 4.82455 41.7624 6.03066 41.9137C6.03066 41.9137 6.03066 41.9137 6.03066 41.7624V41.6111C5.8799 41.6111 5.57837 41.6111 5.27684 41.6111C4.97532 41.6111 4.82455 41.4598 4.52303 41.1571C4.37226 41.0058 4.37226 40.8545 4.2215 40.5519C4.07073 40.4006 4.07073 40.0979 3.91997 39.7953Z" fill="#F5EFDB"/>
<path d="M8.44258 41.1574C9.04564 40.8548 9.1964 40.4008 9.1964 39.9469C9.1964 39.493 9.1964 38.8877 9.34716 38.5851C9.49792 38.1311 9.95022 37.9798 10.4025 37.8285C10.8548 37.6772 11.1563 37.6772 11.1563 37.6772C10.2517 37.3745 9.34716 37.3745 8.74411 37.6772C8.44258 37.8285 8.14105 38.1311 7.99029 38.2824C7.83952 38.5851 7.68876 38.8877 7.83952 39.3416C7.83952 39.6443 7.83952 39.9469 7.83952 40.0982C7.83952 40.2495 7.83952 40.5522 7.83952 40.7035C7.68876 41.0061 7.538 41.3088 7.38723 41.3088C7.08571 41.4601 6.93494 41.4601 6.78418 41.6114C6.78418 41.6114 6.78418 41.6114 6.78418 41.7627V41.914C7.538 41.3087 7.68876 41.4601 8.44258 41.1574Z" fill="#F5EFDB"/>
<path d="M1.35767 44.7894C1.35767 44.7894 1.65919 44.6381 2.11148 44.6381C2.56378 44.6381 3.01607 44.6381 3.46836 45.0921C3.61912 45.2434 3.76989 45.3947 3.92065 45.6973L5.42829 45.0921C5.27753 44.6381 5.12676 44.3355 4.82523 44.1842C4.67447 44.0328 4.52371 44.0328 4.37294 43.8815C4.22218 43.8815 4.07141 43.7302 3.76989 43.7302C2.8653 43.7302 1.96072 44.0328 1.35767 44.7894Z" fill="#F5EFDB"/>
<path d="M11.9105 41.613C11.0059 41.4617 10.1013 41.613 9.49824 42.067C9.34747 42.2183 9.19671 42.3696 9.04595 42.3696C8.89519 42.5209 8.89518 42.6722 8.74442 42.8235C8.59366 43.1262 8.59366 43.4288 8.74442 43.8827L10.2521 43.2775C10.2521 43.1262 10.2521 42.8235 10.2521 42.6722C10.4028 42.2183 10.7043 41.9156 11.1566 41.7643C11.6089 41.7643 11.9105 41.613 11.9105 41.613Z" fill="#F5EFDB"/>
<path d="M6.48308 41.46C6.48308 41.46 6.48308 41.1573 6.33231 40.7034C6.18155 40.2495 6.18155 39.6442 6.03079 39.039C6.03079 38.7363 5.88002 38.4337 5.88002 38.1311C5.88002 37.8284 5.88002 37.5258 5.72926 37.3745C5.72926 37.2232 5.72926 36.9205 5.72926 36.7692C5.72926 36.6179 5.72926 36.6179 5.72926 36.6179V36.3153C5.72926 36.3153 5.72926 36.3153 5.72926 36.164C5.72926 36.0126 5.72926 35.8613 5.72926 35.5587C5.72926 35.4074 5.72926 35.1048 5.72926 34.8021C5.72926 34.4995 5.72926 34.1969 5.72926 33.8942C5.72926 33.289 5.72926 32.6837 5.88002 32.2298C5.88002 31.7758 5.88002 31.4732 5.88002 31.4732C5.88002 31.4732 5.88002 31.4732 5.88002 31.3219V31.1706C5.88002 31.1706 5.88002 30.8679 6.03079 30.414C6.03079 30.2627 6.03079 29.96 6.18155 29.6574C6.18155 29.3548 6.33231 29.0522 6.33231 28.7495C6.33231 28.5982 6.33231 28.4469 6.48308 28.2956C6.48308 28.1443 6.48308 27.9929 6.63384 27.8416C6.63384 27.539 6.78461 27.2364 6.78461 27.0851C6.78461 26.9337 6.93537 26.6311 6.93537 26.6311C6.93537 26.4798 6.93537 26.4798 6.93537 26.4798L7.08613 26.1772C7.08613 26.1772 7.08613 26.0258 7.2369 25.8745C7.2369 25.7232 7.2369 25.7232 7.38766 25.5719C7.38766 25.4206 7.53842 25.2693 7.53842 25.2693C7.68919 24.8153 7.83995 24.3614 7.83995 24.3614L7.38766 24.2101C7.38766 24.2101 7.2369 24.664 7.08613 25.2693C6.93537 25.5719 6.93537 25.7232 6.93537 26.0259C6.93537 26.1772 6.78461 26.3285 6.78461 26.3285L6.63384 26.6311C6.63384 26.6311 6.63384 26.6311 6.63384 26.7824C6.63384 26.9337 6.48308 27.0851 6.48308 27.3877C6.48308 27.539 6.33231 27.8416 6.33231 28.1443C6.33231 28.2956 6.33232 28.4469 6.18155 28.5982C6.18155 28.7495 6.18155 28.9008 6.03079 29.0522C6.03079 29.3548 5.88002 29.6574 5.88002 29.9601C5.88002 30.2627 5.72926 30.5653 5.72926 30.7166C5.72926 31.1706 5.5785 31.4732 5.5785 31.4732V31.7758C5.5785 31.7758 5.5785 32.0785 5.5785 32.5324C5.5785 32.9863 5.5785 33.5916 5.42773 34.1969C5.42773 34.4995 5.42773 34.8021 5.42773 35.1048C5.42773 35.4074 5.42773 35.71 5.42773 35.8613C5.42773 36.164 5.42773 36.3153 5.42773 36.4666C5.42773 36.6179 5.42773 36.6179 5.42773 36.6179V36.9205V37.0719C5.42773 37.2232 5.42773 37.3745 5.42773 37.6771C5.42773 37.8284 5.42773 38.131 5.5785 38.4337C5.5785 38.7363 5.5785 39.0389 5.72926 39.3416C5.88002 39.9468 5.88002 40.5521 6.03079 41.006C6.18155 41.46 6.18155 41.7626 6.18155 41.7626C6.18155 41.7626 6.18155 41.7626 6.18155 41.9139V42.0653C6.18155 42.0653 6.33231 42.6705 6.48308 43.4271C6.63384 44.0323 6.93537 44.7889 6.93537 44.7889L7.38766 44.6376C7.38766 44.6376 7.2369 44.0323 6.93537 43.2758C6.78461 42.6705 6.63384 41.9139 6.63384 41.9139C6.63384 41.9139 6.48308 41.7626 6.48308 41.46C6.48308 41.6113 6.48308 41.46 6.48308 41.46Z" fill="#F5EFDB"/>
<path d="M17.3379 8.17101C17.6394 8.92758 17.9409 8.92758 18.2424 10.1381L18.544 9.98678C18.544 9.83546 18.3932 9.53283 18.2424 9.2302C18.0917 8.92757 18.2424 8.77626 18.3932 8.47363C18.544 8.171 18.9963 7.86839 19.5993 7.56576L18.8455 6.05261C18.6947 6.20393 18.3932 6.35525 18.2424 6.50656C18.0917 6.65787 17.9409 6.80917 17.7901 6.96049C17.3379 7.26311 17.1871 7.71706 17.3379 8.17101Z" fill="#F5EFDB"/>
<path d="M19.2983 10.744C19.1475 10.5927 18.9967 10.4414 18.846 10.29L18.5444 10.4413C19.2983 11.1979 19.1475 11.3492 19.7505 11.9545C20.0521 12.2571 20.5044 12.4084 20.8059 12.2571C20.9567 12.2571 21.2582 12.1058 21.4089 12.1058C21.5597 12.1058 21.7105 11.9545 22.012 11.9545L21.2582 10.4413C20.8059 10.744 20.3536 10.8953 20.0521 10.8953C19.7505 11.0466 19.449 10.8953 19.2983 10.744Z" fill="#F5EFDB"/>
<path d="M15.0765 10.4404C15.6796 9.83514 15.9811 9.07857 15.6796 8.322C15.5288 7.86805 15.3781 7.56543 15.0765 7.2628C14.775 6.96017 14.4735 6.65754 13.8704 6.50623C13.8704 6.50623 14.1719 6.80886 14.3227 7.2628C14.4735 7.71674 14.6242 8.17068 14.3227 8.62462C14.0212 9.07857 13.5689 9.5325 13.1166 9.98645C12.6643 10.4404 12.5135 11.0457 12.8151 11.6509C13.2674 12.4075 13.4181 12.2562 14.0212 13.3154L14.172 13.1641C14.172 13.0128 14.0212 12.8614 13.7197 12.5588C13.8704 11.9536 14.0212 11.3483 15.0765 10.4404Z" fill="#F5EFDB"/>
<path d="M16.1318 14.9788C16.7348 15.4328 17.1871 15.2815 17.6394 14.9788C18.0917 14.8275 18.544 14.3736 18.8455 14.3736C19.2978 14.3736 19.5993 14.5249 20.0516 14.8275C20.3532 15.1302 20.5039 15.4328 20.5039 15.4328C20.3532 14.9788 20.2024 14.5249 20.0516 14.2223C19.9009 13.9196 19.5993 13.617 19.2978 13.3144C18.9963 13.1631 18.6948 13.0117 18.2425 13.0117C17.9409 13.0117 17.4886 13.0117 17.3379 13.3144C16.8856 13.617 16.4333 13.9196 16.1318 13.9196C15.8302 14.0709 15.5287 13.9196 15.378 13.7683C15.2272 13.617 14.9257 13.4657 14.9257 13.4657L14.7749 13.617C15.5287 14.2223 15.5287 14.3736 16.1318 14.9788Z" fill="#F5EFDB"/>
<path d="M11.1566 14.2233C11.4581 13.9207 11.6089 13.6181 11.6089 13.1641C11.6089 12.8615 11.6089 12.4076 11.4581 12.1049C11.1566 11.3484 10.4028 10.7431 9.49819 10.5918C9.49819 10.5918 9.79972 10.8944 9.95048 11.197C10.252 11.4997 10.4028 12.105 10.252 12.5589C10.252 12.7102 10.1012 13.0128 9.79972 13.3155C9.64895 13.6181 9.49819 13.9207 9.34742 14.072C9.19666 14.3747 9.0459 14.6773 9.0459 14.9799C9.0459 15.2826 9.0459 15.5852 9.34742 15.7365C9.95048 16.3418 10.1012 16.1904 10.8551 17.2496L11.0058 16.947C10.8551 16.7957 10.7043 16.6444 10.5535 16.3418C10.1012 16.0391 10.252 15.2826 11.1566 14.2233Z" fill="#F5EFDB"/>
<path d="M12.9659 18.4601C13.2674 18.6114 13.569 18.6114 13.7197 18.6114C14.0212 18.6114 14.172 18.4601 14.3228 18.3088C14.4735 18.1575 14.7751 18.0062 14.9258 17.8549C15.0766 17.7035 15.2274 17.5522 15.5289 17.5522C15.9812 17.4009 16.4335 17.5522 16.735 17.8549C17.0365 18.1575 17.338 18.3088 17.338 18.3088C17.0365 17.4009 16.4335 16.7957 15.6796 16.493C15.3781 16.3417 14.9258 16.1904 14.6243 16.3417C14.3228 16.3417 14.0212 16.493 13.7197 16.7957C12.9659 17.7035 12.3628 17.8549 11.9106 17.7035C11.609 17.5522 11.4583 17.5522 11.3075 17.4009L11.1567 17.7035C12.3628 17.8549 12.2121 18.1575 12.9659 18.4601Z" fill="#F5EFDB"/>
<path d="M7.99046 18.763C8.14122 18.4604 8.29199 18.0064 8.29199 17.7038C8.29199 17.4012 8.14122 16.9472 7.99046 16.6446C7.53817 16.0393 6.78435 15.4341 5.729 15.5854C5.729 15.5854 6.03053 15.7367 6.33206 16.0393C6.63358 16.342 6.93511 16.7959 6.78435 17.2499C6.78435 17.7038 6.33206 18.3091 6.1813 18.9143C6.03053 19.5196 6.03053 20.1248 6.48282 20.5788C7.23664 21.184 7.23664 20.8814 8.29199 21.7893C8.29199 21.7893 8.29199 21.7893 8.29199 21.638V21.4867C8.14122 21.3354 7.99046 21.184 7.68893 21.0327C7.53817 20.8814 7.3874 20.5788 7.3874 20.2762C7.3874 20.1248 7.3874 19.8222 7.53817 19.6709C7.68893 19.217 7.83969 19.0656 7.99046 18.763Z" fill="#F5EFDB"/>
<path d="M10.5538 22.5454C11.1568 22.6967 11.6091 22.3941 11.9107 22.0915C12.2122 21.7888 12.5137 21.1836 12.8152 21.0322C13.1168 20.8809 13.7198 20.8809 14.0214 21.1836C14.4737 21.3349 14.7752 21.6375 14.7752 21.6375C14.3229 20.8809 13.5691 20.2757 12.8152 20.1244C12.5137 19.973 12.0614 19.973 11.7599 20.1244C11.4584 20.2757 11.1568 20.427 11.0061 20.7296C10.8553 21.0322 10.7046 21.1836 10.5538 21.3349C10.403 21.4862 10.2523 21.6375 10.1015 21.7888C9.79997 21.9401 9.49845 22.0915 9.34768 21.9402C9.04616 21.7888 8.89539 21.7888 8.74463 21.7888C8.74463 21.7888 8.74463 21.7888 8.74463 21.9402V22.0915C9.79997 22.0915 9.64921 22.2428 10.5538 22.5454Z" fill="#F5EFDB"/>
<path d="M2.71387 20.8817C2.71387 20.8817 3.0154 21.033 3.46769 21.3356C3.76921 21.6382 4.22151 21.9408 4.22151 22.5461C4.22151 22.6974 4.22151 23.0001 4.07074 23.3027L5.57838 23.908C5.87991 23.1514 5.57838 22.3948 5.12609 21.7895C4.52303 21.033 3.76921 20.579 2.71387 20.8817Z" fill="#F5EFDB"/>
<path d="M12.815 25.2696C12.2119 24.513 11.4581 24.2104 10.7043 24.0591C9.95048 24.0591 9.19666 24.3617 9.0459 24.967L10.5535 25.5722C10.7043 25.4209 10.8551 25.2696 10.8551 25.1183C11.1566 24.8157 11.6089 24.8157 12.0612 24.967C12.5135 25.1183 12.815 25.2696 12.815 25.2696Z" fill="#F5EFDB"/>
<path d="M8.74445 21.638C8.74445 21.638 8.89522 21.3354 9.04598 21.0327C9.19675 20.5788 9.49827 20.1249 9.7998 19.5196C10.1013 19.0656 10.4029 18.4604 10.7044 18.1578C11.0059 17.8551 11.1567 17.5525 11.1567 17.5525L11.3074 17.2499C11.3074 17.2499 11.3074 17.2499 11.4582 17.0986C11.4582 16.9473 11.609 16.7959 11.7597 16.6446C12.0613 16.342 12.3628 15.888 12.8151 15.4341C12.9658 15.2828 13.2674 14.9802 13.4181 14.8288C13.5689 14.6775 13.8704 14.3749 14.0212 14.2236C14.1719 14.0723 14.3227 13.9209 14.4735 13.7696C14.6242 13.6183 14.6242 13.6183 14.6242 13.6183L14.775 13.467C14.775 13.467 14.9258 13.3157 15.3781 13.013C15.6796 12.7104 16.1319 12.2565 16.5842 11.9538C16.8857 11.8025 17.0365 11.6512 17.338 11.3486C17.4887 11.1973 17.4887 11.1973 17.6395 11.046C17.7903 11.046 17.7903 10.8946 17.941 10.8946C18.2426 10.592 18.5441 10.4407 18.5441 10.4407L18.8456 10.2894C18.8456 10.2894 19.2979 9.98675 19.7502 9.68412C19.901 9.68412 19.901 9.53282 20.0517 9.53282C20.2025 9.53282 20.2025 9.3815 20.3533 9.3815C20.504 9.23018 20.6548 9.23017 20.6548 9.23017L20.3533 8.77625C20.3533 8.77625 20.2025 8.77623 20.0517 8.92755C19.901 8.92755 19.901 9.07887 19.7502 9.07887C19.5994 9.07887 19.5994 9.23017 19.4487 9.23017C19.2979 9.38149 18.9964 9.53281 18.8456 9.68412C18.6949 9.83544 18.5441 9.83545 18.5441 9.83545L18.2426 9.98675C18.2426 9.98675 17.941 10.1381 17.6395 10.4407C17.4887 10.592 17.1872 10.7433 17.0365 10.8946C16.7349 11.046 16.5842 11.1973 16.2826 11.4999C15.8303 11.9538 15.3781 12.2565 15.0765 12.5591C14.775 12.8617 14.4735 13.013 14.4735 13.013L14.3227 13.1644C14.3227 13.1644 14.3227 13.1644 14.1719 13.3157C14.0212 13.467 13.8704 13.6183 13.7197 13.7696C13.5689 13.9209 13.4181 14.0723 13.1166 14.3749C12.9658 14.5262 12.6643 14.8288 12.5135 14.9801C12.0613 15.4341 11.7597 15.888 11.4582 16.342C11.3074 16.4933 11.1567 16.6446 11.1567 16.7959C11.0059 16.9472 11.0059 16.9472 11.0059 16.9472L10.8551 17.2499C10.8551 17.2499 10.7044 17.5525 10.4029 17.8551C10.2521 18.0065 10.1013 18.3091 9.95056 18.4604C9.7998 18.763 9.64904 18.9143 9.49827 19.217C9.19674 19.6709 8.89522 20.2762 8.59369 20.7301C8.44293 21.1841 8.29216 21.3354 8.29216 21.3354C8.29216 21.3354 8.29216 21.3354 8.29216 21.4867V21.638C8.29216 21.638 8.29216 21.7893 8.1414 22.0919C7.99064 22.3946 7.83987 22.6972 7.68911 22.9998C7.53835 23.3025 7.38758 23.6051 7.38758 23.9077C7.38758 24.0591 7.23682 24.0591 7.23682 24.2104V24.3617L7.68911 24.513C7.68911 24.513 7.68911 24.513 7.68911 24.3617C7.68911 24.3617 7.68911 24.2104 7.83987 24.059C7.99063 23.7564 8.1414 23.4538 8.1414 23.1512C8.29216 22.8485 8.44293 22.5459 8.59369 22.2433C8.74445 21.9406 8.74445 21.7893 8.74445 21.7893C8.74445 21.7893 8.74445 21.7893 8.74445 21.638Z" fill="#F5EFDB"/>
<path d="M29.8511 3.78275C30.3034 3.63143 30.6049 3.48011 30.9065 3.3288C31.208 3.02617 31.3588 2.72353 31.5095 2.4209C31.6603 1.66433 31.6603 0.756452 30.9065 -0.00012207C30.9065 -0.00012207 30.9065 0.302507 30.9065 0.756452C30.9065 1.2104 30.7557 1.66434 30.3034 1.96697C29.8511 2.2696 29.2481 2.26959 28.645 2.57222C28.0419 2.87485 27.5897 3.17749 27.5897 3.78275C27.5897 4.69064 27.8912 4.69063 27.7404 5.90114C27.7404 5.90114 27.7404 5.90114 27.8912 5.90114H28.042C28.042 5.74983 28.042 5.4472 28.042 5.14457C28.042 4.84194 28.1927 4.69063 28.4942 4.388C28.645 4.23668 28.7958 4.23669 29.0973 4.08537C29.2481 3.93406 29.5496 3.78275 29.8511 3.78275Z" fill="#F5EFDB"/>
<path d="M28.4941 8.17068C28.7956 8.77595 29.2479 8.92726 29.7002 8.92726C30.1525 8.92726 30.7555 8.92727 31.057 9.07859C31.5093 9.2299 31.6601 9.68384 31.8109 10.1378C31.9616 10.5917 31.9616 10.8944 31.9616 10.8944C32.2631 9.98647 32.2631 9.07857 31.9616 8.47331C31.8109 8.17068 31.5093 7.86805 31.3586 7.71673C31.057 7.56542 30.7555 7.41411 30.3032 7.56543C30.0017 7.56543 29.7002 7.56543 29.5494 7.56543C29.3986 7.56543 29.0971 7.56543 28.9463 7.56543C28.6448 7.41411 28.3433 7.26279 28.3433 7.11148C28.1925 6.80885 28.1925 6.65754 28.0418 6.50623C28.0418 6.50623 28.0418 6.50623 27.891 6.50623H27.7402C28.3433 7.2628 28.1925 7.41411 28.4941 8.17068Z" fill="#F5EFDB"/>
<path d="M24.5747 5.14402C25.027 4.9927 25.3285 4.8414 25.4792 4.53877C25.63 4.38745 25.63 4.23613 25.7808 4.08482C25.7808 3.9335 25.9315 3.7822 25.9315 3.47957C26.0823 2.72299 25.7808 1.8151 24.8762 1.20984C24.8762 1.20984 25.027 1.51247 25.027 1.96641C25.027 2.42036 25.027 2.8743 24.5747 3.32824C24.4239 3.47956 24.1224 3.63088 23.8208 3.78219C23.5193 3.93351 23.2178 4.08483 22.9163 4.23614C22.3132 4.53877 22.0117 4.99272 22.1624 5.74929C22.3132 6.65718 22.6147 6.50585 22.7655 7.71637L23.067 7.56507C23.067 7.41376 23.067 7.11112 22.9163 6.8085C22.9163 6.50586 22.9163 6.35455 23.2178 6.05192C23.5193 5.59797 23.9716 5.29533 24.5747 5.14402Z" fill="#F5EFDB"/>
<path d="M23.9714 9.68491C24.2729 10.2902 24.8759 10.2902 25.3282 10.2902C25.6298 10.2902 25.7805 10.1389 26.0821 10.1389C26.3836 10.1389 26.5343 10.1389 26.6851 10.1389C27.1374 10.2902 27.4389 10.5928 27.5897 11.0468C27.7405 11.5007 27.8912 11.8033 27.8912 11.8033C28.042 10.8954 27.8912 9.98754 27.4389 9.38228C27.2882 9.23096 27.1374 9.07964 27.1374 8.92833C26.9866 8.77701 26.8359 8.77702 26.6851 8.6257C26.3836 8.47439 26.0821 8.47439 25.6298 8.6257C25.0267 8.77702 24.7252 8.92833 24.2729 8.92833C23.9714 8.92833 23.6698 8.77702 23.5191 8.6257C23.3683 8.32307 23.2175 8.17175 23.2175 8.17175L22.916 8.32308C23.6698 8.92834 23.5191 9.07964 23.9714 9.68491Z" fill="#F5EFDB"/>
<path d="M19.1466 3.32898C19.1466 3.32898 19.2974 3.63161 19.4482 4.08556C19.5989 4.53951 19.5989 4.99345 19.2974 5.4474C19.1466 5.59871 18.9959 5.75003 18.6943 5.90135L19.4482 7.41451C20.202 6.96056 20.5035 6.20398 20.5035 5.4474C20.5035 4.69082 20.0512 3.78293 19.1466 3.32898Z" fill="#F5EFDB"/>
<path d="M24.1223 13.3169C24.1223 12.409 23.8208 11.5011 23.2177 11.0472C22.6147 10.4419 22.0116 10.2906 21.2578 10.5932L22.0116 12.1064C22.1624 12.1064 22.4639 11.955 22.6147 11.955C23.067 11.955 23.3685 12.2577 23.67 12.7116C23.9716 12.8629 24.1223 13.3169 24.1223 13.3169Z" fill="#F5EFDB"/>
<path d="M32.5649 63.8549C32.1126 63.8549 31.8111 63.8549 31.8111 63.8549C31.8111 63.8549 31.8111 63.8549 31.6603 63.8549H31.5096C31.5096 63.8549 31.208 63.8549 30.7557 63.7036C30.605 63.7036 30.3035 63.7035 30.0019 63.5522C29.7004 63.5522 29.3989 63.401 29.0974 63.401C28.9466 63.401 28.7958 63.4009 28.6451 63.2496C28.4943 63.2496 28.3435 63.2496 28.1928 63.0983C27.8912 63.0983 27.5897 62.947 27.4389 62.947C27.2882 62.947 26.9867 62.7957 26.9867 62.7957C26.8359 62.7957 26.8359 62.7957 26.8359 62.7957L26.5344 62.6444C26.5344 62.6444 26.5344 62.6444 26.3836 62.6444C26.2328 62.6444 26.0821 62.4931 25.9313 62.4931C25.7805 62.4931 25.479 62.3417 25.1775 62.1904C24.876 62.0391 24.5744 62.0391 24.4237 61.8878C23.8206 61.5852 23.3683 61.4338 22.916 61.2825C22.4637 61.1312 22.1622 60.9799 22.1622 60.9799C22.1622 60.9799 22.1622 60.9799 22.0115 60.9799H21.8607C21.8607 60.9799 21.4084 60.6773 20.9561 60.5259C20.6546 60.3746 20.5038 60.2233 20.3531 60.2233C20.2023 60.072 20.0515 60.072 20.0515 60.072L19.75 60.5259C19.75 60.5259 19.9008 60.526 20.0515 60.6773C20.2023 60.8286 20.5038 60.9799 20.6546 60.9799C21.1069 61.2825 21.5592 61.4338 21.5592 61.4338C21.5592 61.4338 21.5592 61.4338 21.7099 61.4338H21.8607C21.8607 61.4338 22.1622 61.5852 22.6145 61.7365C23.0668 61.8878 23.6699 62.1904 24.1221 62.3417C24.4237 62.4931 24.7252 62.4931 25.0267 62.6444C25.3283 62.7957 25.479 62.7957 25.7805 62.947C26.2328 63.0983 26.5344 63.0983 26.5344 63.0983L26.8359 63.2496C26.8359 63.2496 26.8359 63.2496 26.9867 63.2496C27.1374 63.2496 27.2882 63.401 27.5897 63.401C27.7405 63.401 28.042 63.5522 28.3435 63.5522C28.4943 63.5522 28.6451 63.5522 28.7958 63.7036C28.9466 63.7036 29.0973 63.7036 29.2481 63.8549C29.5496 63.8549 29.8512 64.0062 30.1527 64.0062C30.4542 64.0062 30.7557 64.1575 30.9065 64.1575C31.3588 64.1575 31.6603 64.3088 31.6603 64.3088H31.9619C31.9619 64.3088 32.2634 64.3088 32.7157 64.3088H32.8664V63.7036C32.7157 63.8549 32.5649 63.8549 32.5649 63.8549Z" fill="#F5EFDB"/>
<path d="M32.1129 5.14483C31.8113 5.14483 31.6606 5.14484 31.359 5.29615C31.0575 5.29615 30.756 5.29614 30.4544 5.44745C29.8514 5.59877 29.2483 5.59879 28.7961 5.7501C28.3438 5.90142 28.0422 5.9014 28.0422 5.9014C28.0422 5.9014 28.0422 5.9014 27.8915 5.9014H27.7407C27.7407 5.9014 27.4392 6.05273 26.9869 6.05273C26.8361 6.05273 26.5346 6.20403 26.2331 6.20403C25.9315 6.35534 25.63 6.35536 25.3285 6.50667C25.027 6.65799 24.7254 6.65798 24.4239 6.8093C24.1224 6.96061 23.9716 6.96061 23.6701 7.11192C23.5193 7.26324 23.2178 7.26324 23.2178 7.26324C23.067 7.26324 23.067 7.41455 23.067 7.41455L22.7655 7.56587C22.7655 7.56587 22.6147 7.56586 22.3132 7.71717C22.0117 7.86848 21.7102 8.0198 21.4086 8.17112C21.1071 8.32243 20.8056 8.47375 20.504 8.62506C20.2025 8.77638 20.0518 8.77639 20.0518 8.77639L20.3533 9.23031C20.3533 9.23031 20.504 9.07901 20.6548 9.07901C20.8056 8.9277 21.2579 8.77638 21.5594 8.62506C21.8609 8.47375 22.1624 8.32243 22.464 8.17112C22.7655 8.0198 22.9163 8.01982 22.9163 8.01982L23.2178 7.86849C23.2178 7.86849 23.2178 7.86848 23.3686 7.71717C23.5193 7.71717 23.6701 7.56587 23.8208 7.56587C23.9716 7.41455 24.2731 7.41456 24.5747 7.26324C24.7254 7.26324 24.8762 7.11192 25.027 7.11192C25.1777 7.11192 25.3285 6.9606 25.4792 6.9606C25.7808 6.80928 26.0823 6.80929 26.3838 6.65797C26.6854 6.50666 26.8361 6.50667 27.1376 6.50667C27.5899 6.35536 27.8915 6.35535 27.8915 6.35535C27.8915 6.35535 27.8915 6.35535 28.0422 6.35535H28.193C28.193 6.35535 28.4945 6.35534 28.9468 6.20403C29.3991 6.05271 30.0022 6.05272 30.6052 5.9014C30.9067 5.9014 31.2083 5.7501 31.5098 5.7501C31.8113 5.7501 32.1129 5.75009 32.2636 5.59878H32.4144L32.2636 4.99353C32.1129 5.14484 32.1129 5.14483 32.1129 5.14483Z" fill="#F5EFDB"/>
<path d="M31.208 5.44715C31.208 5.44715 31.9618 4.08533 34.0725 4.08533C36.1832 4.08533 37.5401 4.69058 37.9924 4.69058C38.4447 4.69058 36.0325 4.8419 34.8263 5.59848C33.9218 6.20373 31.3588 6.50635 31.208 5.44715Z" fill="#F5EFDB"/>
<path d="M58.3458 63.2496C57.7428 62.4931 58.0443 62.493 57.1397 61.4338C57.1397 61.4338 57.1397 61.4338 57.2905 61.4338H57.4413C57.592 61.5852 57.7428 61.7365 57.8936 62.0391C58.0443 62.1904 58.3458 62.3417 58.6474 62.3417C58.7981 62.3417 59.0997 62.3417 59.2504 62.1904C59.552 62.0391 59.7027 62.0391 60.0042 61.8878L60.9088 63.2496C60.0042 63.5523 58.9489 64.1575 58.3458 63.2496Z" fill="#F5EFDB"/>
<path d="M56.9885 60.2233C57.1393 60.5259 57.1393 60.6772 57.1393 60.8285C57.1393 60.8285 57.1393 60.8285 56.9885 60.8285H56.8377C56.687 59.7693 56.3855 59.7693 56.2347 59.0127C55.9332 57.9535 56.8377 57.4996 57.29 57.0457L58.1946 58.4075C57.8931 58.5588 57.7423 58.7101 57.5916 58.8614C57.4408 59.0128 57.29 59.1641 57.1393 59.3154C56.9885 59.7693 56.9885 60.0719 56.9885 60.2233Z" fill="#F5EFDB"/>
<path d="M55.1799 64.1576C55.9337 63.855 56.6875 64.1576 57.2906 64.6115C57.8937 65.2168 58.1952 65.9734 58.0444 67.0326C58.0444 67.0326 57.8937 66.73 57.5921 66.276C57.2906 65.9734 56.9891 65.5194 56.386 65.5194C55.4814 65.5194 53.6723 66.4273 53.0692 65.2168C52.6169 64.4602 52.9185 64.3089 52.1646 63.2497L52.4662 63.0984C52.6169 63.2497 52.7677 63.401 52.9185 63.7036C53.0692 64.0063 53.22 64.0063 53.6723 64.1576C53.9738 64.4602 54.5769 64.3089 55.1799 64.1576Z" fill="#F5EFDB"/>
<path d="M51.8629 60.9797C51.8629 60.3745 52.1644 59.9206 52.6167 59.6179C52.7675 59.4666 53.069 59.3153 53.2198 59.164C53.3705 59.0126 53.672 58.8613 53.672 58.71C53.9736 58.4074 53.9736 57.9534 53.8228 57.4995C53.672 57.0455 53.5213 56.7429 53.5213 56.7429C54.2751 57.3482 54.5766 58.1048 54.7274 58.8614C54.7274 59.6179 54.4259 60.3745 53.8228 60.5258C53.2198 60.6771 52.9182 60.9798 52.6167 61.1311C52.3152 61.4337 52.3152 61.585 52.3152 61.8876C52.3152 62.1903 52.3152 62.3416 52.3152 62.4929L52.0136 62.6442C52.1644 61.7363 51.8629 61.7363 51.8629 60.9797Z" fill="#F5EFDB"/>
<path d="M49.903 65.6712C50.3553 65.5199 50.6568 65.6712 51.1091 65.8225C51.4107 65.9738 51.7122 66.2764 52.0137 66.579C52.466 67.1843 52.6168 68.0922 52.3152 69.0001C52.3152 69.0001 52.3152 68.6975 52.0137 68.2435C51.863 67.7896 51.5614 67.4869 50.9584 67.3356C50.6568 67.3356 50.5061 67.3356 50.2046 67.3356C49.903 67.3356 49.6015 67.3356 49.3 67.3356C48.6969 67.3356 48.0939 67.1843 47.9431 66.4278C47.6416 65.5199 47.9431 65.5198 47.4908 64.3093H47.7923C47.7923 64.4606 47.9431 64.612 48.0939 65.0659C48.0939 65.3685 48.3954 65.5199 48.6969 65.6712C48.6969 65.6712 49.3 65.6712 49.903 65.6712Z" fill="#F5EFDB"/>
<path d="M47.1895 61.8886C47.1895 61.2834 47.6418 60.9807 48.0941 60.6781C48.3956 60.5267 48.5464 60.5268 48.8479 60.3755C49.1495 60.2241 49.3002 60.2241 49.451 60.0728C49.7525 59.7702 49.7525 59.3162 49.7525 58.8623C49.7525 58.4083 49.6018 58.1057 49.6018 58.1057C50.2048 58.8623 50.5063 59.7702 50.3556 60.5267C50.3556 60.8294 50.2048 61.2833 50.054 61.586C49.9033 61.8886 49.6018 62.0399 49.1495 62.1912C48.5464 62.3425 48.2449 62.4939 47.9434 62.6452C47.6418 62.7965 47.4911 63.0991 47.4911 63.2505C47.4911 63.5531 47.4911 63.7044 47.4911 63.8557C47.4911 63.8557 47.4911 63.8557 47.3403 63.8557H47.1895C47.3403 62.7965 47.1895 62.6452 47.1895 61.8886Z" fill="#F5EFDB"/>
<path d="M73.271 47.5122C72.3665 47.3609 72.5172 47.0582 71.3111 46.9069L71.4619 46.6043C71.6126 46.6043 71.9142 46.6043 72.2157 46.7556C72.5172 46.7556 72.668 46.7556 72.9695 46.453C73.271 46.1504 73.4218 45.6964 73.7233 45.0912L75.231 45.6964C75.0802 46.1504 74.7787 46.6043 74.4772 46.9069C74.1756 47.3609 73.7233 47.5122 73.271 47.5122Z" fill="#F5EFDB"/>
<path d="M70.4062 45.9992C70.7077 46.1505 70.8585 46.3018 70.8585 46.3018L70.7077 46.6045C69.8031 45.8479 69.6524 46.1505 69.0493 45.5453C68.597 45.2426 68.4463 44.94 68.4463 44.4861C68.4463 44.0321 68.597 43.7295 68.597 43.2755L70.1046 43.8808C69.9539 44.486 69.8031 44.7887 69.8031 45.2426C69.9539 45.5453 70.1047 45.8479 70.4062 45.9992Z" fill="#F5EFDB"/>
<path d="M71.311 50.0851C71.7633 49.3285 72.5171 49.0259 73.2709 49.0259C74.0247 49.0259 74.9293 49.4798 75.3816 50.3877C75.3816 50.3877 75.0801 50.2364 74.6278 50.0851C74.1755 49.9338 73.7232 49.9338 73.2709 50.2364C73.1202 50.3877 72.9694 50.539 72.6679 50.8417C72.5171 51.1443 72.3663 51.2956 72.0648 51.5982C71.6125 52.0522 71.1602 52.3548 70.5572 52.2035C69.8034 51.9009 69.8034 51.5983 68.5973 51.2956L68.748 50.993C68.8988 50.993 69.2003 51.1443 69.5018 51.2956C69.8034 51.4469 69.9541 51.2956 70.2557 51.1443C70.7079 51.1443 71.0095 50.6903 71.311 50.0851Z" fill="#F5EFDB"/>
<path d="M66.7881 49.7831C66.3358 49.3291 66.3358 48.8752 66.4866 48.2699C66.6373 47.9673 66.6374 47.816 66.7881 47.5134C66.9389 47.2107 66.9389 47.0594 66.9389 46.9081C66.9389 46.4541 66.6373 46.1515 66.1851 45.8489C65.8835 45.5462 65.4312 45.3949 65.4312 45.3949C66.3358 45.3949 67.2404 45.6975 67.6927 46.3028C68.2957 46.9081 68.4465 47.5134 68.145 48.2699C67.8435 48.7239 67.6927 49.1778 67.6927 49.4804C67.6927 49.7831 67.6927 50.0857 67.9942 50.237C68.145 50.3883 68.2957 50.5396 68.4465 50.6909L68.2958 50.9936C67.5419 50.237 67.3912 50.3884 66.7881 49.7831Z" fill="#F5EFDB"/>
<path d="M68.2958 54.624C68.8988 54.0187 69.6526 53.7161 70.4065 54.0188C70.8587 54.1701 71.1603 54.3214 71.4618 54.624C71.7633 54.9266 72.0648 55.2293 72.2156 55.8346C72.2156 55.8346 71.9141 55.5319 71.4618 55.3806C71.0095 55.2293 70.5572 55.078 70.1049 55.3806C69.6526 55.6832 69.2003 56.1372 68.748 56.5911C68.2957 57.0451 67.6927 57.1964 67.0896 56.8938C66.3358 56.4398 66.4866 56.2885 65.4312 55.6832L65.582 55.5319C65.7328 55.5319 65.8835 55.6832 66.3358 55.9858C66.7881 55.8345 67.3912 55.6832 68.2958 54.624Z" fill="#F5EFDB"/>
<path d="M63.7727 53.5659C63.3204 52.9606 63.4712 52.5067 63.7727 52.0528C63.9235 51.5988 64.3758 51.1448 64.3758 50.8422C64.3758 50.3883 64.225 49.9343 63.9235 49.6317C63.6219 49.3291 63.3204 49.1777 63.3204 49.1777C63.7727 49.329 64.225 49.4804 64.5265 49.6317C64.828 49.783 65.1296 50.0857 65.4311 50.3883C65.5819 50.6909 65.7326 50.9935 65.7326 51.4475C65.7326 51.7501 65.7326 52.204 65.4311 52.3554C65.1296 52.8093 64.828 53.2633 64.828 53.5659C64.6773 53.8685 64.828 54.1712 64.9788 54.3225C65.1296 54.4738 65.2803 54.7764 65.2803 54.7764L65.1296 54.9277C64.5265 54.0198 64.3758 54.1712 63.7727 53.5659Z" fill="#F5EFDB"/>
<path d="M64.5266 58.5579C64.8281 58.2553 65.1296 58.104 65.5819 58.104C65.8835 58.104 66.3358 58.104 66.6373 58.2553C67.3911 58.5579 67.9942 59.3145 68.1449 60.2224C68.1449 60.2224 67.8434 59.9197 67.5419 59.7684C67.2403 59.4658 66.6373 59.3145 66.185 59.4658C66.0342 59.4658 65.7327 59.6171 65.4312 59.9197C65.1296 60.071 64.8281 60.2224 64.6774 60.3737C64.3758 60.525 64.0743 60.6763 63.7728 60.6763C63.4712 60.6763 63.1697 60.6763 63.019 60.3737C62.4159 59.7684 62.5667 59.6171 61.5113 58.8606L61.8128 58.7092C61.9636 58.8606 62.1144 59.0118 62.4159 59.1632C62.7174 59.4658 63.4712 59.4658 64.5266 58.5579Z" fill="#F5EFDB"/>
<path d="M60.3051 56.7431C60.1544 56.4405 60.1544 56.1378 60.1544 55.9865C60.1544 55.6839 60.3052 55.5326 60.4559 55.3813C60.6067 55.23 60.7574 54.9273 60.9082 54.776C61.059 54.6247 61.2097 54.4734 61.2097 54.1708C61.3605 53.7168 61.2097 53.2629 60.9082 52.9602C60.6067 52.6576 60.4559 52.355 60.4559 52.355C61.3605 52.6576 61.9636 53.2629 62.2651 54.0195C62.4159 54.3221 62.5666 54.776 62.4159 55.0787C62.4159 55.3813 62.2651 55.6839 61.9636 55.9865C61.059 56.7431 60.9082 57.3484 61.059 57.8023C61.2097 58.105 61.2097 58.2563 61.3605 58.4076L61.059 58.5589C60.9082 57.3484 60.6067 57.4997 60.3051 56.7431Z" fill="#F5EFDB"/>
<path d="M63.3208 64.1573C63.3208 64.1573 63.17 63.8547 62.8685 63.552C62.567 63.2494 62.1147 62.9468 61.6624 63.0981C61.5116 63.0981 61.2101 63.2494 60.9086 63.2494L60.004 61.8876C60.3055 61.7363 60.7578 61.585 61.0593 61.585C61.3609 61.585 61.8132 61.7363 62.1147 61.8876C62.8685 62.3416 63.3208 63.0981 63.3208 64.1573Z" fill="#F5EFDB"/>
<path d="M57.2901 54.7759C58.0444 55.2298 58.6478 55.9864 58.7986 56.743C58.9495 57.0456 58.9495 57.4996 58.7986 57.8022C58.6478 58.1048 58.4969 58.4075 58.1952 58.5588L57.2901 57.1969C57.441 57.0456 57.5918 56.8943 57.7427 56.743C57.8935 56.4403 57.8935 55.8351 57.5918 55.5325C57.441 55.0785 57.2901 54.7759 57.2901 54.7759Z" fill="#F5EFDB"/>
<path d="M61.5122 58.2567C61.5122 58.2567 61.5122 58.2568 61.6629 58.1055C61.8137 58.1055 61.9645 57.9541 62.1152 57.8028C62.4168 57.5002 62.869 57.1975 63.3213 56.7436C63.4721 56.5923 63.7736 56.2897 63.9244 56.1383C64.0752 55.987 64.3767 55.6844 64.5275 55.5331C64.6782 55.3818 64.829 55.2305 64.9797 55.0792C65.1305 54.9279 65.1305 54.9278 65.1305 54.9278L65.2813 54.7765C65.2813 54.7765 65.432 54.6252 65.7336 54.1713C66.0351 53.8686 66.4874 53.4147 66.7889 52.9607C66.9397 52.6581 67.0904 52.5068 67.392 52.2042C67.5427 52.0528 67.5427 52.0529 67.6935 51.9016C67.6935 51.7502 67.8442 51.7502 67.8442 51.5989C68.1458 51.2963 68.2965 50.9937 68.2965 50.9937L68.4473 50.691C68.4473 50.691 68.5981 50.3884 68.8996 50.0858C69.0504 49.9344 69.2011 49.6318 69.3519 49.4805C69.5026 49.1779 69.6534 49.0266 69.8042 48.7239C69.8042 48.5726 69.9549 48.4213 69.9549 48.27C69.9549 48.1187 70.1057 47.9674 70.1057 47.816C70.2565 47.5134 70.4072 47.3621 70.4072 47.0595C70.558 46.9081 70.558 46.7569 70.558 46.6055C70.558 46.4542 70.7088 46.4542 70.7088 46.4542L70.8595 46.1516C70.8595 46.1516 70.8595 46.0003 71.0103 45.849C71.161 45.6976 71.1611 45.395 71.3118 45.2437C71.4626 44.9411 71.4626 44.7897 71.6133 44.6384C71.6133 44.4871 71.7641 44.3358 71.7641 44.3358L72.2164 44.4871C72.2164 44.4871 72.2164 44.6384 72.0656 44.7897C72.0656 44.9411 71.9149 45.2437 71.7641 45.5463C71.6133 45.8489 71.6133 46.0003 71.4626 46.1516C71.3118 46.3029 71.3118 46.4542 71.3118 46.4542L71.1611 46.7569C71.1611 46.7569 71.161 46.7568 71.0103 46.9081C71.0103 47.0595 70.8595 47.2108 70.7088 47.3621C70.558 47.5134 70.558 47.8161 70.4072 48.1187C70.4072 48.27 70.2565 48.4213 70.2565 48.5726C70.2565 48.7239 70.1057 48.8753 70.1057 49.0266C69.9549 49.3292 69.8042 49.6318 69.6534 49.7832C69.5027 50.0858 69.3519 50.2371 69.2011 50.3884C69.0504 50.5397 69.0504 50.691 68.8996 50.8423C68.8996 50.9936 68.7488 50.9937 68.7488 50.9937L68.5981 51.2963C68.5981 51.2963 68.4473 51.5989 68.1458 51.9016C67.995 52.0529 67.8443 52.3555 67.6935 52.5068C67.5427 52.8094 67.392 52.9607 67.0904 53.2634C66.6381 53.7173 66.3366 54.1713 66.0351 54.6252C65.7336 54.9278 65.5828 55.2305 65.5828 55.2305L65.432 55.3818C65.432 55.3818 65.432 55.3818 65.2813 55.5331C65.1305 55.6844 64.9797 55.8357 64.829 55.987C64.6782 56.1383 64.5274 56.2897 64.2259 56.5923C64.0752 56.7436 63.7736 57.0463 63.6229 57.1976C63.1706 57.6515 62.7183 57.9541 62.266 58.2567C62.1152 58.4081 61.9645 58.5594 61.8137 58.5594C61.6629 58.7107 61.6629 58.7107 61.6629 58.7107L61.3614 58.862C61.3614 58.862 61.2106 59.0133 61.0599 59.1646C60.9091 59.316 60.6076 59.4673 60.3061 59.7699C59.703 60.2238 59.1 60.5265 59.1 60.5265L58.7984 60.0725C58.7984 60.0725 59.4015 59.7699 60.0045 59.316C60.3061 59.1647 60.6076 59.0133 60.7584 58.7107C60.9091 58.5594 61.0599 58.4081 61.0599 58.4081L61.5122 58.2567Z" fill="#F5EFDB"/>
<path d="M74.4771 25.7237C73.7233 26.1777 73.5725 25.875 72.5172 26.6316L72.3664 26.329C72.5172 26.1777 72.668 26.0263 72.9695 25.875C73.1203 25.7237 73.271 25.5724 73.4218 25.1184C73.4218 24.8158 73.4218 24.2105 73.1203 23.6053L74.6279 23C74.7787 23.454 74.9294 23.9079 74.9294 24.5132C75.231 24.9671 74.9294 25.4211 74.4771 25.7237Z" fill="#F5EFDB"/>
<path d="M71.3119 26.4806C71.6134 26.4806 71.7642 26.4806 71.9149 26.4806L72.0657 26.7832C71.0103 26.7832 71.0103 27.0858 70.1058 27.0858C69.6535 27.0858 69.2012 26.9345 69.0504 26.6319C68.7489 26.3292 68.5981 26.0266 68.4474 25.5727L69.955 24.9674C70.1058 25.5727 70.4073 25.8753 70.5581 26.178C70.8596 26.3293 71.1611 26.4806 71.3119 26.4806Z" fill="#F5EFDB"/>
<path d="M74.7788 28.9018C74.6281 28.4479 74.7788 28.1453 74.9296 27.6913C75.0804 27.3887 75.3819 27.0861 75.6834 26.7834C76.2865 26.3295 77.1911 26.1782 78.0956 26.4808C78.0956 26.4808 77.7941 26.4808 77.3418 26.7834C76.8895 26.9348 76.588 27.2374 76.4372 27.8426C76.4372 28.1453 76.4372 28.2966 76.4372 28.5992C76.4372 28.9018 76.4372 29.2045 76.4372 29.5071C76.4372 30.1124 76.2865 30.7176 75.5326 30.8689C74.6281 31.1716 74.6281 30.8689 73.422 31.3229V31.0202C73.5727 31.0202 73.7235 30.8689 74.1758 30.7176C74.4773 30.7176 74.6281 30.415 74.6281 30.1124C74.9296 30.1124 74.9296 29.5071 74.7788 28.9018Z" fill="#F5EFDB"/>
<path d="M71.1608 31.6254C70.5577 31.6254 70.2562 31.1714 69.9547 30.7175C69.8039 30.4149 69.8039 30.2635 69.6531 29.9609C69.5024 29.6583 69.5024 29.5069 69.3516 29.3556C69.0501 29.053 68.5978 29.053 68.1455 29.053C67.6932 29.053 67.3917 29.2043 67.3917 29.2043C68.1455 28.5991 69.0501 28.2964 69.8039 28.4477C70.2562 28.4477 70.5577 28.5991 70.8593 28.7504C71.1608 28.9017 71.3115 29.2043 71.4623 29.6583C71.6131 30.2635 71.7638 30.5662 71.9146 30.8688C72.0654 31.1714 72.3669 31.3227 72.5177 31.3227C72.8192 31.3227 72.9699 31.3227 73.1207 31.3227C73.1207 31.3227 73.1207 31.3228 73.1207 31.4741V31.6254C71.9146 31.4741 71.9146 31.7767 71.1608 31.6254Z" fill="#F5EFDB"/>
<path d="M75.3816 34.349C75.3816 33.5924 75.8339 32.8359 76.5877 32.5332C77.3416 32.2306 78.2461 32.0793 79 32.6845C79 32.6845 78.6984 32.6845 78.2461 32.8359C77.7938 32.9872 77.3416 33.1385 77.1908 33.7438C77.04 33.8951 77.04 34.1977 77.04 34.5003C77.04 34.8029 76.8893 35.1056 76.8893 35.4082C76.7385 36.0134 76.437 36.6187 75.8339 36.6187C74.9293 36.77 74.9293 36.4674 73.7232 36.77V36.4674C73.874 36.4674 74.1755 36.3161 74.477 36.3161C74.7786 36.3161 74.9293 36.1648 75.0801 35.7108C75.2309 35.5595 75.3816 35.1056 75.3816 34.349Z" fill="#F5EFDB"/>
<path d="M71.1613 36.4667C70.5582 36.3154 70.2567 35.8614 70.1059 35.4075C70.1059 35.1048 69.9551 34.9535 69.9551 34.6509C69.9551 34.3483 69.8044 34.197 69.8044 34.0456C69.6536 33.743 69.0506 33.5917 68.749 33.4404C68.2967 33.4404 67.9952 33.4404 67.9952 33.4404C68.749 32.9864 69.6536 32.8351 70.4074 32.9864C71.1613 33.1377 71.6135 33.743 71.7643 34.4996C71.7643 35.1049 71.9151 35.5588 72.0658 35.8614C72.2166 36.1641 72.3674 36.3154 72.6689 36.4667C72.9704 36.4667 73.1212 36.618 73.272 36.618V36.9206C72.0658 36.3154 72.0659 36.618 71.1613 36.4667Z" fill="#F5EFDB"/>
<path d="M74.9296 39.7953C74.9296 39.3414 75.2311 39.0387 75.3819 38.7361C75.6834 38.4334 75.985 38.2821 76.2865 38.1308C77.0403 37.9795 77.9449 37.9795 78.6987 38.7361C78.6987 38.7361 78.3972 38.7361 77.9449 38.7361C77.4926 38.7361 77.0403 38.8874 76.7388 39.3414C76.4373 39.7953 76.4373 40.4005 76.1357 41.0058C75.8342 41.6111 75.5327 42.065 74.9296 42.065C74.025 42.065 74.025 41.7624 72.8189 41.9137C72.8189 41.9137 72.8189 41.9137 72.8189 41.7624V41.6111C72.9697 41.6111 73.2712 41.6111 73.5728 41.6111C73.8743 41.6111 74.025 41.4598 74.3266 41.1571C74.4773 41.0058 74.4773 40.8545 74.6281 40.5519C74.7789 40.4006 74.9296 40.0979 74.9296 39.7953Z" fill="#F5EFDB"/>
<path d="M70.5581 41.1574C69.955 40.8548 69.8043 40.4008 69.8043 39.9469C69.8043 39.493 69.8043 38.8877 69.6535 38.5851C69.5027 38.1311 69.0504 37.9798 68.5981 37.8285C68.1459 37.6772 67.8443 37.6772 67.8443 37.6772C68.7489 37.3745 69.6535 37.3745 70.2565 37.6772C70.5581 37.8285 70.8596 38.1311 71.0104 38.2824C71.1611 38.5851 71.3119 38.8877 71.1611 39.3416C71.1611 39.6443 71.1611 39.9469 71.1611 40.0982C71.1611 40.2495 71.1611 40.5522 71.1611 40.7035C71.3119 41.0061 71.4627 41.3088 71.6134 41.3088C71.9149 41.4601 72.0657 41.4601 72.2165 41.6114C72.2165 41.6114 72.2165 41.6114 72.2165 41.7627V41.914C71.4627 41.3087 71.3119 41.4601 70.5581 41.1574Z" fill="#F5EFDB"/>
<path d="M77.6431 44.7894C77.6431 44.7894 77.3416 44.6381 76.8893 44.6381C76.437 44.6381 75.9847 44.6381 75.5324 45.0921C75.3816 45.2434 75.2309 45.3947 75.2309 45.6973L73.7232 45.0921C73.874 44.6381 74.0248 44.3355 74.3263 44.1842C74.4771 44.0328 74.6278 44.0328 74.7786 43.8815C74.9293 43.8815 75.0801 43.7302 75.3816 43.7302C76.1354 43.7302 77.04 44.0328 77.6431 44.7894Z" fill="#F5EFDB"/>
<path d="M67.0899 41.613C67.9945 41.4617 68.8991 41.613 69.5021 42.067C69.6529 42.2183 69.8037 42.3696 69.9544 42.3696C70.1052 42.5209 70.1052 42.6722 70.256 42.8235C70.4067 43.1262 70.4067 43.4288 70.256 43.8827L68.7483 43.2775C68.7483 43.1262 68.7483 42.8235 68.7483 42.6722C68.5976 42.2183 68.296 41.9156 67.8438 41.7643C67.3915 41.7643 67.0899 41.613 67.0899 41.613Z" fill="#F5EFDB"/>
<path d="M72.5176 41.46C72.5176 41.46 72.5176 41.1573 72.6684 40.7034C72.8191 40.2495 72.8191 39.6442 72.9699 39.039C72.9699 38.7363 73.1207 38.4337 73.1207 38.1311C73.1207 37.8284 73.1207 37.5258 73.2714 37.3745C73.2714 37.2232 73.2714 36.9205 73.2714 36.7692C73.2714 36.6179 73.2714 36.6179 73.2714 36.6179V36.3153C73.2714 36.3153 73.2714 36.3153 73.2714 36.164C73.2714 36.0126 73.2714 35.8613 73.2714 35.5587C73.2714 35.4074 73.2714 35.1048 73.2714 34.8021C73.2714 34.4995 73.2714 34.1969 73.2714 33.8942C73.2714 33.289 73.2714 32.6837 73.1207 32.2298C73.1207 31.7758 73.1207 31.4732 73.1207 31.4732C73.1207 31.4732 73.1207 31.4732 73.1207 31.3219V31.1706C73.1207 31.1706 73.1207 30.8679 72.9699 30.414C72.9699 30.2627 72.9699 29.96 72.8191 29.6574C72.8191 29.3548 72.6684 29.0522 72.6684 28.7495C72.6684 28.5982 72.6684 28.4469 72.5176 28.2956C72.5176 28.1443 72.5176 27.9929 72.3668 27.8416C72.3668 27.539 72.2161 27.2364 72.2161 27.0851C72.2161 26.9337 72.0653 26.6311 72.0653 26.6311C72.0653 26.4798 72.0653 26.4798 72.0653 26.4798L71.9146 26.1772C71.9146 26.1772 71.9145 26.0258 71.7638 25.8745C71.7638 25.7232 71.7638 25.7232 71.613 25.5719C71.613 25.4206 71.4623 25.2693 71.4623 25.2693C71.3115 24.8153 71.1607 24.3614 71.1607 24.3614L71.613 24.2101C71.613 24.2101 71.7638 24.664 71.9146 25.2693C72.0653 25.5719 72.0653 25.7232 72.0653 26.0259C72.0653 26.1772 72.2161 26.3285 72.2161 26.3285L72.3668 26.6311C72.3668 26.6311 72.3668 26.6311 72.3668 26.7824C72.3668 26.9337 72.5176 27.0851 72.5176 27.3877C72.5176 27.539 72.6684 27.8416 72.6684 28.1443C72.6684 28.2956 72.6684 28.4469 72.8191 28.5982C72.8191 28.7495 72.8191 28.9008 72.9699 29.0522C72.9699 29.3548 73.1207 29.6574 73.1207 29.9601C73.1207 30.2627 73.2714 30.5653 73.2714 30.7166C73.2714 31.1706 73.4222 31.4732 73.4222 31.4732V31.7758C73.4222 31.7758 73.4222 32.0785 73.4222 32.5324C73.4222 32.9863 73.4222 33.5916 73.573 34.1969C73.573 34.4995 73.573 34.8021 73.573 35.1048C73.573 35.4074 73.573 35.71 73.573 35.8613C73.573 36.164 73.573 36.3153 73.573 36.4666C73.573 36.6179 73.573 36.6179 73.573 36.6179V36.9205V37.0719C73.573 37.2232 73.573 37.3745 73.573 37.6771C73.573 37.8284 73.573 38.131 73.4222 38.4337C73.4222 38.7363 73.4222 39.0389 73.2714 39.3416C73.1207 39.9468 73.1207 40.5521 72.9699 41.006C72.8191 41.46 72.8191 41.7626 72.8191 41.7626C72.8191 41.7626 72.8191 41.7626 72.8191 41.9139V42.0653C72.8191 42.0653 72.6684 42.6705 72.5176 43.4271C72.3668 44.0323 72.0653 44.7889 72.0653 44.7889L71.613 44.6376C71.613 44.6376 71.7638 44.0323 72.0653 43.2758C72.2161 42.6705 72.3668 41.9139 72.3668 41.9139C72.3668 41.9139 72.3668 41.7626 72.5176 41.46C72.3668 41.6113 72.5176 41.46 72.5176 41.46Z" fill="#F5EFDB"/>
<path d="M61.6631 8.17101C61.3615 8.92758 61.06 8.92758 60.7585 10.1381L60.457 9.98678C60.457 9.83546 60.6077 9.53283 60.7585 9.2302C60.9092 8.92757 60.7585 8.77626 60.6077 8.47363C60.457 8.171 60.0047 7.86839 59.4016 7.56576L60.1554 6.05261C60.3062 6.20393 60.6077 6.35525 60.7585 6.50656C60.9092 6.65787 61.06 6.80917 61.2108 6.96049C61.6631 7.26311 61.8138 7.71706 61.6631 8.17101Z" fill="#F5EFDB"/>
<path d="M59.703 10.744C59.8537 10.5927 60.0045 10.4414 60.1553 10.29L60.4568 10.4413C59.703 11.1979 59.8537 11.3492 59.2507 11.9545C58.9492 12.2571 58.4969 12.4084 58.0446 12.2571C57.8938 12.2571 57.5923 12.1058 57.4415 12.1058C57.2908 12.1058 57.14 11.9545 56.8385 11.9545L57.5923 10.4413C58.0446 10.744 58.4969 10.8953 58.7984 10.8953C59.2507 11.0466 59.5522 10.8953 59.703 10.744Z" fill="#F5EFDB"/>
<path d="M63.9246 10.4404C63.3215 9.83514 63.02 9.07857 63.3215 8.322C63.4723 7.86805 63.623 7.56543 63.9246 7.2628C64.2261 6.96017 64.5276 6.65754 65.1307 6.50623C65.1307 6.50623 64.8291 6.80886 64.6784 7.2628C64.5276 7.71674 64.3769 8.17068 64.6784 8.62462C64.9799 9.07857 65.4322 9.5325 65.8845 9.98645C66.3368 10.4404 66.4875 11.0457 66.186 11.6509C65.7337 12.4075 65.583 12.2562 64.9799 13.3154L64.8291 13.1641C64.8291 13.0128 64.9799 12.8614 65.2814 12.5588C65.1307 11.9536 64.9799 11.3483 63.9246 10.4404Z" fill="#F5EFDB"/>
<path d="M62.7189 14.9788C62.1159 15.4328 61.6636 15.2815 61.2113 14.9788C60.759 14.8275 60.3067 14.3736 60.0052 14.3736C59.5529 14.3736 59.2513 14.5249 58.7991 14.8275C58.4975 15.1302 58.3468 15.4328 58.3468 15.4328C58.4975 14.9788 58.6483 14.5249 58.7991 14.2223C58.9498 13.9196 59.2513 13.617 59.5529 13.3144C59.8544 13.1631 60.1559 13.0117 60.6082 13.0117C60.9098 13.0117 61.362 13.0117 61.5128 13.3144C61.9651 13.617 62.4174 13.9196 62.7189 13.9196C63.0204 14.0709 63.322 13.9196 63.4727 13.7683C63.6235 13.617 63.925 13.4657 63.925 13.4657L64.0758 13.617C63.322 14.2223 63.4727 14.3736 62.7189 14.9788Z" fill="#F5EFDB"/>
<path d="M67.844 14.2233C67.5424 13.9207 67.3917 13.6181 67.3917 13.1641C67.3917 12.8615 67.3917 12.4076 67.5425 12.1049C67.844 11.3484 68.5978 10.7431 69.5024 10.5918C69.5024 10.5918 69.2008 10.8944 69.0501 11.197C68.7486 11.4997 68.5978 12.105 68.7486 12.5589C68.7486 12.7102 68.8993 13.0128 69.2008 13.3155C69.3516 13.6181 69.5024 13.9207 69.6531 14.072C69.8039 14.3747 69.9547 14.6773 69.9547 14.9799C69.9547 15.2826 69.9547 15.5852 69.6531 15.7365C69.0501 16.3418 68.8993 16.1904 68.1455 17.2496L67.9947 16.947C68.1455 16.7957 68.2963 16.6444 68.447 16.3418C68.7486 16.0391 68.5978 15.2826 67.844 14.2233Z" fill="#F5EFDB"/>
<path d="M65.8844 18.4601C65.5829 18.6114 65.2814 18.6114 65.1306 18.6114C64.8291 18.6114 64.6783 18.4601 64.5276 18.3088C64.3768 18.1575 64.0753 18.0062 63.9245 17.8549C63.7737 17.7035 63.623 17.5522 63.3215 17.5522C62.8692 17.4009 62.4169 17.5522 62.1154 17.8549C61.8138 18.1575 61.5123 18.3088 61.5123 18.3088C61.8138 17.4009 62.4169 16.7957 63.1707 16.493C63.4722 16.3417 63.9245 16.1904 64.226 16.3417C64.5276 16.3417 64.8291 16.493 65.1306 16.7957C65.8844 17.7035 66.4875 17.8549 66.9398 17.7035C67.2413 17.5522 67.3921 17.5522 67.5428 17.4009L67.6936 17.7035C66.6382 17.8549 66.6383 18.1575 65.8844 18.4601Z" fill="#F5EFDB"/>
<path d="M71.0106 18.763C70.8598 18.4604 70.7091 18.0064 70.7091 17.7038C70.7091 17.4012 70.8598 16.9472 71.0106 16.6446C71.4629 16.0393 72.2167 15.4341 73.2721 15.5854C73.2721 15.5854 72.9705 15.7367 72.669 16.0393C72.3675 16.342 72.0659 16.7959 72.2167 17.2499C72.2167 17.7038 72.669 18.3091 72.8198 18.9143C72.9705 19.5196 72.9705 20.1248 72.5182 20.5788C71.7644 21.184 71.7644 20.8814 70.7091 21.7893C70.7091 21.7893 70.7091 21.7893 70.7091 21.638V21.4867C70.8598 21.3354 71.0106 21.184 71.3121 21.0327C71.4629 20.8814 71.6137 20.5788 71.6137 20.2762C71.6137 20.1248 71.6137 19.8222 71.4629 19.6709C71.3121 19.217 71.1614 19.0656 71.0106 18.763Z" fill="#F5EFDB"/>
<path d="M68.4471 22.5454C67.844 22.6967 67.3917 22.3941 67.0902 22.0915C66.7887 21.7888 66.4871 21.1836 66.1856 21.0322C65.8841 20.8809 65.281 20.8809 64.9795 21.1836C64.5272 21.3349 64.2257 21.6375 64.2257 21.6375C64.678 20.8809 65.4318 20.2757 66.1856 20.1244C66.4871 19.973 66.9394 19.973 67.2409 20.1244C67.5425 20.2757 67.844 20.427 67.9948 20.7296C68.1455 21.0322 68.2963 21.1836 68.4471 21.3349C68.5978 21.4862 68.7486 21.6375 68.8994 21.7888C69.2009 21.9401 69.5024 22.0915 69.6532 21.9402C69.9547 21.7888 70.1055 21.7888 70.2562 21.7888C70.2562 21.7888 70.2562 21.7888 70.2562 21.9402V22.0915C69.2009 22.0915 69.2009 22.2428 68.4471 22.5454Z" fill="#F5EFDB"/>
<path d="M76.2868 20.8817C76.2868 20.8817 75.9852 21.033 75.5329 21.3356C75.2314 21.6382 74.7791 21.9408 74.7791 22.5461C74.7791 22.6974 74.7791 23.0001 74.9299 23.3027L73.4222 23.908C73.1207 23.1514 73.4222 22.3948 73.8745 21.7895C74.3268 21.033 75.2314 20.579 76.2868 20.8817Z" fill="#F5EFDB"/>
<path d="M66.0352 25.2696C66.6383 24.513 67.3921 24.2104 68.1459 24.0591C68.8998 24.0591 69.6536 24.3617 69.8043 24.967L68.2967 25.5722C68.1459 25.4209 67.9952 25.2696 67.9952 25.1183C67.6936 24.8157 67.2414 24.8157 66.7891 24.967C66.4875 25.1183 66.0352 25.2696 66.0352 25.2696Z" fill="#F5EFDB"/>
<path d="M70.1062 21.638C70.1062 21.638 69.9555 21.3354 69.8047 21.0327C69.6539 20.5788 69.3524 20.1249 69.0509 19.5196C68.7493 19.0656 68.4478 18.4604 68.1463 18.1578C67.8448 17.8551 67.694 17.5525 67.694 17.5525L67.5432 17.2499C67.5432 17.2499 67.5432 17.2499 67.3925 17.0986C67.2417 16.9473 67.2417 16.7959 67.0909 16.6446C66.7894 16.342 66.4879 15.888 66.0356 15.4341C65.8848 15.2828 65.5833 14.9802 65.4325 14.8288C65.2818 14.6775 64.9802 14.3749 64.8295 14.2236C64.6787 14.0723 64.528 13.9209 64.3772 13.7696C64.2264 13.6183 64.2264 13.6183 64.2264 13.6183L64.0757 13.467C64.0757 13.467 63.9249 13.3157 63.4726 13.013C63.1711 12.7104 62.7188 12.2565 62.2665 11.9538C61.965 11.8025 61.8142 11.6512 61.5127 11.3486C61.3619 11.1973 61.3619 11.1973 61.2112 11.046C61.0604 11.046 61.0604 10.8946 60.9096 10.8946C60.6081 10.592 60.3066 10.4407 60.3066 10.4407L60.0051 10.2894C60.0051 10.2894 59.5528 9.98675 59.1005 9.68412C58.9497 9.68412 58.9497 9.53282 58.7989 9.53282C58.6482 9.53282 58.6482 9.3815 58.4974 9.3815C58.3467 9.23018 58.1959 9.23017 58.1959 9.23017L58.4974 8.77625C58.4974 8.77625 58.6482 8.77623 58.7989 8.92755C58.9497 8.92755 58.9497 9.07887 59.1005 9.07887C59.2512 9.07887 59.2512 9.23017 59.402 9.23017C59.5528 9.38149 59.8543 9.53281 60.0051 9.68412C60.1558 9.83544 60.3066 9.83545 60.3066 9.83545L60.6081 9.98675C60.6081 9.98675 60.9096 10.1381 61.2112 10.4407C61.3619 10.592 61.6634 10.7433 61.8142 10.8946C62.1157 11.046 62.2665 11.1973 62.568 11.4999C63.0203 11.9538 63.4726 12.2565 63.7741 12.5591C64.0757 12.8617 64.3772 13.013 64.3772 13.013L64.528 13.1644C64.528 13.1644 64.528 13.1644 64.6787 13.3157C64.8295 13.467 64.9803 13.6183 65.131 13.7696C65.2818 13.9209 65.4325 14.0723 65.7341 14.3749C65.8848 14.5262 66.1864 14.8288 66.3371 14.9801C66.7894 15.4341 67.0909 15.888 67.3925 16.342C67.5432 16.4933 67.694 16.6446 67.694 16.7959C67.8448 16.9472 67.8448 16.9472 67.8448 16.9472L67.9955 17.2499C67.9955 17.2499 68.1463 17.5525 68.4478 17.8551C68.5986 18.0065 68.7493 18.3091 68.9001 18.4604C69.0509 18.763 69.2016 18.9143 69.3524 19.217C69.6539 19.6709 69.9554 20.2762 70.257 20.7301C70.4077 21.1841 70.5585 21.3354 70.5585 21.3354C70.5585 21.3354 70.5585 21.3354 70.5585 21.4867V21.638C70.5585 21.638 70.5585 21.7893 70.7093 22.0919C70.86 22.3946 71.0108 22.6972 71.1616 22.9998C71.3123 23.3025 71.4631 23.6051 71.4631 23.9077C71.4631 24.0591 71.6138 24.0591 71.6138 24.2104V24.3617L71.1616 24.513C71.1616 24.513 71.1616 24.513 71.1616 24.3617C71.1616 24.3617 71.1616 24.2104 71.0108 24.059C70.86 23.7564 70.7093 23.4538 70.7093 23.1512C70.5585 22.8485 70.4077 22.5459 70.257 22.2433C70.1062 21.9406 70.1062 21.7893 70.1062 21.7893C70.1062 21.7893 70.257 21.7893 70.1062 21.638Z" fill="#F5EFDB"/>
<path d="M49.1491 3.78275C48.6968 3.63143 48.3953 3.48011 48.0938 3.3288C47.7922 3.02617 47.6415 2.72353 47.4907 2.4209C47.3399 1.66433 47.3399 0.756452 48.0938 -0.00012207C48.0938 -0.00012207 48.0938 0.302507 48.0938 0.756452C48.0938 1.2104 48.2445 1.66434 48.6968 1.96697C49.1491 2.2696 49.7522 2.26959 50.3552 2.57222C50.9583 2.87485 51.4106 3.17749 51.4106 3.78275C51.4106 4.69064 51.109 4.69063 51.2598 5.90114C51.2598 5.90114 51.2598 5.90114 51.109 5.90114H50.9583C50.9583 5.74983 50.9583 5.4472 50.9583 5.14457C50.9583 4.84194 50.8075 4.69063 50.506 4.388C50.3552 4.23668 50.2045 4.23669 49.9029 4.08537C49.7522 3.93406 49.4506 3.78275 49.1491 3.78275Z" fill="#F5EFDB"/>
<path d="M50.3554 8.17068C50.0539 8.77595 49.6016 8.92726 49.1493 8.92726C48.697 8.92726 48.094 8.92727 47.7924 9.07859C47.3401 9.2299 47.1894 9.68384 47.0386 10.1378C46.8879 10.5917 46.8879 10.8944 46.8879 10.8944C46.5863 9.98647 46.5863 9.07857 46.8879 8.47331C47.0386 8.17068 47.3401 7.86805 47.4909 7.71673C47.7924 7.56542 48.094 7.41411 48.5463 7.56543C48.8478 7.56543 49.1493 7.56543 49.3001 7.56543C49.4508 7.56543 49.7524 7.56543 49.9031 7.56543C50.2047 7.41411 50.5062 7.26279 50.5062 7.11148C50.6569 6.80885 50.6569 6.65754 50.8077 6.50623C50.8077 6.50623 50.8077 6.50623 50.9585 6.50623H51.1092C50.5062 7.2628 50.8077 7.41411 50.3554 8.17068Z" fill="#F5EFDB"/>
<path d="M54.4257 5.14402C53.9734 4.9927 53.6719 4.8414 53.5211 4.53877C53.3704 4.38745 53.3704 4.23613 53.2196 4.08482C53.2196 3.9335 53.0688 3.7822 53.0688 3.47957C52.9181 2.72299 53.2196 1.8151 54.1242 1.20984C54.1242 1.20984 53.9734 1.51247 53.9734 1.96641C53.9734 2.42036 53.9734 2.8743 54.4257 3.32824C54.5765 3.47956 54.878 3.63088 55.1795 3.78219C55.4811 3.93351 55.7826 4.08483 56.0841 4.23614C56.6872 4.53877 56.9887 4.99272 56.8379 5.74929C56.6872 6.65718 56.3857 6.50585 56.2349 7.71637L55.9334 7.56507C55.9334 7.41376 55.9334 7.11112 56.0841 6.8085C56.0841 6.50586 56.0841 6.35455 55.7826 6.05192C55.4811 5.59797 55.0288 5.29533 54.4257 5.14402Z" fill="#F5EFDB"/>
<path d="M54.8783 9.68491C54.5768 10.2902 53.9737 10.2902 53.5215 10.2902C53.2199 10.2902 53.0692 10.1389 52.7676 10.1389C52.4661 10.1389 52.3153 10.1389 52.1646 10.1389C51.7123 10.2902 51.4108 10.5928 51.26 11.0468C51.1092 11.5007 50.9585 11.8033 50.9585 11.8033C50.8077 10.8954 50.9585 9.98754 51.4108 9.38228C51.5615 9.23096 51.7123 9.07964 51.7123 8.92833C51.8631 8.77701 52.0138 8.77702 52.1646 8.6257C52.4661 8.47439 52.7676 8.47439 53.2199 8.6257C53.823 8.77702 54.1245 8.92833 54.5768 8.92833C54.8783 8.92833 55.1799 8.77702 55.3306 8.6257C55.4814 8.32307 55.6321 8.17175 55.6321 8.17175L55.9337 8.32308C55.1799 8.92834 55.3306 9.07964 54.8783 9.68491Z" fill="#F5EFDB"/>
<path d="M59.8534 3.32898C59.8534 3.32898 59.7027 3.63161 59.5519 4.08556C59.4011 4.53951 59.4011 4.99345 59.7027 5.4474C59.8534 5.59871 60.0042 5.75003 60.1549 5.90135L59.4011 7.41451C58.6473 6.96056 58.3458 6.20398 58.3458 5.4474C58.4966 4.69082 58.9488 3.78293 59.8534 3.32898Z" fill="#F5EFDB"/>
<path d="M54.8785 13.3169C54.8785 12.409 55.18 11.5011 55.7831 11.0472C56.3861 10.4419 56.9892 10.2906 57.743 10.5932L56.9892 12.1064C56.8384 12.1064 56.5369 11.955 56.3861 11.955C55.9339 11.955 55.6323 12.2577 55.3308 12.7116C55.0293 12.8629 54.8785 13.3169 54.8785 13.3169Z" fill="#F5EFDB"/>
<path d="M46.4354 63.8549C46.8877 63.8549 47.1892 63.8549 47.1892 63.8549C47.1892 63.8549 47.1892 63.8549 47.34 63.8549H47.4907C47.4907 63.8549 47.7923 63.8549 48.2446 63.7036C48.3953 63.7036 48.6969 63.7035 48.9984 63.5522C49.2999 63.5522 49.6014 63.401 49.903 63.401C50.0537 63.401 50.2045 63.4009 50.3553 63.2496C50.506 63.2496 50.6568 63.2496 50.8076 63.0983C51.1091 63.0983 51.4106 62.947 51.5614 62.947C51.7121 62.947 52.0137 62.7957 52.0137 62.7957C52.1644 62.7957 52.1644 62.7957 52.1644 62.7957L52.466 62.6444C52.466 62.6444 52.466 62.6444 52.6167 62.6444C52.7675 62.6444 52.9182 62.4931 53.069 62.4931C53.2198 62.4931 53.5213 62.3417 53.8228 62.1904C54.1244 62.0391 54.4259 62.0391 54.5766 61.8878C55.1797 61.5852 55.632 61.4338 56.0843 61.2825C56.5366 61.1312 56.8381 60.9799 56.8381 60.9799C56.8381 60.9799 56.8381 60.9799 56.9889 60.9799H57.1396C57.1396 60.9799 57.5919 60.6773 58.0442 60.5259C58.3457 60.3746 58.4965 60.2233 58.6473 60.2233C58.798 60.072 58.9488 60.072 58.9488 60.072L59.2503 60.5259C59.2503 60.5259 59.0996 60.526 58.9488 60.6773C58.798 60.8286 58.4965 60.9799 58.3457 60.9799C57.8934 61.2825 57.4412 61.4338 57.4412 61.4338C57.4412 61.4338 57.4412 61.4338 57.2904 61.4338H57.1396C57.1396 61.4338 56.8381 61.5852 56.3858 61.7365C55.9335 61.8878 55.3305 62.1904 54.8782 62.3417C54.5766 62.4931 54.2751 62.4931 53.9736 62.6444C53.6721 62.7957 53.5213 62.7957 53.2198 62.947C52.7675 63.0983 52.466 63.0983 52.466 63.0983L52.1644 63.2496C52.1644 63.2496 52.1644 63.2496 52.0137 63.2496C51.8629 63.2496 51.7121 63.401 51.4106 63.401C51.2598 63.401 50.9583 63.5522 50.6568 63.5522C50.506 63.5522 50.3553 63.5522 50.2045 63.7036C50.0537 63.7036 49.903 63.7036 49.7522 63.8549C49.4507 63.8549 49.1492 64.0062 48.8476 64.0062C48.5461 64.0062 48.2446 64.1575 48.0938 64.1575C47.6415 64.1575 47.34 64.3088 47.34 64.3088H47.0385C47.0385 64.3088 46.7369 64.3088 46.2846 64.3088H46.1339V63.7036C46.2846 63.8549 46.4354 63.8549 46.4354 63.8549Z" fill="#F5EFDB"/>
<path d="M46.888 5.14483C47.1896 5.14483 47.3403 5.14484 47.6419 5.29615C47.9434 5.29615 48.2449 5.29614 48.5464 5.44745C49.1495 5.59877 49.7526 5.59879 50.2048 5.7501C50.6571 5.90142 50.9587 5.9014 50.9587 5.9014C50.9587 5.9014 50.9587 5.9014 51.1094 5.9014H51.2602C51.2602 5.9014 51.5617 6.05273 52.014 6.05273C52.1648 6.05273 52.4663 6.20403 52.7678 6.20403C53.0694 6.35534 53.3709 6.35536 53.6724 6.50667C53.9739 6.65799 54.2755 6.65798 54.577 6.8093C54.8785 6.96061 55.0293 6.96061 55.3308 7.11192C55.4816 7.26324 55.7831 7.26324 55.7831 7.26324C55.9339 7.26324 55.9339 7.41455 55.9339 7.41455L56.2354 7.56587C56.2354 7.56587 56.3862 7.56586 56.6877 7.71717C56.9892 7.86848 57.2907 8.0198 57.5923 8.17112C57.8938 8.32243 58.1953 8.47375 58.4969 8.62506C58.7984 8.77638 58.9491 8.77639 58.9491 8.77639L58.6476 9.23031C58.6476 9.23031 58.4968 9.07901 58.3461 9.07901C58.1953 8.9277 57.743 8.77638 57.4415 8.62506C57.14 8.47375 56.8384 8.32243 56.5369 8.17112C56.2354 8.0198 56.0846 8.01982 56.0846 8.01982L55.7831 7.86849C55.7831 7.86849 55.7831 7.86848 55.6323 7.71717C55.4816 7.71717 55.3308 7.56587 55.18 7.56587C55.0293 7.41455 54.7278 7.41456 54.4262 7.26324C54.2755 7.26324 54.1247 7.11192 53.9739 7.11192C53.8232 7.11192 53.6724 6.9606 53.5216 6.9606C53.2201 6.80928 52.9186 6.80929 52.6171 6.65797C52.3155 6.50666 52.1648 6.50667 51.8632 6.50667C51.411 6.35536 51.1094 6.35535 51.1094 6.35535C51.1094 6.35535 51.1094 6.35535 50.9587 6.35535H50.8079C50.8079 6.35535 50.5064 6.35534 50.0541 6.20403C49.6018 6.05271 48.9987 6.05272 48.3957 5.9014C48.0942 5.9014 47.7926 5.7501 47.4911 5.7501C47.1896 5.7501 46.888 5.75009 46.7373 5.59878H46.5865L46.7373 4.99353C46.7373 5.14484 46.888 5.14483 46.888 5.14483Z" fill="#F5EFDB"/>
<path d="M47.7924 5.44715C47.7924 5.44715 47.0385 4.08533 44.9278 4.08533C42.8172 4.08533 41.4603 4.69058 41.008 4.69058C40.5557 4.69058 42.9679 4.8419 44.174 5.59848C45.0786 6.20373 47.6416 6.50635 47.7924 5.44715Z" fill="#F5EFDB"/>
<path d="M39.3495 64.4594C36.1835 64.4594 33.4697 64.0055 30.3037 63.7029V64.1568C33.1682 64.6108 36.1835 64.9134 39.3495 64.9134C42.3648 64.9134 45.2293 64.6108 48.0938 64.1568L46.2847 63.8542C43.4201 64.4595 42.3648 64.4594 39.3495 64.4594Z" fill="#F5EFDB"/>
<path d="M38.2 31.1649C40.93 31.1649 43.075 31.9299 44.635 33.4599C46.225 34.9599 47.02 37.1049 47.02 39.8949C47.02 41.8449 46.615 43.5099 45.805 44.8899C45.025 46.2399 43.945 47.2749 42.565 47.9949C41.185 48.6849 39.64 49.0299 37.93 49.0299C36.52 49.0299 35.26 48.7599 34.15 48.2199C33.04 47.6499 32.005 46.7949 31.045 45.6549L31 45.5649C31 45.4449 31.06 45.3549 31.18 45.2949C31.3 45.2049 31.39 45.2049 31.45 45.2949C32.08 45.9849 32.845 46.5099 33.745 46.8699C34.675 47.2299 35.635 47.4099 36.625 47.4099C38.635 47.4099 40.135 46.7799 41.125 45.5199C42.115 44.2299 42.61 42.5199 42.61 40.3899C42.61 38.0499 42.07 36.1749 40.99 34.7649C39.91 33.3549 38.29 32.6499 36.13 32.6499C35.2 32.6499 34.375 32.7399 33.655 32.9199C32.935 33.0999 32.53 33.2049 32.44 33.2349C32.29 33.2349 32.17 33.1899 32.08 33.0999C31.99 32.9799 31.96 32.8449 31.99 32.6949L33.43 20.9049C33.46 20.6949 33.505 20.5599 33.565 20.4999C33.625 20.4099 33.775 20.3649 34.015 20.3649C38.095 20.3649 40.795 20.3499 42.115 20.3199C43.465 20.2599 44.35 20.1549 44.77 20.0049C45.19 19.8549 45.52 19.5399 45.76 19.0599C45.79 18.9999 45.88 18.9849 46.03 19.0149C46.18 19.0149 46.24 19.0749 46.21 19.1949L45.535 23.5149C45.445 23.8749 45.325 24.1149 45.175 24.2349C45.055 24.3249 44.8 24.3699 44.41 24.3699L34.96 24.1449C34.57 24.1449 34.33 24.3549 34.24 24.7749L33.385 31.9749C35.005 31.4349 36.61 31.1649 38.2 31.1649Z" fill="#AAAAAA"/>
</svg>
