<svg width="146" height="146" viewBox="0 0 146 146" fill="none" xmlns="http://www.w3.org/2000/svg">
<path d="M97.7797 63.5029C102.306 58.9334 103.438 52.6418 100.304 49.4776C97.1697 46.3134 90.9383 47.4566 86.4125 52.0261C82.1316 56.3482 80.8892 62.2096 83.4194 65.5092L77.512 71.4735L76.3165 70.2664L48.0842 98.7709L51.4808 102.2L79.7132 73.6956L78.5178 72.4887L84.4251 66.5244C87.6934 69.0791 93.4988 67.825 97.7797 63.5029ZM77.6176 73.7812L51.5657 100.084L50.1804 98.6856L76.2323 72.3826L77.6176 73.7812ZM84.9784 64.9506C82.3991 62.3465 83.4938 57.004 87.4185 53.0415C91.3431 49.079 96.6346 47.9737 99.2139 50.5779C101.793 53.1822 100.699 58.5248 96.7741 62.4873C92.8494 66.4498 87.5578 67.5549 84.9784 64.9506Z" fill="white"/>
<path d="M60.0731 52.0219C55.5536 47.4461 49.3307 46.3015 46.2011 49.4701C43.0714 52.6386 44.2021 58.9387 48.7217 63.5145C52.9966 67.8426 58.794 69.0987 62.0576 66.5405L67.9567 72.513L66.7628 73.7218L94.9559 102.265L98.3478 98.8313L70.1545 70.2876L68.9608 71.4962L63.0616 65.5237C65.5885 62.2194 64.3481 56.35 60.0731 52.0219ZM70.2392 72.4063L96.2549 98.7455L94.8715 100.146L68.8558 73.8069L70.2392 72.4063ZM61.5051 64.9643C58.9293 67.5721 53.6452 66.4653 49.726 62.4974C45.8068 58.5294 44.7136 53.1796 47.2893 50.5719C49.8652 47.964 55.1494 49.0706 59.0686 53.0386C62.9878 57.0065 64.0809 62.3565 61.5051 64.9643Z" fill="white"/>
<path d="M72.1032 12.1221C71.7454 12.1221 71.3429 12.1029 70.8957 12.0645C70.7168 12.0517 70.4995 12.0389 70.244 12.0261C69.9884 12.0132 69.7009 12.0068 69.3814 12.0068L67.963 12.0261C67.733 12.0389 67.4072 12.0453 66.9855 12.0453C66.9599 12.0453 66.9471 12.0068 66.9471 11.93C66.9471 11.8532 66.9599 11.8147 66.9855 11.8147C67.3816 11.8147 67.6691 11.7827 67.848 11.7187C68.0269 11.6546 68.1483 11.533 68.2122 11.3537C68.2889 11.1616 68.3208 10.8734 68.308 10.4892V1.59451C68.2825 1.21029 68.2314 0.92853 68.1547 0.749228C68.0908 0.569925 67.9694 0.448255 67.7905 0.384219C67.6116 0.307375 67.3433 0.268953 66.9855 0.268953C66.9599 0.268953 66.9471 0.230531 66.9471 0.153688C66.9471 0.0768443 66.9599 0.0384225 66.9855 0.0384225L67.963 0.0576333C68.5253 0.0832475 68.9853 0.0960547 69.3431 0.0960547C69.7648 0.0960547 70.1865 0.076844 70.6081 0.0384225C71.1448 0.0128075 71.541 0 71.7965 0C73.1383 0 74.3267 0.249743 75.3617 0.749228C76.3967 1.2359 77.2018 1.9211 77.7768 2.8048C78.3518 3.6885 78.6394 4.70028 78.6394 5.84013C78.6394 7.06963 78.3327 8.16465 77.7193 9.1252C77.1187 10.0729 76.3201 10.8094 75.3234 11.3345C74.3267 11.8596 73.2533 12.1221 72.1032 12.1221ZM71.9307 11.7379C72.8252 11.7379 73.6047 11.5266 74.2691 11.1039C74.9336 10.6685 75.4448 10.0409 75.8026 9.22126C76.1731 8.40159 76.3584 7.41543 76.3584 6.26277C76.3584 5.27661 76.1987 4.34167 75.8792 3.45797C75.5598 2.56146 75.0486 1.82504 74.3458 1.24871C73.6558 0.672383 72.7741 0.384219 71.7007 0.384219C71.1896 0.384219 70.8445 0.480274 70.6656 0.672384C70.4868 0.851686 70.3973 1.17187 70.3973 1.63293V10.2779C70.4101 10.803 70.5187 11.1808 70.7232 11.4113C70.9404 11.629 71.3429 11.7379 71.9307 11.7379Z" fill="#DCCA87"/>
<path d="M95.0939 12.861C95.1256 12.8437 95.1599 12.8404 95.1966 12.8512C95.2334 12.8621 95.2666 12.8852 95.2962 12.9206C95.3294 12.9437 95.338 12.9596 95.3222 12.9683C94.9656 13.7309 94.6487 14.5854 94.3714 15.5316C94.3426 15.6299 94.3027 15.6982 94.2515 15.7366C94.2039 15.7626 94.1249 15.7594 94.0146 15.7269L85.6282 13.2589C85.5792 13.2444 85.5655 13.2004 85.5871 13.1266C85.6087 13.0529 85.6378 13.0214 85.6746 13.0323C86.0425 13.1405 86.3151 13.1874 86.4924 13.1728C86.6821 13.1619 86.8266 13.0776 86.9261 12.92C87.0378 12.766 87.1495 12.4986 87.2611 12.1176L89.7613 3.58325C89.8693 3.2146 89.9179 2.93523 89.907 2.74515C89.8961 2.55507 89.8138 2.40405 89.6601 2.29209C89.5101 2.16784 89.2634 2.0552 88.9201 1.95417C88.8833 1.94335 88.8696 1.89927 88.8789 1.82193C88.9005 1.7482 88.9236 1.71494 88.9481 1.72216L96.8747 4.05488C96.9728 4.08375 97.0056 4.15348 96.9732 4.26407L96.2972 6.70802C96.2864 6.74489 96.2442 6.7525 96.1706 6.73085C96.1093 6.71281 96.0762 6.68969 96.0711 6.66151C96.0643 5.91201 95.8426 5.25946 95.4061 4.70386C94.9854 4.13957 94.4011 3.74738 93.6532 3.52728L93.3038 3.42445C92.9237 3.31259 92.6388 3.26213 92.4492 3.27305C92.2754 3.2753 92.1424 3.34294 92.0501 3.47597C91.9579 3.609 91.8552 3.84575 91.7422 4.18622L90.6405 7.9465L92.9394 8.62305C93.5647 8.80707 94.0569 8.83178 94.416 8.69718C94.775 8.56259 95.0265 8.24952 95.1706 7.75798C95.185 7.70882 95.2351 7.69688 95.3209 7.72213C95.4067 7.74739 95.4406 7.79074 95.4226 7.85218L95.1072 8.86057C95.0518 9.00443 94.9844 9.21153 94.9052 9.48188C94.79 9.87511 94.7098 10.1718 94.6644 10.3721L94.3912 11.3728C94.3732 11.4343 94.3274 11.4542 94.2539 11.4325C94.2171 11.4217 94.1821 11.4047 94.1489 11.3816C94.1316 11.3498 94.1265 11.3216 94.1337 11.2971C94.2885 10.7687 94.24 10.3206 93.9882 9.95281C93.7522 9.57636 93.3399 9.30153 92.7514 9.12834L90.4893 8.46262L89.2689 12.6284C89.1249 13.12 89.1049 13.4611 89.2088 13.6519C89.325 13.8462 89.6283 14.0156 90.1187 14.1599L90.6337 14.3115C91.4306 14.546 92.2267 14.5334 93.022 14.2735C93.8209 14.0014 94.5115 13.5306 95.0939 12.861Z" fill="#DCCA87"/>
<path d="M102.323 19.5827C102.301 19.5689 102.311 19.5296 102.352 19.465C102.394 19.4003 102.425 19.3749 102.447 19.3888C102.78 19.6034 103.039 19.7323 103.224 19.7754C103.409 19.8184 103.572 19.7784 103.711 19.6552C103.862 19.539 104.044 19.3139 104.258 18.9799L109.056 11.4972C109.264 11.174 109.389 10.9197 109.432 10.7342C109.475 10.5488 109.438 10.3806 109.322 10.2298C109.213 10.0682 109.008 9.89051 108.707 9.69663C108.675 9.67586 108.68 9.63315 108.721 9.5685C108.762 9.50386 108.799 9.48192 108.832 9.50269L109.595 10.0174C110.054 10.3436 110.429 10.6002 110.719 10.7871C111.01 10.9741 111.409 11.216 111.917 11.513L112.75 12.0265C112.771 12.0404 112.761 12.0796 112.72 12.1443C112.678 12.2089 112.647 12.2343 112.625 12.2205C112.292 12.0058 112.03 11.8824 111.838 11.8501C111.663 11.8139 111.501 11.854 111.351 11.9702C111.211 12.0933 111.029 12.3184 110.804 12.6455L106.057 20.0474C105.788 20.4676 105.668 20.7858 105.696 21.002C105.731 21.2075 105.916 21.4175 106.249 21.6322L106.7 21.923C107.571 22.4838 108.421 22.7573 109.25 22.7433C110.097 22.7255 110.964 22.416 111.851 21.8149C111.886 21.8072 111.92 21.8138 111.952 21.8345C111.984 21.8553 112.01 21.8868 112.028 21.9292C112.053 21.9607 112.059 21.9873 112.045 22.0088C111.393 22.8369 110.821 23.6334 110.331 24.3984C110.227 24.56 110.095 24.5889 109.933 24.485L102.323 19.5827Z" fill="#DCCA87"/>
<path d="M117.46 31.6165C117.443 31.5972 117.464 31.5623 117.522 31.512C117.579 31.4617 117.617 31.4462 117.634 31.4656C117.893 31.7656 118.101 31.9576 118.258 32.0415C118.424 32.1351 118.595 32.1473 118.772 32.0783C118.949 32.0093 119.187 31.8448 119.487 31.5848L126.194 25.76C126.474 25.5168 126.656 25.3074 126.741 25.1319C126.844 24.9577 126.861 24.7819 126.792 24.6045C126.733 24.4187 126.582 24.1854 126.34 23.9047C126.323 23.8853 126.339 23.8457 126.389 23.7857C126.447 23.7353 126.488 23.7247 126.513 23.7537L127.127 24.4922C127.475 24.9349 127.763 25.2869 127.989 25.5482C128.24 25.8386 128.567 26.198 128.972 26.6265L129.601 27.3253C129.618 27.3447 129.597 27.3795 129.539 27.4298C129.481 27.4802 129.444 27.4956 129.427 27.4763C129.176 27.1859 128.963 26.9981 128.788 26.9129C128.613 26.8278 128.437 26.8197 128.26 26.8887C128.091 26.9674 127.853 27.1319 127.545 27.3822L120.867 33.1818C120.578 33.4335 120.386 33.6422 120.293 33.808C120.208 33.9835 120.195 34.1641 120.254 34.35C120.323 34.5274 120.479 34.7565 120.721 35.0372C120.738 35.0565 120.718 35.0914 120.66 35.1417C120.602 35.192 120.564 35.2075 120.548 35.1881C120.288 34.8881 120.084 34.6419 119.934 34.4496L119.033 33.3772L118.127 32.3589C117.958 32.1834 117.736 31.936 117.46 31.6165Z" fill="#DCCA87"/>
<path d="M128.319 48.7326C127.73 47.4395 127.467 46.2008 127.532 45.0168C127.602 43.8444 127.959 42.8082 128.602 41.9082C129.257 41.0029 130.131 40.3002 131.224 39.8001C132.281 39.3159 133.356 39.1619 134.448 39.3381C135.551 39.5089 136.556 39.9713 137.461 40.7255C138.378 41.4743 139.108 42.4428 139.649 43.6311C139.899 44.1787 140.101 44.7618 140.257 45.3805C140.424 45.9939 140.512 46.4957 140.521 46.8857C140.517 47.0002 140.497 47.0797 140.461 47.1243C140.425 47.1689 140.346 47.2263 140.223 47.2964L138.003 48.4817C137.957 48.503 137.914 48.4871 137.876 48.4342C137.838 48.3813 137.831 48.3352 137.855 48.2959C138.553 47.4838 138.994 46.634 139.18 45.7465C139.377 44.8537 139.277 43.9704 138.879 43.0967C138.364 41.9666 137.562 41.2706 136.473 41.0086C135.396 40.7413 134.172 40.9216 132.8 41.5494C131.603 42.0974 130.641 42.7912 129.914 43.6309C129.187 44.4706 128.738 45.366 128.567 46.3171C128.402 47.2798 128.529 48.2213 128.948 49.1417C129.139 49.5611 129.343 49.8548 129.56 50.023C129.789 50.1858 130.061 50.2442 130.378 50.198C130.711 50.1582 131.15 50.0133 131.697 49.7632C132.266 49.5025 132.655 49.2612 132.863 49.0393C133.071 48.8174 133.152 48.5481 133.106 48.2312C133.06 47.9144 132.896 47.4472 132.615 46.8298C132.583 46.7599 132.613 46.7037 132.706 46.6611C132.741 46.6451 132.773 46.6377 132.801 46.6387C132.847 46.646 132.875 46.6613 132.886 46.6846C133.268 47.6782 133.605 48.4953 133.897 49.1361C134.173 49.7419 134.477 50.363 134.81 50.9994C134.831 51.046 134.803 51.0938 134.727 51.1427C134.651 51.1915 134.603 51.1927 134.581 51.1461C134.508 50.9544 134.408 50.8592 134.283 50.8604C134.157 50.8617 133.908 50.9475 133.536 51.1177L132.35 51.6604C131.827 51.8998 131.469 52.0849 131.276 52.2156C131.082 52.3463 130.945 52.4303 130.864 52.4676C130.794 52.4995 130.742 52.5091 130.708 52.4964C130.68 52.4954 130.638 52.4653 130.583 52.406C129.578 51.0638 128.823 49.8393 128.319 48.7326Z" fill="#DCCA87"/>
<path d="M134.145 70.8505C134.148 70.8759 134.112 70.894 134.036 70.9049C133.96 70.9159 133.92 70.9087 133.917 70.8833C133.866 70.5284 133.83 70.2359 133.81 70.0059L133.625 68.577L133.409 67.2106C133.362 66.9716 133.309 66.6429 133.249 66.2245C133.245 66.1992 133.28 66.1747 133.354 66.1511C133.43 66.1402 133.471 66.1537 133.476 66.1917C133.533 66.5847 133.604 66.8591 133.691 67.0147C133.78 67.1831 133.916 67.2799 134.101 67.3051C134.285 67.3303 134.573 67.3146 134.965 67.2581L139.329 66.6293L138.543 61.1528L134.18 61.7817C133.8 61.8363 133.527 61.9081 133.359 61.997C133.192 62.0986 133.084 62.2436 133.034 62.432C132.996 62.6186 133.004 62.9021 133.059 63.2824C133.064 63.3204 133.029 63.3449 132.953 63.3558C132.877 63.3668 132.837 63.3532 132.831 63.3152C132.771 62.8968 132.731 62.5727 132.711 62.3427L132.528 60.9328L132.321 59.6235C132.274 59.3844 132.222 59.0684 132.166 58.6754C132.16 58.6374 132.195 58.6129 132.271 58.602C132.347 58.591 132.388 58.6046 132.393 58.6426C132.448 59.0229 132.519 59.2909 132.605 59.4466C132.694 59.615 132.831 59.7117 133.015 59.7369C133.201 59.7748 133.49 59.7655 133.882 59.709L142.667 58.4431C143.2 58.3793 143.537 58.2531 143.677 58.0646C143.831 57.8743 143.87 57.5192 143.796 56.9995C143.79 56.9614 143.825 56.937 143.901 56.926C143.977 56.9151 144.018 56.9286 144.023 56.9667L144.135 57.8821C144.19 58.4436 144.242 58.8954 144.291 59.2377C144.34 59.58 144.419 60.0409 144.528 60.6204L144.686 61.5874C144.69 61.6128 144.654 61.6309 144.578 61.6418C144.502 61.6528 144.462 61.6456 144.459 61.6202C144.404 61.2399 144.326 60.9665 144.225 60.7999C144.123 60.6334 143.973 60.5321 143.774 60.4961C143.59 60.4709 143.307 60.4793 142.926 60.5213L139.075 61.0763L139.858 66.5337L143.709 65.9787C144.253 65.9003 144.601 65.766 144.755 65.5757C144.91 65.398 144.95 65.0493 144.876 64.5296C144.872 64.5042 144.908 64.4797 144.982 64.4561C145.057 64.4452 145.098 64.4587 145.104 64.4968L145.218 65.4313C145.273 65.9927 145.326 66.4509 145.377 66.8058C145.426 67.1481 145.503 67.5963 145.608 68.1505L145.766 69.1175C145.772 69.1555 145.737 69.18 145.661 69.191C145.585 69.2019 145.544 69.1884 145.539 69.1503C145.484 68.77 145.406 68.4966 145.305 68.3301C145.218 68.1744 145.082 68.0776 144.895 68.0397C144.709 68.0019 144.425 67.9976 144.041 68.0269L135.257 69.2928C134.89 69.3456 134.618 69.4237 134.439 69.5271C134.274 69.6414 134.168 69.7991 134.119 70.0002C134.083 70.1994 134.092 70.4829 134.145 70.8505Z" fill="#DCCA87"/>
<path d="M133.368 78.961C133.374 78.923 133.414 78.9094 133.49 78.9203C133.566 78.9313 133.602 78.9494 133.599 78.9748C133.522 79.5072 133.499 79.8984 133.527 80.1484C133.554 80.411 133.65 80.5995 133.814 80.7138C133.991 80.8298 134.269 80.9152 134.649 80.9699L143.433 82.2357C143.874 82.3122 144.173 82.2971 144.33 82.1904C144.5 82.0855 144.611 81.8555 144.662 81.5006L144.697 81.2534C144.759 80.8224 144.681 80.3776 144.462 79.9192C144.257 79.4626 143.947 79.0557 143.534 78.6985C143.133 78.3431 142.671 78.0955 142.149 77.9555C142.124 77.9519 142.116 77.9184 142.125 77.855C142.13 77.817 142.142 77.7799 142.16 77.7436C142.189 77.7219 142.209 77.7183 142.22 77.7328C142.691 77.8655 143.936 78.1419 145.954 78.5621C145.992 78.5676 146.007 78.602 145.998 78.6654C145.992 78.7034 145.981 78.7342 145.965 78.7578C145.947 78.794 145.925 78.8102 145.9 78.8066C145.634 78.7683 145.461 79.0344 145.379 79.6049C145.194 80.6262 144.99 81.9102 144.768 83.4568C144.668 84.154 144.569 84.9355 144.471 85.8012L144.299 87.135C144.239 87.5533 144.227 87.8621 144.263 88.0614C144.299 88.2607 144.408 88.3993 144.59 88.4774C144.625 88.5082 144.631 88.5544 144.609 88.6159C144.598 88.692 144.568 88.72 144.52 88.7001C143.968 88.5818 143.272 88.4427 142.43 88.2825C141.601 88.1242 141.04 88.0304 140.747 88.0012C140.709 87.9957 140.695 87.9549 140.706 87.8789C140.721 87.7774 140.753 87.7304 140.804 87.7377C141.323 87.8124 141.821 87.7612 142.298 87.5842C142.773 87.4198 143.174 87.1475 143.499 86.7675C143.823 86.4001 144.02 85.9755 144.089 85.4938L144.124 85.2466C144.161 84.9931 144.155 84.8047 144.108 84.6815C144.06 84.571 143.961 84.4921 143.813 84.4449C143.678 84.3995 143.44 84.3458 143.1 84.2839L134.351 83.0426C133.959 82.9861 133.669 82.9831 133.481 83.0336C133.291 83.0969 133.148 83.2443 133.05 83.4761C132.952 83.7078 132.864 84.0963 132.786 84.6414C132.78 84.6794 132.74 84.6929 132.664 84.682C132.588 84.6711 132.553 84.6466 132.558 84.6086C132.625 84.1395 132.685 83.7728 132.735 83.5084L133.003 81.7807L133.218 80.1427C133.246 79.862 133.296 79.4681 133.368 78.961Z" fill="#DCCA87"/>
<path d="M120.009 111.475C120.026 111.456 120.064 111.471 120.121 111.522C120.179 111.572 120.2 111.607 120.183 111.626C119.924 111.926 119.764 112.16 119.703 112.328C119.635 112.505 119.647 112.677 119.74 112.843C119.834 113.009 120.03 113.222 120.329 113.482L127.036 119.306C127.316 119.55 127.549 119.701 127.734 119.76C127.921 119.838 128.097 119.83 128.263 119.736C128.438 119.651 128.647 119.468 128.889 119.187C128.906 119.168 128.948 119.178 129.014 119.219C129.072 119.269 129.088 119.309 129.063 119.338L128.421 120.052C128.034 120.461 127.727 120.796 127.501 121.057C127.25 121.348 126.941 121.724 126.576 122.186L125.975 122.91C125.959 122.929 125.921 122.914 125.863 122.863C125.805 122.813 125.785 122.778 125.801 122.759C126.053 122.468 126.208 122.23 126.267 122.044C126.326 121.859 126.309 121.683 126.216 121.517C126.114 121.361 125.918 121.148 125.627 120.878L118.949 115.079C118.659 114.827 118.425 114.667 118.248 114.598C118.063 114.538 117.883 114.551 117.708 114.637C117.542 114.73 117.338 114.917 117.095 115.198C117.079 115.217 117.041 115.202 116.983 115.151C116.926 115.101 116.905 115.066 116.922 115.047C117.181 114.747 117.395 114.509 117.564 114.334L118.495 113.286L119.371 112.243C119.521 112.051 119.733 111.795 120.009 111.475Z" fill="#DCCA87"/>
<path d="M106.302 138.166C106.269 138.187 106.233 138.165 106.191 138.101C106.15 138.036 106.145 137.993 106.177 137.972C106.618 137.689 106.881 137.306 106.967 136.824C107.043 136.349 106.92 135.85 106.599 135.326L101.268 126.976C101.237 126.951 101.246 126.906 101.297 126.843C101.33 126.776 101.384 126.719 101.459 126.67C101.567 126.601 101.657 126.588 101.731 126.632L113.938 130.781L109.799 124.29C109.478 123.766 109.086 123.44 108.624 123.311C108.162 123.183 107.705 123.264 107.254 123.555C107.211 123.582 107.169 123.564 107.127 123.499C107.086 123.434 107.086 123.388 107.129 123.361C107.43 123.167 107.665 123.023 107.833 122.93L108.859 122.292L109.816 121.653C109.992 121.524 110.247 121.353 110.58 121.138C110.623 121.11 110.665 121.129 110.707 121.193C110.748 121.258 110.747 121.304 110.704 121.332C110.253 121.623 109.995 122.002 109.93 122.47C109.855 122.945 109.978 123.444 110.299 123.968L114.832 131.073C115.365 131.217 115.8 131.28 116.137 131.261C116.463 131.248 116.755 131.159 117.013 130.993C117.035 130.979 117.066 131.004 117.108 131.069C117.149 131.134 117.159 131.173 117.137 131.187L116.256 131.732C116.077 131.832 115.843 131.975 115.553 132.162C115.262 132.349 115.024 132.51 114.837 132.646C114.64 132.788 114.509 132.88 114.445 132.921C114.359 132.977 114.28 132.997 114.21 132.981C114.128 132.973 114.017 132.93 113.877 132.853C113.624 132.742 113.381 132.648 113.148 132.569L103.467 129.305L107.083 135.014C107.404 135.538 107.795 135.865 108.257 135.993C108.709 136.129 109.166 136.048 109.628 135.75C109.671 135.722 109.713 135.741 109.755 135.805C109.796 135.87 109.795 135.916 109.752 135.944L109.113 136.333C108.669 136.588 108.302 136.809 108.012 136.996C107.786 137.142 107.476 137.357 107.081 137.641L106.302 138.166Z" fill="#DCCA87"/>
<path d="M68.2344 137.048C68.2089 137.073 68.1769 137.086 68.1386 137.086C68.1003 137.086 68.0619 137.073 68.0236 137.048C67.9853 137.035 67.9725 137.022 67.9853 137.009C68.113 136.177 68.1769 135.267 68.1769 134.281C68.1769 134.179 68.1961 134.102 68.2344 134.051C68.2728 134.012 68.3494 133.993 68.4644 133.993H77.2049C77.256 133.993 77.2815 134.032 77.2815 134.108C77.2815 134.185 77.2624 134.224 77.224 134.224C76.8407 134.224 76.5659 134.256 76.3998 134.32C76.2209 134.384 76.1059 134.505 76.0548 134.685C75.9909 134.864 75.959 135.152 75.959 135.549V144.444C75.959 144.828 75.9909 145.11 76.0548 145.289C76.1187 145.469 76.2401 145.59 76.419 145.654C76.5979 145.731 76.8662 145.769 77.224 145.769C77.2624 145.769 77.2879 145.808 77.3007 145.885C77.3007 145.962 77.2879 146 77.2624 146H69.0011C68.8989 146 68.8478 145.942 68.8478 145.827L68.8095 143.291C68.8095 143.253 68.8478 143.234 68.9245 143.234C68.9884 143.234 69.0267 143.246 69.0395 143.272C69.2567 143.989 69.6528 144.553 70.2279 144.963C70.7901 145.385 71.461 145.597 72.2405 145.597H72.6046C73.0008 145.597 73.2883 145.565 73.4672 145.501C73.6333 145.449 73.7419 145.347 73.793 145.193C73.8441 145.039 73.8761 144.783 73.8889 144.425V140.506H71.4929C70.8412 140.506 70.362 140.621 70.0554 140.851C69.7487 141.082 69.5953 141.453 69.5953 141.966C69.5953 142.017 69.5506 142.043 69.4612 142.043C69.3717 142.043 69.327 142.011 69.327 141.946L69.3462 140.89C69.3589 140.736 69.3653 140.518 69.3653 140.237C69.3653 139.827 69.3589 139.52 69.3462 139.315L69.327 138.277C69.327 138.213 69.3653 138.181 69.442 138.181C69.4803 138.181 69.5187 138.188 69.557 138.2C69.5826 138.226 69.5953 138.252 69.5953 138.277C69.5953 138.828 69.7678 139.244 70.1129 139.526C70.4451 139.82 70.9179 139.968 71.5313 139.968H73.8889V135.626C73.8889 135.114 73.8122 134.781 73.6589 134.627C73.4927 134.473 73.1541 134.397 72.643 134.397H72.1063C71.2757 134.397 70.5154 134.634 69.8253 135.107C69.1353 135.594 68.605 136.241 68.2344 137.048Z" fill="#DCCA87"/>
<path d="M45.7496 141.133C45.6883 141.115 45.6685 141.069 45.6901 140.995C45.7117 140.921 45.7531 140.894 45.8144 140.912C46.2681 141.045 46.7044 141.033 47.1233 140.876C47.5299 140.716 47.9974 140.279 48.5256 139.567L54.747 131.287C54.8018 131.236 54.9027 131.233 55.0499 131.276C55.1112 131.294 55.1689 131.324 55.223 131.367C55.2807 131.397 55.3121 131.427 55.3171 131.455L56.9751 142.775C57.0517 143.331 57.1673 143.732 57.3217 143.978C57.4726 144.236 57.7196 144.415 58.0629 144.516C58.0997 144.527 58.1073 144.569 58.0857 144.643C58.0641 144.717 58.041 144.75 58.0165 144.743L57.0472 144.438C56.613 144.283 56.2917 144.175 56.0833 144.114C55.6174 143.977 55.0865 143.834 54.4908 143.685L53.5843 143.439C53.523 143.421 53.5031 143.375 53.5247 143.301C53.5463 143.227 53.5878 143.199 53.6491 143.217C54.3357 143.419 54.7348 143.33 54.8464 142.949C54.886 142.814 54.8909 142.615 54.8612 142.353L53.634 133.722L49.1531 139.812C48.9758 140.053 48.8584 140.272 48.8008 140.469C48.6892 140.85 48.7438 141.186 48.9646 141.478C49.1818 141.783 49.5233 142.003 49.9892 142.14C50.0383 142.155 50.052 142.199 50.0304 142.273C50.0088 142.346 49.9735 142.376 49.9244 142.361L48.9919 142.067C48.4596 141.884 47.9728 141.727 47.5314 141.597C47.2862 141.525 46.9761 141.447 46.601 141.363L45.7496 141.133Z" fill="#DCCA87"/>
<path d="M34.4171 124.434C34.3818 124.441 34.348 124.435 34.3158 124.414C34.2835 124.393 34.2582 124.362 34.2398 124.319C34.2144 124.288 34.2106 124.27 34.2282 124.266C34.7848 123.635 35.329 122.905 35.861 122.075C35.9163 121.989 35.9738 121.935 36.0337 121.912C36.0867 121.901 36.1616 121.926 36.2583 121.989L43.6112 126.725C43.6542 126.752 43.655 126.799 43.6135 126.863C43.5721 126.928 43.5352 126.95 43.503 126.929C43.1805 126.721 42.9321 126.599 42.7578 126.563C42.5728 126.52 42.4104 126.56 42.2707 126.683C42.1202 126.799 41.9379 127.025 41.7237 127.359L36.9257 134.841C36.7185 135.165 36.5934 135.419 36.5504 135.604C36.5074 135.79 36.5439 135.958 36.6599 136.109C36.7689 136.27 36.974 136.448 37.275 136.642C37.3072 136.663 37.308 136.709 37.2773 136.78C37.2358 136.845 37.2043 136.87 37.1828 136.857L30.2331 132.38C30.1471 132.325 30.1352 132.249 30.1973 132.152L31.533 129.998C31.5537 129.965 31.5963 129.97 31.6608 130.011C31.7146 130.046 31.7399 130.078 31.7368 130.106C31.5327 130.827 31.562 131.516 31.8246 132.172C32.0697 132.832 32.52 133.374 33.1758 133.796L33.4821 133.993C33.8154 134.208 34.0745 134.337 34.2596 134.38C34.427 134.427 34.5736 134.4 34.6995 134.298C34.8254 134.196 34.9904 133.998 35.1946 133.703L37.3086 130.407L35.293 129.108C34.7448 128.755 34.2795 128.592 33.8972 128.62C33.5148 128.648 33.1855 128.877 32.9091 129.308C32.8815 129.351 32.83 129.349 32.7548 129.3C32.6795 129.252 32.6592 129.201 32.6937 129.147L33.2798 128.268C33.3735 128.146 33.4963 127.966 33.6483 127.729C33.8693 127.384 34.0298 127.122 34.1296 126.943L34.673 126.06C34.7076 126.006 34.7571 126 34.8216 126.041C34.8538 126.062 34.8826 126.088 34.908 126.12C34.9157 126.155 34.9126 126.184 34.8988 126.205C34.6017 126.669 34.5223 127.112 34.6606 127.536C34.7812 127.964 35.0995 128.344 35.6154 128.676L37.5988 129.954L39.9408 126.302C40.2171 125.871 40.3322 125.549 40.2861 125.337C40.2293 125.117 39.9859 124.869 39.5559 124.592L39.1044 124.301C38.4057 123.851 37.6382 123.639 36.8021 123.663C35.9591 123.699 35.1641 123.956 34.4171 124.434Z" fill="#DCCA87"/>
<path d="M22.1151 107.906C22.09 107.877 22.1064 107.837 22.1643 107.787C22.2139 107.727 22.2554 107.716 22.2889 107.755L24.3474 110.136C24.5483 110.368 24.5134 111.11 24.2429 112.362C23.9544 113.612 23.3794 115.323 22.5178 117.495C22.8197 117.707 23.1129 117.978 23.3974 118.307C23.4393 118.356 23.484 118.427 23.5317 118.521L26.9648 115.539C27.2532 115.306 27.449 115.102 27.552 114.928C27.637 114.752 27.6499 114.572 27.5906 114.386C27.5134 114.199 27.3493 113.96 27.0982 113.67C27.0648 113.631 27.077 113.586 27.1349 113.536C27.1845 113.476 27.226 113.465 27.2595 113.504C27.544 113.833 27.7568 114.089 27.8977 114.272L28.8121 115.359L29.768 116.435C29.945 116.62 30.1758 116.877 30.4603 117.206C30.4938 117.245 30.4857 117.294 30.4361 117.354C30.3782 117.405 30.3325 117.411 30.299 117.372C30.0229 117.052 29.7937 116.836 29.6115 116.723C29.4197 116.619 29.2353 116.601 29.0582 116.67C28.8632 116.738 28.6214 116.888 28.333 117.122L21.626 122.947C21.3363 123.198 21.1489 123.412 21.064 123.587C20.9706 123.753 20.9625 123.93 21.0398 124.117C21.1073 124.312 21.2708 124.56 21.5302 124.86C21.5637 124.899 21.5515 124.943 21.4935 124.994C21.4356 125.044 21.3899 125.05 21.3564 125.011L20.7056 124.229C20.3568 123.786 20.0652 123.43 19.8309 123.159C19.5463 122.829 19.2174 122.488 18.8441 122.134C18.557 121.842 18.3716 121.647 18.2879 121.55C17.4427 120.572 16.9703 119.703 16.8706 118.942C16.7625 118.172 16.9933 117.539 17.5631 117.045C17.9784 116.684 18.5005 116.476 19.1295 116.421C19.7501 116.357 20.3874 116.439 21.0414 116.667C21.6345 114.83 22.0624 113.34 22.3252 112.197C22.5699 111.052 22.6801 110.143 22.6557 109.47C22.6133 108.795 22.433 108.273 22.1151 107.906ZM23.126 118.873C23.0546 118.732 22.9478 118.579 22.8055 118.414C22.2532 117.776 21.7241 117.447 21.2181 117.429C20.7037 117.401 20.1182 117.673 19.4615 118.243C18.7758 118.838 18.3908 119.41 18.3064 119.958C18.204 120.504 18.3201 120.971 18.6549 121.358C18.8808 121.62 19.0549 121.782 19.1772 121.845C19.2899 121.917 19.4257 121.917 19.5847 121.847C19.7257 121.775 19.9598 121.606 20.2868 121.339L23.126 118.873Z" fill="#DCCA87"/>
<path d="M4.22094 98.2787C4.19439 98.2204 4.21599 98.1753 4.28574 98.1434C4.35548 98.1115 4.40362 98.1247 4.43016 98.1829C4.61595 98.5907 4.9507 98.9091 5.4344 99.1383C5.90118 99.3611 6.5423 99.5041 7.35778 99.5673L11.4668 99.7985L15.5292 97.939C15.8895 97.7741 16.1378 97.6253 16.274 97.4925C16.4049 97.3481 16.4569 97.1695 16.4301 96.9565C16.4033 96.7435 16.2943 96.4273 16.1032 96.0079C16.082 95.9613 16.1062 95.922 16.176 95.8901C16.2457 95.8581 16.2912 95.8655 16.3124 95.9121C16.4982 96.3198 16.6358 96.637 16.725 96.8637L17.3366 98.2522L18.0149 99.6946C18.1327 99.9223 18.2818 100.234 18.4623 100.63C18.4836 100.677 18.4593 100.716 18.3896 100.748C18.3198 100.78 18.2743 100.773 18.2531 100.726C18.062 100.307 17.8923 100.011 17.7439 99.8398C17.5839 99.6737 17.4066 99.5929 17.2121 99.5975C17.0122 99.5904 16.7405 99.6725 16.3971 99.8438L12.5867 101.609L9.63339 106.319C9.33072 106.795 9.13898 107.207 9.05816 107.554C8.97203 107.889 8.98736 108.184 9.10414 108.441C9.12538 108.487 9.10112 108.527 9.03138 108.558C8.96695 108.602 8.92677 108.606 8.91084 108.571L8.51423 107.655C8.33576 107.201 8.19875 106.87 8.1032 106.66C7.97049 106.369 7.75981 105.937 7.47114 105.366L7.04762 104.482C7.03169 104.447 7.04698 104.419 7.09347 104.398C7.12834 104.382 7.16852 104.378 7.21401 104.385C7.24257 104.386 7.26215 104.398 7.27277 104.421C7.41079 104.724 7.53489 104.935 7.64509 105.054C7.74997 105.16 7.85472 105.19 7.95933 105.142C8.06395 105.094 8.17108 104.975 8.28072 104.784L11.0965 100.327L7.15734 100.145C6.87709 100.146 6.64398 100.19 6.458 100.275C6.19066 100.397 6.01809 100.589 5.94029 100.85C5.85719 101.099 5.8926 101.392 6.04655 101.73C6.06778 101.777 6.04352 101.816 5.97378 101.848C5.90404 101.88 5.86121 101.879 5.84528 101.844L5.43274 100.892C5.19057 100.299 4.99783 99.845 4.8545 99.5304C4.76426 99.3324 4.64913 99.1105 4.5091 98.8648L4.22094 98.2787Z" fill="#DCCA87"/>
<path d="M6.08512 62.1063C6.36618 61.047 6.844 60.236 7.51857 59.6733C8.18049 59.1088 8.94149 58.8885 9.80157 59.0125C10.4593 59.1073 11.0256 59.3894 11.5004 59.8589C11.9753 60.3285 12.3217 60.9283 12.5397 61.6584C12.7451 62.3867 12.7868 63.1756 12.665 64.0249C12.6141 64.3799 12.5369 64.7828 12.4335 65.2337C12.3954 65.4094 12.3509 65.6294 12.3001 65.8938C12.251 66.1455 12.2038 66.4298 12.1583 66.7467L11.9809 68.1186C11.959 68.3613 11.9171 68.6981 11.8553 69.1291C11.8517 69.1545 11.8119 69.1617 11.736 69.1508C11.6601 69.1398 11.624 69.1217 11.6276 69.0963C11.6804 68.7287 11.6879 68.4516 11.6501 68.265C11.6015 68.0639 11.4941 67.9126 11.3279 67.811C11.1617 67.7094 10.8889 67.6313 10.5095 67.5766L1.72524 66.3108C1.35844 66.2579 1.08104 66.2567 0.893056 66.3073C0.694238 66.3433 0.549569 66.4519 0.459049 66.6329C0.3577 66.7995 0.280656 67.0665 0.227918 67.4342C0.224281 67.4595 0.184518 67.4667 0.108628 67.4558C0.0327387 67.4449 -0.00338759 67.4267 0.000249511 67.4014L0.163797 66.3963C0.269109 65.8421 0.346316 65.3939 0.395417 65.0517C0.446336 64.6967 0.480102 64.3263 0.496714 63.9406C0.502251 63.812 0.516881 63.62 0.540603 63.3646C0.564326 63.1093 0.589827 62.8865 0.617105 62.6964C0.788049 61.5047 1.12859 60.6157 1.63873 60.0293C2.15069 59.4303 2.80509 59.1882 3.60193 59.303C4.20905 59.3905 4.73016 59.6726 5.16525 60.1494C5.60034 60.6261 5.90696 61.2784 6.08512 62.1063ZM0.955637 63.0363C0.902899 63.4039 0.955066 63.6702 1.11214 63.8352C1.26921 64.0001 1.58806 64.1172 2.0687 64.1865L5.67347 64.706L5.80428 63.9291C5.90248 63.2445 5.73131 62.6829 5.29076 62.2442C4.83939 61.7909 4.23425 61.5096 3.47535 61.4003C2.7544 61.2964 2.17965 61.3882 1.7511 61.6758C1.31172 61.9489 1.04656 62.4024 0.955637 63.0363ZM12.2012 64.288C12.3303 63.388 12.2036 62.6969 11.8209 62.2147C11.4382 61.7326 10.8105 61.4287 9.93776 61.3029C8.96384 61.1625 8.15774 61.2922 7.51946 61.6919C6.88118 62.0916 6.49021 62.7922 6.34654 63.7937C6.2938 64.1613 6.25917 64.4928 6.24264 64.788L10.815 65.4469C11.2577 65.5107 11.5794 65.4729 11.7801 65.3336C11.9808 65.1944 12.1212 64.8458 12.2012 64.288Z" fill="#DCCA87"/>
<path d="M16.6115 49.4625C16.6009 49.4858 16.5607 49.4815 16.491 49.4496C16.4213 49.4177 16.3917 49.3901 16.4023 49.3668C16.5669 49.0056 16.6546 48.736 16.6655 48.558C16.6817 48.3683 16.6217 48.207 16.4855 48.0743C16.3493 47.9416 16.1011 47.7927 15.7407 47.6278L7.66812 43.9328C7.33103 43.7785 7.0652 43.6991 6.87062 43.6945C6.66973 43.673 6.50306 43.7304 6.37063 43.8669C6.22657 43.9981 6.07757 44.2326 5.92363 44.5705C5.91301 44.5938 5.87018 44.5953 5.79513 44.575C5.72538 44.5431 5.69848 44.5097 5.7144 44.4747L6.12996 43.6089C6.38677 43.107 6.58684 42.6987 6.73017 42.3842C6.88942 42.0347 7.07951 41.5867 7.30045 41.0401L7.67317 40.1759C7.68379 40.1526 7.72397 40.1569 7.79371 40.1888C7.86345 40.2207 7.89302 40.2483 7.8824 40.2716C7.72315 40.6211 7.64124 40.8934 7.63666 41.0884C7.63209 41.2834 7.69789 41.4473 7.83408 41.5801C7.97558 41.7011 8.22384 41.85 8.57886 42.0266L16.6166 45.7056C16.9653 45.8652 17.2343 45.9531 17.4236 45.9693C17.6181 45.9739 17.7875 45.9106 17.9315 45.7795C18.064 45.643 18.2071 45.4058 18.3611 45.0679C18.3717 45.0446 18.4119 45.0489 18.4816 45.0809C18.5514 45.1128 18.5809 45.1404 18.5703 45.1637C18.4058 45.5249 18.2672 45.8134 18.1548 46.0295L17.5561 47.2972L17.0082 48.5459C16.9189 48.7725 16.7867 49.0781 16.6115 49.4625Z" fill="#DCCA87"/>
<path d="M24.9744 35.1782C24.9493 35.2072 24.9078 35.1966 24.8498 35.1463C24.7919 35.0959 24.7713 35.0611 24.788 35.0417C25.1395 34.6352 25.3706 34.319 25.4813 34.0932C25.6003 33.8577 25.6216 33.6473 25.5449 33.4622C25.4587 33.2686 25.2707 33.046 24.9809 32.7944L18.274 26.9696C17.9443 26.6664 17.6846 26.5171 17.4947 26.5216C17.2951 26.5178 17.0782 26.6513 16.8438 26.9224L16.6807 27.1111C16.3962 27.4402 16.2221 27.8567 16.1584 28.3606C16.085 28.8562 16.126 29.3662 16.2812 29.8908C16.4267 30.4069 16.6813 30.8653 17.0451 31.266C17.0644 31.2827 17.0532 31.3153 17.0113 31.3637C16.9862 31.3928 16.9563 31.4176 16.9215 31.4383C16.8855 31.4408 16.8668 31.4331 16.8655 31.415C16.5404 31.0479 15.6422 30.1408 14.1711 28.6937C14.1421 28.6686 14.1486 28.6318 14.1904 28.5834C14.2155 28.5544 14.2413 28.5344 14.2676 28.5234C14.3024 28.5027 14.3294 28.5008 14.3488 28.5176C14.5516 28.6937 14.8412 28.564 15.2178 28.1284C15.9246 27.3696 16.7884 26.3997 17.8093 25.2189C18.2696 24.6865 18.7746 24.0829 19.3243 23.4079L20.1884 22.379C20.4646 22.0596 20.6413 21.8064 20.7185 21.6192C20.7957 21.4321 20.7787 21.2563 20.6673 21.0918C20.655 21.0473 20.6747 21.005 20.7262 20.965C20.7764 20.9069 20.8166 20.8995 20.8469 20.9427C21.2467 21.3408 21.7576 21.8353 22.3795 22.4263C22.9918 23.0088 23.4131 23.3917 23.6436 23.575C23.6726 23.6001 23.662 23.6417 23.6118 23.6998C23.5448 23.7772 23.492 23.7992 23.4534 23.7656C23.0575 23.4218 22.611 23.195 22.114 23.0854C21.6254 22.9661 21.1416 22.978 20.6626 23.1213C20.1921 23.2549 19.7978 23.5056 19.4798 23.8734L19.3166 24.0622C19.1492 24.2558 19.0521 24.4171 19.025 24.5461C19.0064 24.6655 19.0466 24.7852 19.1458 24.9052C19.2353 25.0168 19.4062 25.1907 19.6586 25.4268L26.3491 31.2119C26.6485 31.4719 26.8909 31.6315 27.0763 31.6909C27.2701 31.7406 27.4706 31.6944 27.6779 31.5524C27.8852 31.4105 28.1687 31.1314 28.5285 30.7152C28.5536 30.6861 28.5952 30.6968 28.6531 30.7471C28.711 30.7974 28.7275 30.8371 28.7024 30.8661C28.3927 31.2243 28.1452 31.5008 27.9599 31.6956L26.8031 33.0043L25.7381 34.2655C25.5637 34.4868 25.3091 34.791 24.9744 35.1782Z" fill="#DCCA87"/>
<path d="M42.0237 16.7055C42.0314 16.6701 42.0513 16.642 42.0836 16.6212C42.1158 16.6005 42.155 16.5905 42.2011 16.5912C42.2402 16.5812 42.2579 16.5851 42.254 16.6028C42.5956 17.3724 43.0324 18.1719 43.5643 19.0016C43.6196 19.0877 43.6449 19.1628 43.6403 19.2266C43.6288 19.2797 43.5746 19.3374 43.4779 19.3998L36.125 24.1359C36.082 24.1636 36.0398 24.1451 35.9983 24.0805C35.9569 24.0158 35.9523 23.9731 35.9845 23.9523C36.307 23.7446 36.5208 23.5688 36.6261 23.4249C36.742 23.2741 36.7731 23.1094 36.7194 22.9309C36.6764 22.7454 36.5479 22.4857 36.3337 22.1517L31.5357 14.669C31.3285 14.3458 31.1496 14.1261 30.9992 14.0099C30.8487 13.8937 30.6809 13.8571 30.4959 13.9002C30.304 13.9324 30.0575 14.0455 29.7565 14.2394C29.7242 14.2602 29.682 14.2417 29.6298 14.184C29.5884 14.1193 29.5784 14.0801 29.5999 14.0662L36.5497 9.58978C36.6357 9.53439 36.7097 9.55517 36.7719 9.65214L38.1721 11.7647C38.1928 11.797 38.1709 11.8339 38.1064 11.8755C38.0526 11.9101 38.0135 11.9201 37.9889 11.9055C37.4193 11.4198 36.7821 11.1604 36.0773 11.1272C35.3763 11.0763 34.6979 11.2621 34.0422 11.6844L33.7358 11.8818C33.4026 12.0964 33.178 12.2792 33.062 12.43C32.9499 12.5631 32.9138 12.7081 32.9537 12.8651C32.9936 13.0221 33.1049 13.2549 33.2876 13.5635L35.4016 16.8604L37.4172 15.5621C37.9654 15.209 38.3064 14.8524 38.44 14.4922C38.5737 14.1321 38.5023 13.7366 38.226 13.3056C38.1983 13.2625 38.2221 13.2167 38.2974 13.1683C38.3726 13.1198 38.4275 13.1225 38.4621 13.1764L39.0159 14.0756C39.0881 14.2118 39.2001 14.3985 39.3521 14.6355C39.5732 14.9803 39.7444 15.2354 39.8657 15.4009L40.4414 16.2632C40.4759 16.317 40.4609 16.3648 40.3964 16.4063C40.3642 16.4271 40.3285 16.4425 40.2893 16.4525C40.254 16.4448 40.2294 16.4301 40.2156 16.4086C39.9186 15.9453 39.5489 15.6886 39.1067 15.6385C38.6683 15.5708 38.1911 15.703 37.6751 16.0354L35.6917 17.3129L38.0337 20.9654C38.3101 21.3963 38.5542 21.6349 38.7661 21.6811C38.9887 21.7204 39.3151 21.6015 39.7451 21.3246L40.1966 21.0338C40.8953 20.5837 41.4071 19.9724 41.732 19.1998C42.0499 18.4165 42.1472 17.5851 42.0237 16.7055Z" fill="#DCCA87"/>
</svg>
