<svg width="1920" height="10984" viewBox="0 0 1920 10984" fill="none" xmlns="http://www.w3.org/2000/svg">
<path opacity="0.2" d="M-23.2445 11142.5L-22.4092 11138.9C499.629 11275 472.088 11609.5 442.061 11964C419.711 12229.4 397.256 12503.7 598.631 12717.7C760.332 12889.6 891.03 12825.2 1042.34 12750.3C1151.9 12696.6 1275.42 12635.3 1429.53 12657.7C1605.94 12683.5 1794.03 12815.2 2004.15 13060.5L2001.34 13062.9C1792 12818.5 1604.57 12687.2 1429.35 12661.6C1276.96 12639.3 1153.31 12700.1 1044.28 12753.7C891.382 12829 759.748 12894.1 595.826 12720.1C393.013 12504.8 415.873 12229.9 438.096 11964C467.971 11611.2 495.764 11277.7 -23.2445 11142.5Z" fill="#ABABAB"/>
<path opacity="0.2" d="M1981 1.5C1548.17 17.3333 628.6 219.8 413 903C197.4 1586.2 907.833 2324 1290 2607.5C1701.17 2878.83 2276.8 3984 1290 6234C56.5 9046.5 222.5 9261 1290 10693L2083.5 11722C1816.83 11757.3 1309.1 12027.4 1411.5 12825C1513.9 13622.6 416.833 14547 -144.5 14909.5" stroke="#ABABAB" stroke-width="2"/>
<path opacity="0.2" d="M-1049 92C-616.167 107.833 303.4 310.3 519 993.5C734.6 1676.7 24.1667 2414.5 -358 2698C-769.167 2969.33 -1344.8 4074.5 -358 6324.5C875.5 9137 709.5 9351.5 -358 10783.5" stroke="#ABABAB" stroke-width="2"/>
</svg>
